<?xml version="1.0" encoding="UTF-8"?>
<svg version="1.1" xmlns="http://www.w3.org/2000/svg" width="512" height="512">
<path d="M0 0 C1.60020386 -0.00417557 3.20040475 -0.00965432 4.80060017 -0.01631981 C9.18708911 -0.03076391 13.57338999 -0.02653293 17.95988917 -0.019153 C22.69483497 -0.01442106 27.4297401 -0.02693143 32.16467285 -0.03717041 C41.43673325 -0.05436337 50.7087259 -0.05519736 59.98079811 -0.04995751 C67.51771441 -0.04591541 75.05461069 -0.04735984 82.59152603 -0.05270576 C83.66439504 -0.05345419 84.73726406 -0.05420261 85.84264425 -0.05497371 C88.02221067 -0.05650519 90.20177709 -0.05804354 92.3813435 -0.05958868 C112.81942148 -0.07331558 133.25746119 -0.06787474 153.6955383 -0.05640347 C172.38950664 -0.04647145 191.083376 -0.05941089 209.77732907 -0.08333766 C228.97655162 -0.10772581 248.17572806 -0.11733719 267.37496579 -0.11068493 C278.15216584 -0.10719201 288.92928978 -0.10942958 299.70647812 -0.12693596 C308.88111132 -0.14165438 318.0556148 -0.14229806 327.23024546 -0.12486505 C331.90998694 -0.11634965 336.58949665 -0.11421871 341.26922607 -0.1295166 C345.55639503 -0.14335757 349.84313351 -0.13860819 354.13027753 -0.11927737 C355.6779841 -0.11551523 357.2257251 -0.11844554 358.77340101 -0.12888902 C371.56245296 -0.20902483 380.65159169 1.7544446 390.10574341 10.74705505 C397.90280053 19.81901824 399.53017643 29.06614502 399.49552917 40.55584717 C399.49681081 42.10583815 399.49681081 42.10583815 399.49811834 43.68714207 C399.49976717 47.15415211 399.49426148 50.62111391 399.48880005 54.08811951 C399.48851802 56.57158405 399.48867621 59.05504868 399.48924255 61.53851318 C399.48947037 66.88758275 399.48663151 72.23663726 399.48100471 77.5857029 C399.47287463 85.31953425 399.47027295 93.05335971 399.46901672 100.78719487 C399.46682858 113.33509757 399.46017492 125.88299377 399.45071411 138.43089294 C399.44153386 150.61936918 399.43445602 162.80784364 399.4302063 174.99632263 C399.42981221 176.12343653 399.42981221 176.12343653 399.42941017 177.27332041 C399.42810512 181.04295319 399.42684142 184.81258597 399.42559826 188.58221877 C399.41523305 219.85071059 399.39754679 251.11919433 399.37527466 282.38768005 C400.71930359 282.48331741 400.71930359 282.48331741 402.09048462 282.58088684 C403.26405518 282.66714325 404.43762573 282.75339966 405.64675903 282.8422699 C407.39297546 282.96884476 407.39297546 282.96884476 409.17446899 283.09797668 C425.38355783 284.56505346 441.57295809 294.23162735 452.07058716 306.4306488 C464.2211338 321.25839654 470.01775672 337.50272172 469.89285278 356.65403748 C469.89829169 358.01755514 469.90542413 359.38106691 469.91409302 360.74456787 C469.93211467 364.4015361 469.92534946 368.05804607 469.91257668 371.7150209 C469.90234392 375.56688141 469.91186995 379.41870655 469.91812134 383.27056885 C469.92536557 389.73179568 469.91589266 396.19283865 469.89675903 402.65403748 C469.87496867 410.09782011 469.88207017 417.54116474 469.90406466 424.98493689 C469.9222781 431.40915495 469.92474892 437.83324202 469.91430998 444.25747758 C469.90811109 448.08010264 469.9071395 451.90252246 469.92045593 455.7251339 C469.93210213 459.31809597 469.92383135 462.9104985 469.90087891 466.5034008 C469.89316184 468.43225738 469.90487041 470.3611619 469.91738892 472.28999329 C469.80375706 484.10593132 466.80815741 493.85823758 458.37527466 502.38768005 C447.5268345 511.61963079 437.32737358 513.43759513 423.44412231 512.6078949 C418.96873504 512.13152018 415.2449749 510.60774712 411.37527466 508.38768005 C410.34402466 507.81018005 409.31277466 507.23268005 408.25027466 506.63768005 C399.27530743 499.61379266 394.21604562 491.44724987 389.00027466 481.51268005 C387.93710052 479.5163984 386.86991988 477.52235578 385.79943848 475.52998352 C384.84028993 473.74055237 383.89189751 471.94536807 382.94412231 470.14988708 C381.51683352 467.35214797 381.51683352 467.35214797 379.37527466 465.38768005 C377.80108765 466.11680351 377.80108765 466.11680351 376.19509888 466.86065674 C370.31609704 469.04761107 364.46172036 468.82738117 358.25808716 468.8200531 C356.95969406 468.83024475 355.66130096 468.8404364 354.32356262 468.85093689 C350.78487034 468.87838274 347.24633874 468.88777436 343.70755386 468.89379096 C340.00127108 468.90320719 336.2951068 468.92941307 332.58889771 468.95379639 C325.58036784 468.99737607 318.57186109 469.02597529 311.56323719 469.04911977 C303.5800637 469.07621734 295.59700994 469.12012593 287.61392212 469.16540849 C271.20110043 469.25813249 254.78825725 469.32986909 238.37527466 469.38768005 C237.84740356 470.39967468 237.84740356 470.39967468 237.30886841 471.43211365 C235.67537346 474.54822917 234.02546179 477.65537405 232.37527466 480.76268005 C231.82226685 481.82357849 231.26925903 482.88447693 230.69949341 483.9775238 C225.96814128 492.84201113 220.66420035 502.11112227 211.81277466 507.38768005 C210.9452356 507.92393005 210.07769653 508.46018005 209.18386841 509.01268005 C203.04122222 512.01992826 197.28736835 512.77693311 190.56277466 512.76268005 C189.3740979 512.76026306 189.3740979 512.76026306 188.16140747 512.75779724 C181.89957156 512.62696822 176.85813402 511.53787161 171.37527466 508.38768005 C170.32339966 507.78955505 169.27152466 507.19143005 168.18777466 506.57518005 C159.87350389 500.10852501 153.41775607 492.04073573 151.37527466 481.38768005 C151.30736791 479.13860853 151.29027482 476.88766401 151.31277466 474.63768005 C151.3217981 473.4672113 151.33082153 472.29674255 151.34011841 471.09080505 C151.35752075 469.75275818 151.35752075 469.75275818 151.37527466 468.38768005 C150.52566288 468.39228902 149.6760511 468.39689798 148.80069351 468.40164661 C128.09210055 468.51224802 107.38355875 468.59489598 86.67473221 468.64674091 C76.65992856 468.67248157 66.64532253 468.70755272 56.63064575 468.76487732 C47.89804247 468.81483927 39.16558236 468.84700112 30.43284011 468.85812253 C25.81229783 468.86461969 21.19216502 468.87980283 16.57175446 468.91633034 C12.21488779 468.95049239 7.85859579 468.96069265 3.50160789 468.95321846 C1.91018478 468.95458404 0.31874068 468.96439569 -1.27256584 468.98370743 C-12.18045054 469.1094908 -21.93919153 467.85967297 -30.99972534 461.13768005 C-41.54784225 450.08727186 -43.07084593 439.50102352 -43.0124054 424.77589417 C-43.0165804 423.06844574 -43.02205883 421.36100008 -43.02872521 419.65355957 C-43.0431767 414.97063351 -43.03893599 410.28788349 -43.03155839 405.60494781 C-43.0268283 400.55098173 -43.0393352 395.49705382 -43.04957581 390.44309998 C-43.06677234 380.54539059 -43.06760202 370.64774466 -43.0623629 360.75002421 C-43.05832149 352.70490843 -43.05976442 344.65981139 -43.06511116 336.6146965 C-43.06623379 334.8971539 -43.06623379 334.8971539 -43.06737911 333.14491346 C-43.06891058 330.81878504 -43.07044893 328.49265662 -43.07199407 326.16652821 C-43.08572226 304.35213784 -43.08027923 282.53778333 -43.06880886 260.72339378 C-43.05887661 240.76845519 -43.07181647 220.81360932 -43.09574305 200.85868503 C-43.12012835 180.36672895 -43.12974329 159.87481606 -43.12309033 139.38284576 C-43.11959679 127.87905994 -43.12183909 116.37534544 -43.13934135 104.87157059 C-43.1540562 95.07843731 -43.15470813 85.28542556 -43.13727044 75.49229468 C-43.12875213 70.49661676 -43.12663128 65.50115601 -43.141922 60.50548935 C-43.15575417 55.92966391 -43.15102477 51.35424199 -43.13168276 46.77843998 C-43.12791794 45.12575422 -43.13085864 43.47303625 -43.14129441 41.82037915 C-43.21437628 29.35766228 -41.67339295 18.71723756 -32.62472534 9.38768005 C-22.36996723 0.99742341 -12.79965149 -0.05427365 0 0 Z " fill="#D7DCE4" transform="translate(42.624725341796875,-0.3876800537109375)"/>
<path d="M0 0 C14.05732557 14.12250637 22.87713484 31.90048802 23.06945801 52.04333496 C23.05731262 53.90556702 23.05731262 53.90556702 23.04492188 55.80541992 C23.05036078 57.16893759 23.05749323 58.53244936 23.06616211 59.89595032 C23.08418377 63.55291855 23.07741856 67.20942851 23.06464577 70.86640334 C23.05441301 74.71826385 23.06393904 78.570089 23.07019043 82.42195129 C23.07743466 88.88317813 23.06796175 95.3442211 23.04882812 101.80541992 C23.02703776 109.24920255 23.03413926 116.69254719 23.05613375 124.13631934 C23.07434719 130.5605374 23.07681801 136.98462446 23.06637907 143.40886003 C23.06018018 147.23148509 23.0592086 151.05390491 23.07252502 154.87651634 C23.08417122 158.46947842 23.07590044 162.06188095 23.052948 165.65478325 C23.04523094 167.58363982 23.0569395 169.51254434 23.06945801 171.44137573 C22.95582615 183.25731377 19.9602265 193.00962003 11.52734375 201.5390625 C0.67890359 210.77101323 -9.52055733 212.58897758 -23.40380859 211.75927734 C-27.87919587 211.28290263 -31.60295601 209.75912957 -35.47265625 207.5390625 C-36.50390625 206.9615625 -37.53515625 206.3840625 -38.59765625 205.7890625 C-47.57262348 198.7651751 -52.63188529 190.59863231 -57.84765625 180.6640625 C-58.91083039 178.66778084 -59.97801102 176.67373822 -61.04849243 174.68136597 C-62.00764098 172.89193481 -62.9560334 171.09675051 -63.90380859 169.30126953 C-65.33109738 166.50353042 -65.33109738 166.50353042 -67.47265625 164.5390625 C-68.52211426 165.02514481 -69.57157227 165.51122711 -70.65283203 166.01203918 C-76.53183386 168.19899352 -82.38621055 167.97876361 -88.58984375 167.97143555 C-90.5374334 167.98672302 -90.5374334 167.98672302 -92.52436829 168.00231934 C-96.06306057 168.02976518 -99.60159217 168.0391568 -103.14037704 168.04517341 C-106.84665983 168.05458964 -110.55282411 168.08079551 -114.2590332 168.10517883 C-121.26756307 168.14875852 -128.27606982 168.17735773 -135.28469372 168.20050222 C-143.2678672 168.22759979 -151.25092097 168.27150838 -159.23400879 168.31679094 C-175.64683048 168.40951493 -192.05967365 168.48125153 -208.47265625 168.5390625 C-208.82457031 169.21372559 -209.17648437 169.88838867 -209.5390625 170.58349609 C-211.17255745 173.69961162 -212.82246912 176.8067565 -214.47265625 179.9140625 C-215.02566406 180.97496094 -215.57867187 182.03585937 -216.1484375 183.12890625 C-220.87978963 191.99339358 -226.18373056 201.26250471 -235.03515625 206.5390625 C-236.33646484 207.3434375 -236.33646484 207.3434375 -237.6640625 208.1640625 C-243.80670869 211.1713107 -249.56056256 211.92831556 -256.28515625 211.9140625 C-257.47383301 211.91164551 -257.47383301 211.91164551 -258.68652344 211.90917969 C-264.94835935 211.77835067 -269.98979689 210.68925406 -275.47265625 207.5390625 C-276.52453125 206.9409375 -277.57640625 206.3428125 -278.66015625 205.7265625 C-287.02112851 199.22358407 -293.32956543 191.21096595 -295.47265625 180.5390625 C-295.56889933 178.69319636 -295.61176503 176.84425129 -295.61982727 174.99589539 C-295.62698257 173.86774918 -295.63413788 172.73960297 -295.64151001 171.57727051 C-295.64419891 170.34351685 -295.64688782 169.10976318 -295.6496582 167.83862305 C-295.6562294 166.53564774 -295.6628006 165.23267242 -295.66957092 163.89021301 C-295.69058223 159.56874821 -295.70097758 155.24728322 -295.7109375 150.92578125 C-295.71498758 149.43281346 -295.71910458 147.93984585 -295.72328758 146.44687843 C-295.74234088 139.42400475 -295.75656587 132.40114152 -295.76489955 125.37824696 C-295.77464201 117.30339031 -295.80088208 109.22880998 -295.84140044 101.15405053 C-295.87171671 94.89476167 -295.88638341 88.63555124 -295.88968056 82.37619048 C-295.89201545 78.64713472 -295.90076779 74.918374 -295.92614174 71.18939781 C-295.94969769 67.67049052 -295.95354759 64.15206668 -295.94338036 60.63310051 C-295.94266127 58.75258057 -295.96156212 56.87208366 -295.98144531 54.9916687 C-295.91103397 43.23757068 -293.29876127 31.74365135 -287.78515625 21.2890625 C-287.44339355 20.62777344 -287.10163086 19.96648437 -286.74951172 19.28515625 C-277.59479766 2.19525054 -261.64015764 -10.24704603 -243.17163086 -16.02001953 C-225.15745975 -20.83137543 -205.53654544 -17.84021088 -189.2578125 -9.1640625 C-182.26636327 -4.8887864 -175.96745305 0.46586604 -170.47265625 6.5390625 C-170.47265625 7.1990625 -170.47265625 7.8590625 -170.47265625 8.5390625 C-148.03265625 8.5390625 -125.59265625 8.5390625 -102.47265625 8.5390625 C-101.81265625 7.2190625 -101.15265625 5.8990625 -100.47265625 4.5390625 C-87.89511366 -9.65664347 -70.37317908 -17.13828608 -51.7109375 -18.34765625 C-32.58190102 -19.0168264 -14.49475836 -12.68563815 0 0 Z " fill="#295474" transform="translate(489.47265625,300.4609375)"/>
<path d="M0 0 C1.60020386 -0.00417557 3.20040475 -0.00965432 4.80060017 -0.01631981 C9.18708911 -0.03076391 13.57338999 -0.02653293 17.95988917 -0.019153 C22.69483497 -0.01442106 27.4297401 -0.02693143 32.16467285 -0.03717041 C41.43673325 -0.05436337 50.7087259 -0.05519736 59.98079811 -0.04995751 C67.51771441 -0.04591541 75.05461069 -0.04735984 82.59152603 -0.05270576 C83.66439504 -0.05345419 84.73726406 -0.05420261 85.84264425 -0.05497371 C88.02221067 -0.05650519 90.20177709 -0.05804354 92.3813435 -0.05958868 C112.81942148 -0.07331558 133.25746119 -0.06787474 153.6955383 -0.05640347 C172.38950664 -0.04647145 191.083376 -0.05941089 209.77732907 -0.08333766 C228.97655162 -0.10772581 248.17572806 -0.11733719 267.37496579 -0.11068493 C278.15216584 -0.10719201 288.92928978 -0.10942958 299.70647812 -0.12693596 C308.88111132 -0.14165438 318.0556148 -0.14229806 327.23024546 -0.12486505 C331.90998694 -0.11634965 336.58949665 -0.11421871 341.26922607 -0.1295166 C345.55639503 -0.14335757 349.84313351 -0.13860819 354.13027753 -0.11927737 C355.6779841 -0.11551523 357.2257251 -0.11844554 358.77340101 -0.12888902 C371.56245296 -0.20902483 380.65159169 1.7544446 390.10574341 10.74705505 C404.84825922 27.90013713 399.37527466 49.4686687 399.37527466 71.38768005 C253.51527466 71.38768005 107.65527466 71.38768005 -42.62472534 71.38768005 C-42.62472534 19.69810134 -42.62472534 19.69810134 -32.62472534 9.38768005 C-22.36996723 0.99742341 -12.79965149 -0.05427365 0 0 Z " fill="#E47D93" transform="translate(42.624725341796875,-0.3876800537109375)"/>
<path d="M0 0 C0.81649521 -0.0065712 1.63299042 -0.0131424 2.47422791 -0.01991272 C5.18447966 -0.03966973 7.89467584 -0.05131601 10.60498047 -0.0612793 C11.53092892 -0.06535482 12.45687737 -0.06943035 13.41088486 -0.07362938 C18.31542489 -0.0945042 23.21993685 -0.10879762 28.12451172 -0.11816406 C33.18183058 -0.12920823 38.23870699 -0.16358101 43.29586983 -0.20333576 C47.19077347 -0.22953654 51.08557248 -0.23785916 54.98055649 -0.24144554 C56.84400279 -0.24630558 58.7074446 -0.25790292 60.5708046 -0.27648354 C63.1868771 -0.30094015 65.80181594 -0.29989784 68.41796875 -0.29296875 C69.56233147 -0.31218384 69.56233147 -0.31218384 70.72981262 -0.33178711 C76.27411346 -0.27856151 80.42787303 1.17298941 85.09716797 4.17700195 C86.92944336 6.08374023 86.92944336 6.08374023 88.13232422 8.12231445 C88.60814941 8.90896484 89.08397461 9.69561523 89.57421875 10.50610352 C90.07679199 11.3875 90.57936523 12.26889648 91.09716797 13.17700195 C91.9844458 14.67312012 91.9844458 14.67312012 92.88964844 16.19946289 C94.80728168 19.46434117 96.67544079 22.75355954 98.53466797 26.05200195 C99.50823242 27.74196289 99.50823242 27.74196289 100.50146484 29.46606445 C101.10925781 30.5437207 101.71705078 31.62137695 102.34326172 32.73168945 C102.8968335 33.70605957 103.45040527 34.68042969 104.02075195 35.68432617 C105.09716797 38.17700195 105.09716797 38.17700195 104.09716797 41.17700195 C97.18394247 44.72928834 90.62856862 44.58548273 82.97998047 44.51757812 C81.68158737 44.5180162 80.38319427 44.51845428 79.04545593 44.51890564 C75.50665967 44.51976197 71.96817208 44.50219551 68.42944717 44.48118377 C64.72324462 44.46235611 61.01703402 44.46066175 57.31079102 44.45710754 C50.3021697 44.44780488 43.29368974 44.42321538 36.2851305 44.39305907 C28.30204552 44.35945948 20.31895358 44.34301512 12.33581543 44.32797277 C-4.07714964 44.29666408 -20.48997276 44.24393846 -36.90283203 44.17700195 C-34.47002519 37.97569049 -31.30123318 32.22872433 -28.15283203 26.36450195 C-27.54439453 25.21401367 -26.93595703 24.06352539 -26.30908203 22.87817383 C-14.06363665 0.04879115 -14.06363665 0.04879115 0 0 Z " fill="#D7DCE4" transform="translate(317.90283203125,423.822998046875)"/>
<path d="M0 0 C9.65422373 1.96357093 18.28813283 14.2051413 25.12109375 21.05078125 C26.40749272 22.33650559 27.69404001 23.62208153 28.98072815 24.90751648 C31.6608976 27.58621965 34.3392698 30.26670329 37.01635742 32.94848633 C40.45181158 36.38967187 43.89178269 39.82630173 47.33308315 43.2616396 C49.98307229 45.90802365 52.63068564 48.55677421 55.27757454 51.20625877 C56.54594548 52.47529734 57.81506119 53.74359198 59.08492851 55.01113319 C60.85128161 56.77495695 62.61441508 58.5419363 64.37670898 60.30981445 C64.90288818 60.83396942 65.42906738 61.35812439 65.97119141 61.89816284 C70.54538012 66.49934503 70.54538012 66.49934503 71 70.5 C70.37156146 77.03576085 65.25193011 81.47779428 60.7890625 85.90722656 C60.20968933 86.49010437 59.63031616 87.07298218 59.03338623 87.67352295 C57.13139814 89.58425972 55.22225231 91.48765081 53.3125 93.390625 C51.98229219 94.72218106 50.65238131 96.05403381 49.32275391 97.38616943 C46.54197601 100.16988898 43.7576302 102.9499762 40.97070312 105.72753906 C37.39949811 109.28732796 33.8373767 112.85605026 30.27786255 116.42752457 C27.53628305 119.17632957 24.7899598 121.92035517 22.04217529 124.66295624 C20.72659506 125.97720305 19.41249686 127.29293514 18.09991455 128.61017609 C16.26671821 130.44845132 14.42723321 132.28019388 12.5859375 134.11035156 C11.77536896 134.9269928 11.77536896 134.9269928 10.94842529 135.76013184 C7.35289785 139.31547135 4.76312247 141.44086474 -0.25 142.1875 C-3.3125 141.75 -3.3125 141.75 -6.1875 139.75 C-8.45510789 136.54867121 -8.82601148 134.6887547 -8.70640564 130.80578613 C-8.01595246 127.20232397 -5.64146548 125.03254051 -3.08007812 122.609375 C-2.5241246 122.05225327 -1.96817108 121.49513153 -1.39537048 120.92112732 C0.43684231 119.09446368 2.29568158 117.29773455 4.15625 115.5 C5.43594289 114.23523671 6.71387432 112.9686889 7.9901123 111.70043945 C11.34621151 108.37481645 14.725636 105.07392044 18.11053467 101.77764893 C21.56339837 98.40677158 24.99359311 95.01299772 28.42578125 91.62109375 C35.1577287 84.97482277 41.91454668 78.35446049 48.6875 71.75 C43.75452559 65.7446169 38.3358271 60.27978903 32.82388878 54.81122398 C31.16986395 53.17009278 29.51909769 51.52574376 27.86909485 49.88056946 C24.37388301 46.39670798 20.87472226 42.91682971 17.375 39.4375 C13.30013269 35.38624706 9.22690727 31.33337077 5.15784645 27.27628517 C3.53065556 25.65558008 1.90048694 24.03791097 0.27018738 22.42033386 C-0.7214703 21.43230659 -1.71298904 20.44413985 -2.7043457 19.45581055 C-3.57227249 18.59312057 -4.44019928 17.7304306 -5.33442688 16.84159851 C-7.89224011 14.1369875 -8.26289506 13.188177 -8.6875 9.4375 C-8.3125 5.75 -8.3125 5.75 -6.25 2.8125 C-3.3125 0.75 -3.3125 0.75 0 0 Z " fill="#B26C7A" transform="translate(282.3125,114.25)"/>
<path d="M0 0 C2.9375 1.4375 2.9375 1.4375 5 4 C5.89251626 7.83095067 6.1113061 9.32642912 5 13 C1.41630466 17.87535145 -2.89772074 21.94493481 -7.25 26.12890625 C-8.50749015 27.36959729 -9.76299813 28.61230026 -11.01660156 29.85691833 C-14.31138715 33.11744351 -17.63229616 36.3500325 -20.95947266 39.57745361 C-24.35383124 42.87952122 -27.72265621 46.20741719 -31.09375 49.53320312 C-37.70449176 56.04760404 -44.34313218 62.53276462 -51 69 C-49.4077313 72.89037638 -46.90223646 75.33267578 -43.93945312 78.27172852 C-43.42543442 78.78443298 -42.91141571 79.29713745 -42.38182068 79.82537842 C-40.68618507 81.51453701 -38.98368902 83.19660725 -37.28125 84.87890625 C-36.10011862 86.05376502 -34.91950239 87.22914189 -33.73937988 88.40501404 C-30.63396135 91.49713933 -27.52302443 94.58364741 -24.41046143 97.6685791 C-19.42726563 102.60863103 -14.45077983 107.55541966 -9.4775238 112.505476 C-7.73937931 114.23339826 -5.9978612 115.95786638 -4.25598145 117.68202209 C-3.19072132 118.74045407 -2.12557055 119.79899612 -1.06054688 120.85766602 C-0.1294812 121.78047867 0.80158447 122.70329132 1.76086426 123.65406799 C4.35867001 126.37577688 5.88201991 128.09548596 6.375 131.875 C5.91377729 135.71852258 4.66559892 137.25600111 2 140 C-1.01778937 141.50889469 -2.62322637 141.50026276 -6 141 C-13.96210895 135.47020281 -20.77434906 127.4641434 -27.65234375 120.65625 C-28.29468019 120.02048538 -28.93701664 119.38472076 -29.59881783 118.72969055 C-32.98800912 115.37287625 -36.37326484 112.01214092 -39.75610352 108.64892578 C-42.54820888 105.87471958 -45.34861029 103.10930775 -48.15649414 100.35107422 C-51.56362734 97.00408265 -54.95584776 93.64264442 -58.33789253 90.27030945 C-59.62418477 88.99256735 -60.9155992 87.71995982 -62.21223259 86.45271301 C-64.02166398 84.68215889 -65.81127855 82.893622 -67.59741211 81.09960938 C-68.13294205 80.58408005 -68.66847198 80.06855072 -69.2202301 79.53739929 C-72.79395602 75.89243275 -73.99927687 73.10876527 -74 68 C-73.04321289 66.05529785 -73.04321289 66.05529785 -71.41015625 64.43164062 C-70.7567627 63.75915283 -70.10336914 63.08666504 -69.43017578 62.39379883 C-68.22723877 61.20886841 -68.22723877 61.20886841 -67 60 C-66.02710708 58.99697547 -65.05708806 57.9911585 -64.08935547 56.9831543 C-56.55426234 49.15791806 -48.87535243 41.47066563 -41.22167969 33.76171875 C-38.39776919 30.91540535 -35.58397626 28.05961932 -32.77832031 25.1953125 C-29.37513388 21.72116703 -25.95517524 18.26440754 -22.52249146 14.81941223 C-21.22152713 13.50804627 -19.92658445 12.19067738 -18.63790894 10.86723328 C-16.83843332 9.02167842 -15.0182097 7.19931191 -13.19140625 5.38085938 C-12.40408615 4.55814545 -12.40408615 4.55814545 -11.6008606 3.71881104 C-7.79146029 -0.00699407 -5.24707601 -0.67827677 0 0 Z " fill="#B26C79" transform="translate(162,115)"/>
<path d="M0 0 C3.49791073 1.94328374 4.74368643 3.13989441 5.89233398 6.99438477 C6.48667366 12.31537362 4.03366723 16.77338054 1.91015625 21.52734375 C1.23961464 23.08327492 1.23961464 23.08327492 0.55552673 24.67063904 C-0.92657189 28.09992046 -2.43200926 31.51843137 -3.9375 34.9375 C-4.97759631 37.33276518 -6.01598141 39.72877409 -7.05273438 42.12548828 C-8.95487548 46.51991507 -10.86289672 50.91170172 -12.77819252 55.30041122 C-16.43166533 63.67302305 -20.039829 72.06444938 -23.62890625 80.46484375 C-24.03235417 81.40884065 -24.03235417 81.40884065 -24.44395256 82.37190819 C-25.51489459 84.87775883 -26.58568591 87.38367375 -27.65616131 89.88972378 C-31.27888768 98.37044243 -34.90908145 106.84788584 -38.5625 115.31542969 C-40.09289901 118.86680496 -41.59492091 122.42711711 -43.0625 126.00488281 C-43.3733252 126.74985016 -43.68415039 127.4948175 -44.00439453 128.26235962 C-44.80121764 130.17450605 -45.58488254 132.09212201 -46.3671875 134.01025391 C-48.17407356 137.31873577 -49.85501832 138.95613162 -53 141 C-56 141.5625 -56 141.5625 -59 141 C-61.98562538 138.74419416 -63.62623295 137.0315608 -64.90600586 133.49951172 C-65.050377 128.12440557 -62.85813403 123.98322568 -60.69140625 119.1328125 C-60.22209183 118.04953674 -59.7527774 116.96626099 -59.26924133 115.85015869 C-57.98248239 112.88692671 -56.68270432 109.92982845 -55.37728119 106.97478485 C-54.00931211 103.86910628 -52.6587374 100.75589149 -51.30712891 97.64306641 C-49.32781883 93.08798318 -47.34376887 88.53502411 -45.35383606 83.98457146 C-41.62185556 75.44826448 -37.93452155 66.89338694 -34.26953125 58.328125 C-33.99858957 57.69495739 -33.7276479 57.06178978 -33.44849586 56.40943527 C-32.1094978 53.27970573 -30.77121498 50.14967106 -29.43331909 47.01947021 C-27.90591423 43.44729969 -26.37642512 39.87603067 -24.84594727 36.30517578 C-24.1280175 34.62952042 -24.1280175 34.62952042 -23.39558411 32.92001343 C-22.47653503 30.77754079 -21.5558508 28.63576868 -20.63334656 26.49478149 C-18.76972852 22.16501916 -16.91843159 17.83530196 -15.16894531 13.45800781 C-14.90276398 12.80232819 -14.63658264 12.14664856 -14.36233521 11.47109985 C-13.70336214 9.83881488 -13.05996173 8.20026408 -12.41845703 6.56103516 C-9.53391555 1.35297317 -5.92985722 -0.98830954 0 0 Z " fill="#B26C7A" transform="translate(250,115)"/>
<path d="M0 0 C2.75329021 1.79562405 4.52627461 3.05254922 6 6 C6.08372659 7.52148326 6.10730027 9.04655778 6.09765625 10.5703125 C6.09443359 11.46621094 6.09121094 12.36210937 6.08789062 13.28515625 C6.07532227 14.69087891 6.07532227 14.69087891 6.0625 16.125 C6.05798828 17.06988281 6.05347656 18.01476562 6.04882812 18.98828125 C6.03702357 21.32558387 6.02055759 23.66276061 6 26 C6.57967529 25.97905273 7.15935059 25.95810547 7.7565918 25.93652344 C10.40004924 25.85303193 13.0432288 25.80123847 15.6875 25.75 C17.05551758 25.69972656 17.05551758 25.69972656 18.45117188 25.6484375 C22.81769795 25.58492439 25.28725121 25.56277514 29.08203125 27.890625 C31.37066167 30.40765234 31.93620568 31.42585111 32.3125 34.8125 C31.92653707 38.74932188 30.76603321 40.23396679 28 43 C25.17588235 43.94137255 23.47081968 44.11725382 20.55078125 44.09765625 C19.70322266 44.09443359 18.85566406 44.09121094 17.98242188 44.08789062 C17.10134766 44.07951172 16.22027344 44.07113281 15.3125 44.0625 C14.41982422 44.05798828 13.52714844 44.05347656 12.60742188 44.04882812 C10.40488013 44.03704983 8.20247401 44.02060164 6 44 C6.02618408 44.57443848 6.05236816 45.14887695 6.0793457 45.74072266 C6.183918 48.36853171 6.24850944 50.99590231 6.3125 53.625 C6.35439453 54.52863281 6.39628906 55.43226563 6.43945312 56.36328125 C6.52011073 60.78331813 6.51167149 64.02312101 3.734375 67.609375 C0.09825909 70.7883792 0.09825909 70.7883792 -3.0625 70.625 C-7.29509682 69.95315923 -8.51129559 69.38463799 -11 66 C-12.20029908 63.59940183 -12.11459743 62.10639351 -12.09765625 59.4296875 C-12.09443359 58.53378906 -12.09121094 57.63789063 -12.08789062 56.71484375 C-12.07951172 55.77769531 -12.07113281 54.84054687 -12.0625 53.875 C-12.05798828 52.93011719 -12.05347656 51.98523438 -12.04882812 51.01171875 C-12.03702357 48.67441613 -12.02055759 46.33723939 -12 44 C-12.60996826 44.02618408 -13.21993652 44.05236816 -13.84838867 44.0793457 C-16.62782758 44.18365719 -19.40685439 44.24842982 -22.1875 44.3125 C-23.14720703 44.35439453 -24.10691406 44.39628906 -25.09570312 44.43945312 C-32.22317023 44.5627657 -32.22317023 44.5627657 -36.1328125 41.73046875 C-38.70545394 37.96838431 -38.70545394 37.96838431 -38.6875 35 C-38.71199219 34.360625 -38.73648438 33.72125 -38.76171875 33.0625 C-37.48191243 29.59717828 -35.20797742 27.62533267 -32 26 C-28.51356181 25.41539151 -25.14730175 25.52419785 -21.625 25.6875 C-20.23474609 25.72133789 -20.23474609 25.72133789 -18.81640625 25.75585938 C-16.54257665 25.81446323 -14.27215114 25.8964307 -12 26 C-12.02618408 25.39003174 -12.05236816 24.78006348 -12.0793457 24.15161133 C-12.18365719 21.37217242 -12.24842982 18.59314561 -12.3125 15.8125 C-12.35439453 14.85279297 -12.39628906 13.89308594 -12.43945312 12.90429688 C-12.56291174 5.76838886 -12.56291174 5.76838886 -9.69921875 1.859375 C-6.14936409 -0.58596627 -4.23070805 -0.67993522 0 0 Z " fill="#4C88A9" transform="translate(268,318)"/>
<path d="M0 0 C0.94470657 -0.00960754 1.88941315 -0.01921509 2.86274719 -0.02911377 C4.39864754 -0.03548859 4.39864754 -0.03548859 5.96557617 -0.04199219 C7.54165901 -0.0505423 7.54165901 -0.0505423 9.14958191 -0.05926514 C11.37640371 -0.06872371 13.60323956 -0.07525251 15.83007812 -0.07910156 C19.23421744 -0.08879789 22.63775077 -0.11980989 26.04174805 -0.15136719 C28.20385383 -0.15789805 30.36596394 -0.16314819 32.52807617 -0.16699219 C34.05486748 -0.18551239 34.05486748 -0.18551239 35.61250305 -0.20440674 C44.55680208 -0.17627452 44.55680208 -0.17627452 48.44604492 3.16113281 C50.78773256 6.67366427 50.9422817 8.02582637 50.44604492 12.16113281 C48.64610718 14.86103943 47.36227192 16.70301931 44.44604492 18.16113281 C42.83926725 18.2815682 41.22772581 18.34102023 39.61669922 18.36987305 C38.61193039 18.38916367 37.60716156 18.40845428 36.57194519 18.42832947 C31.97475683 18.48596987 27.37772648 18.53534015 22.78027344 18.56616211 C20.35434757 18.58776271 17.92850005 18.62188934 15.50292969 18.66870117 C12.00835302 18.73555229 8.51538876 18.76313748 5.02026367 18.78222656 C3.93678146 18.81005722 2.85329926 18.83788788 1.73698425 18.86656189 C-5.58010382 18.84654533 -5.58010382 18.84654533 -8.35873413 16.89089966 C-10.52667833 14.41237905 -11.52227647 12.31635798 -12.17895508 9.09863281 C-11.34584223 5.18300244 -9.58488662 3.6869091 -6.55395508 1.16113281 C-4.16618871 -0.03275037 -2.66553225 0.021844 0 0 Z " fill="#0F70DB" transform="translate(364.553955078125,25.8388671875)"/>
<path d="M0 0 C0.33 0 0.66 0 1 0 C1.27408962 5.77964926 1.47248476 11.5554402 1.60424805 17.34008789 C1.65921654 19.30267282 1.73402639 21.26481452 1.82983398 23.22583008 C2.68868805 41.27095097 2.68868805 41.27095097 -2.66807556 47.17843628 C-4.97412068 49.32879793 -7.42468788 51.18561105 -10 53 C-10.63268799 53.51908936 -11.26537598 54.03817871 -11.91723633 54.57299805 C-13.453125 55.82421875 -13.453125 55.82421875 -16.25 57.6875 C-17.18328125 58.33074219 -18.1165625 58.97398437 -19.078125 59.63671875 C-22.63454708 61.29606542 -25.11609004 61.35640586 -29 61 C-32.74879143 58.96261335 -33.77169934 57.68490199 -35.125 53.625 C-34.99401247 49.82636174 -34.3924769 48.26539357 -31.78515625 45.52734375 C-28.86054787 43.02510769 -25.66794793 40.93170459 -22.48828125 38.76953125 C-9.78150221 29.7331562 -2.66347653 15.13081349 0 0 Z " fill="#21475E" transform="translate(511,362)"/>
<path d="M0 0 C1.59462064 3.1313535 2.90994342 6.28794373 4.1875 9.5625 C9.86448432 23.21389924 17.69183648 31.9091652 29.64453125 40.30078125 C32 42 32 42 34 44 C34.56429954 48.91746739 34.76634041 50.91810765 31.875 55 C29 57 29 57 26.3125 57.6875 C15.67037882 55.47875787 7.43534947 46.43534947 0 39 C-0.08865208 36.1156618 -0.11521296 33.25537842 -0.09765625 30.37109375 C-0.0962413 29.50686295 -0.09482635 28.64263214 -0.09336853 27.75221252 C-0.08775239 24.98060708 -0.07519719 22.2090812 -0.0625 19.4375 C-0.05748708 17.5631522 -0.05292381 15.68880315 -0.04882812 13.81445312 C-0.03777772 9.20960456 -0.0205023 4.60481579 0 0 Z " fill="#21475E" transform="translate(195,366)"/>
<path d="M0 0 C7.26 0 14.52 0 22 0 C32.00189322 19.55925786 32.00189322 19.55925786 31 26 C29.45419025 28.89839328 28.27883538 30.54079398 25.12890625 31.671875 C21.34992422 32.38623833 19.77839026 32.48620172 16.3984375 30.375 C13.64314695 27.64663411 12.77686805 25.59839709 11.5625 21.9375 C8.7048243 13.93240213 5.10367633 6.80490178 0 0 Z " fill="#21475E" transform="translate(320,309)"/>
<path d="M0 0 C7.26 0 14.52 0 22 0 C20.948125 1.588125 19.89625 3.17625 18.8125 4.8125 C14.88791677 10.9729064 11.81213547 17.3377923 9.16796875 24.140625 C7.72326072 27.81806362 6.6356525 30.23411164 3 32 C-0.99022009 32.6791864 -2.49714787 32.33887861 -5.875 30.0625 C-8.31524911 26.5456704 -8.72699691 24.78580767 -8.49609375 20.6015625 C-7.10090139 13.28504194 -3.29902221 6.59804442 0 0 Z " fill="#21475E" transform="translate(364,309)"/>
<path d="M0 0 C1.23234375 -0.02578125 2.4646875 -0.0515625 3.734375 -0.078125 C7.46525704 0.27009066 9.28163651 1.02644566 12.25 3.25 C14.19333515 5.81166906 14.26497085 7.01046646 14.0625 10.25 C13.23185954 13.31698015 12.44039035 14.97536387 10.25 17.25 C6.81367253 18.39544249 3.99568045 18.4897802 0.375 18.5625 C-0.83929688 18.59988281 -2.05359375 18.63726562 -3.3046875 18.67578125 C-7.33484619 18.17772309 -8.90396989 17.08027718 -11.75 14.25 C-13.19430855 11.36138291 -13.12688506 9.45352299 -12.75 6.25 C-10.3125 3.4375 -10.3125 3.4375 -7.75 1.25 C-5.83392105 -0.66607895 -2.54780909 0.03171547 0 0 Z " fill="#E63A49" transform="translate(462.75,343.75)"/>
<path d="M0 0 C1.83498047 -0.03867187 1.83498047 -0.03867187 3.70703125 -0.078125 C7.41305603 0.27126454 9.25179871 1.01430881 12.1875 3.25 C13.78366743 6.44233485 13.70216114 9.78461497 13.1875 13.25 C11.31734906 15.68119623 9.90611655 16.89069173 7.1875 18.25 C4.92104234 18.42522676 2.64777146 18.51728256 0.375 18.5625 C-1.45998047 18.61857422 -1.45998047 18.61857422 -3.33203125 18.67578125 C-7.3862799 18.17980695 -8.95293139 17.09899719 -11.8125 14.25 C-13.23912219 11.39675563 -13.12283868 9.41545451 -12.8125 6.25 C-9.01201189 0.54926783 -6.67736111 0.08390401 0 0 Z " fill="#EB87C7" transform="translate(418.8125,343.75)"/>
<path d="M0 0 C2.23265883 1.43605483 3.66801792 2.7774421 4.859375 5.16015625 C5.28961298 9.03229807 5.17606586 10.68511996 2.984375 13.97265625 C-0.5419106 17.60265613 -3.62619171 17.43392409 -8.453125 17.53515625 C-10.42732422 17.60863281 -10.42732422 17.60863281 -12.44140625 17.68359375 C-17.00455587 17.03791049 -18.39347967 15.79179913 -21.140625 12.16015625 C-22.09718234 9.33857929 -21.91450987 7.02468532 -21.140625 4.16015625 C-16.33268728 -2.43358691 -7.38711024 -2.89822756 0 0 Z " fill="#F188C8" transform="translate(48.140625,26.83984375)"/>
<path d="M0 0 C0.69867188 -0.01933594 1.39734375 -0.03867187 2.1171875 -0.05859375 C6.03765205 -0.02160824 7.85347121 0.51017401 10.9609375 2.9453125 C13 5.625 13 5.625 13.625 9.125 C12.82493987 13.6053367 11.55860458 14.83633097 8 17.625 C5.08581227 18.13259417 2.8894271 18.32996569 0 18.25 C-1.04800781 18.27900391 -1.04800781 18.27900391 -2.1171875 18.30859375 C-6.03765205 18.27160824 -7.85347121 17.73982599 -10.9609375 15.3046875 C-13 12.625 -13 12.625 -13.625 9.125 C-12.2545544 1.45050467 -7.10420776 -0.19661092 0 0 Z " fill="#4C89AA" transform="translate(331,379.375)"/>
<path d="M0 0 C4.4803367 0.80006013 5.71133097 2.06639542 8.5 5.625 C9.00759417 8.53918773 9.20496569 10.7355729 9.125 13.625 C9.15400391 14.67300781 9.15400391 14.67300781 9.18359375 15.7421875 C9.14660824 19.66265205 8.61482599 21.47847121 6.1796875 24.5859375 C3.5 26.625 3.5 26.625 0 27.25 C-4.4803367 26.44993987 -5.71133097 25.18360458 -8.5 21.625 C-9.00759417 18.71081227 -9.20496569 16.5144271 -9.125 13.625 C-9.14433594 12.92632812 -9.16367187 12.22765625 -9.18359375 11.5078125 C-9.14660824 7.58734795 -8.61482599 5.77152879 -6.1796875 2.6640625 C-3.5 0.625 -3.5 0.625 0 0 Z " fill="#A8DB62" transform="translate(441.5,317.375)"/>
<path d="M0 0 C0.69867188 -0.01095703 1.39734375 -0.02191406 2.1171875 -0.03320312 C5.69783744 0.01746645 7.88336651 0.49202752 10.9609375 2.3515625 C13.39692425 4.99288147 13.59347868 6.9144778 13.6640625 10.46484375 C12.57890254 13.89267256 10.82458218 15.38917195 8 17.5625 C5.0702022 18.04138066 2.83895587 18.22339951 -0.0625 18.125 C-0.76955078 18.13595703 -1.47660156 18.14691406 -2.20507812 18.15820312 C-5.70833788 18.10886144 -7.64841167 17.8384658 -10.43359375 15.65234375 C-13.05768664 12.15137194 -13.51631515 9.95117882 -13 5.5625 C-9.22685912 0.59477397 -5.98360147 -0.20423732 0 0 Z " fill="#4C89AA" transform="translate(375,379.4375)"/>
<path d="M0 0 C2.82908449 0.42135301 4.5846874 0.8409486 6.9375 2.4375 C9.39552095 6.12453143 9.34035195 9.03924091 9.375 13.3125 C9.42430664 14.37404297 9.42430664 14.37404297 9.47460938 15.45703125 C9.51510799 19.41116895 9.08929363 21.23928152 6.6640625 24.40625 C3.01476968 27.12492087 3.01476968 27.12492087 -0.125 27.0625 C-4.0625 26.4375 -4.0625 26.4375 -6.2734375 24.3984375 C-8.50600607 20.70348778 -8.69078528 17.63227901 -8.625 13.4375 C-8.64884766 12.73882812 -8.67269531 12.04015625 -8.69726562 11.3203125 C-8.68608218 7.36882998 -8.18547922 5.59347864 -5.71875 2.46484375 C-3.0625 0.4375 -3.0625 0.4375 0 0 Z " fill="#E27C92" transform="translate(441.0625,361.5625)"/>
<path d="M0 0 C0.75087891 -0.01933594 1.50175781 -0.03867187 2.27539062 -0.05859375 C6.46365868 -0.02175762 8.14286617 0.30098586 11.5625 2.94140625 C13.5625 5.625 13.5625 5.625 14.125 9.1875 C13.48378811 13.10601711 12.66750781 14.25058226 9.5625 16.625 C6.5754054 18.1185473 3.5251552 17.93131228 0.25 18 C-1.72419922 18.07347656 -1.72419922 18.07347656 -3.73828125 18.1484375 C-8.29087714 17.50424758 -9.68511088 16.23554846 -12.4375 12.625 C-13.0851529 8.59515971 -12.93483212 6.50885967 -10.9296875 2.9453125 C-7.49685675 -0.2507713 -4.456145 -0.11416255 0 0 Z " fill="#93CF4A" transform="translate(127.4375,26.375)"/>
<path d="M0 0 C0.75087891 -0.02384766 1.50175781 -0.04769531 2.27539062 -0.07226562 C6.49464733 -0.06113302 8.13053381 0.22590297 11.5703125 2.90625 C13.5625 5.5625 13.5625 5.5625 14 8.625 C13.57507513 11.47806699 13.23162169 13.22572963 11.5625 15.5625 C7.93201547 17.99747388 4.40962685 17.92781104 0.125 18 C-1.17308594 18.03996094 -2.47117187 18.07992187 -3.80859375 18.12109375 C-8.30433819 17.4290685 -9.72396507 16.14971095 -12.4375 12.5625 C-13.34488141 9.53601665 -12.90183133 7.8128193 -12.4375 4.5625 C-9.20847298 -0.17229091 -5.31125879 -0.07710623 0 0 Z " fill="#FECB54" transform="translate(83.4375,26.4375)"/>
</svg>
