<?xml version="1.0" encoding="UTF-8"?>
<svg version="1.1" xmlns="http://www.w3.org/2000/svg" width="512" height="512">
<path d="M0 0 C1.89508602 -0.00542829 3.79016781 -0.01255489 5.6852417 -0.02124023 C10.80510666 -0.03939244 15.92464727 -0.03243963 21.04451752 -0.01972389 C26.41787043 -0.0095541 31.7911967 -0.01900058 37.16455078 -0.02526855 C46.1859228 -0.0325334 55.20716356 -0.0229878 64.22851562 -0.00390625 C74.63905163 0.01786019 85.04927421 0.010808 95.45980263 -0.01121187 C104.4189604 -0.02939903 113.37802416 -0.03190799 122.33719444 -0.0214572 C127.67897042 -0.01524049 133.02059936 -0.01433631 138.36236572 -0.02760315 C143.38584215 -0.03920935 148.40891685 -0.03104909 153.43235016 -0.00802612 C155.26927272 -0.00276444 157.10622943 -0.00420895 158.94313812 -0.01307678 C173.12103165 -0.07517983 184.39123202 1.27824445 195.1171875 11.51757812 C205.23825432 22.11964614 206.71336515 33.417206 206.57128906 47.5456543 C206.57015857 49.13346325 206.57079838 50.72127429 206.57305908 52.30908203 C206.5741993 56.58740661 206.55080326 60.86527587 206.52276325 65.14349532 C206.49763318 69.62642675 206.4953985 74.10937045 206.49066162 78.59236145 C206.47826577 87.06713596 206.44549041 95.54170225 206.40526366 104.01638538 C206.36043998 113.67059901 206.33853235 123.32482298 206.31848192 132.97911489 C206.2767545 152.82538518 206.20646888 172.6714685 206.1171875 192.51757812 C207.37015625 192.45957031 208.623125 192.4015625 209.9140625 192.34179688 C211.5650669 192.29489334 213.21611161 192.24939381 214.8671875 192.20507812 C216.1046875 192.14223633 216.1046875 192.14223633 217.3671875 192.078125 C223.51987583 191.95407886 223.51987583 191.95407886 226.64398193 194.90133667 C227.99225572 197.29571384 228.82968488 199.16403526 229.3828125 201.83789062 C229.55039062 202.62035156 229.71796875 203.4028125 229.890625 204.20898438 C230.04789062 205.01207031 230.20515625 205.81515625 230.3671875 206.64257812 C230.53992188 207.45339844 230.71265625 208.26421875 230.890625 209.09960938 C231.56201341 212.32333942 232.1171875 215.21340091 232.1171875 218.51757812 C232.9215625 218.60007813 233.7259375 218.68257812 234.5546875 218.76757812 C238.39932888 219.57697631 241.40100688 220.98158458 244.87109375 222.77539062 C247.82478173 223.75139187 249.16552889 223.52323172 252.1171875 222.51757812 C255.05679329 220.65969107 257.88103678 218.72549153 260.68164062 216.66796875 C265.35226938 213.45271823 268.44943555 212.85526585 274.1171875 213.51757812 C276.15625 214.55664063 276.15625 214.55664063 277.7421875 216.14257812 C278.38671875 216.77421875 279.03125 217.40585938 279.6953125 218.05664062 C280.49453125 218.86875 281.29375 219.68085938 282.1171875 220.51757812 C283.29686735 221.63232774 284.47940133 222.74406118 285.6640625 223.85351562 C286.94150092 225.07340883 288.21753198 226.29477739 289.4921875 227.51757812 C290.11174316 228.09846191 290.73129883 228.6793457 291.36962891 229.27783203 C295.21643399 233.05675855 297.28691267 235.99984621 298.1171875 241.51757812 C297.68359375 243.56445312 297.68359375 243.56445312 296.6796875 245.26757812 C296.30585938 245.92886719 295.93203125 246.59015625 295.546875 247.27148438 C294.47137943 248.96112906 293.367472 250.63274071 292.25 252.29492188 C291.60804688 253.25527344 290.96609375 254.215625 290.3046875 255.20507812 C289.36689453 256.54119141 289.36689453 256.54119141 288.41015625 257.90429688 C286.83846822 261.08091106 287.01402438 262.20288516 288.1171875 265.51757812 C289.10073373 268.11666816 290.1860505 270.65747797 291.27734375 273.21289062 C292.1171875 275.51757812 292.1171875 275.51757812 292.1171875 278.51757812 C292.69686279 278.62303955 293.27653809 278.72850098 293.8737793 278.8371582 C296.51943021 279.32450799 299.1619582 279.82713656 301.8046875 280.33007812 C302.71669922 280.49572266 303.62871094 280.66136719 304.56835938 280.83203125 C314.30891047 282.7093011 314.30891047 282.7093011 318.1171875 286.51757812 C318.24297103 289.14874082 318.30583694 291.75223733 318.3203125 294.38476562 C318.32601257 295.17529327 318.33171265 295.96582092 318.33758545 296.78030396 C318.34704958 298.45654964 318.35357502 300.13281405 318.35742188 301.80908203 C318.36712107 304.37500495 318.39812744 306.94012489 318.4296875 309.50585938 C318.43621793 311.13215669 318.44146824 312.75845975 318.4453125 314.38476562 C318.4576593 315.15360077 318.4700061 315.92243591 318.48272705 316.71456909 C318.46071254 321.97625969 318.46071254 321.97625969 316.89770508 324.43920898 C314.7173669 325.75972917 312.78849544 326.33810471 310.30078125 326.90429688 C309.37201172 327.12021484 308.44324219 327.33613281 307.48632812 327.55859375 C306.51888672 327.77193359 305.55144531 327.98527344 304.5546875 328.20507812 C303.58337891 328.43001953 302.61207031 328.65496094 301.61132812 328.88671875 C294.47817724 330.51757812 294.47817724 330.51757812 292.1171875 330.51757812 C292.0346875 331.32195312 291.9521875 332.12632812 291.8671875 332.95507812 C291.05778932 336.7997195 289.65318104 339.80139751 287.859375 343.27148438 C286.88316335 346.2258091 287.11901608 347.56212276 288.1171875 350.51757812 C289.56320286 352.92018826 291.02823621 355.21532053 292.6171875 357.51757812 C298.06453038 365.4103226 298.06453038 365.4103226 298.1171875 369.51757812 C296.25391667 373.86719161 294.09258474 376.91114762 290.73828125 380.22460938 C289.89974609 381.05798828 289.06121094 381.89136719 288.19726562 382.75 C287.32521484 383.60142578 286.45316406 384.45285156 285.5546875 385.33007812 C284.67876953 386.20083984 283.80285156 387.07160156 282.90039062 387.96875 C275.39286478 395.3838044 275.39286478 395.3838044 270.50390625 395.89648438 C265.30766706 395.83195668 262.04403315 393.39614626 257.9296875 390.45507812 C253.13103563 386.75557315 253.13103563 386.75557315 247.44921875 385.58007812 C246.29486328 386.04414062 246.29486328 386.04414062 245.1171875 386.51757812 C243.84488281 386.99904297 243.84488281 386.99904297 242.546875 387.49023438 C240.83840367 388.21907765 239.13007114 388.94824636 237.421875 389.67773438 C235.1171875 390.51757812 235.1171875 390.51757812 232.1171875 390.51757812 C231.95283203 391.62552734 231.95283203 391.62552734 231.78515625 392.75585938 C228.91950229 411.09138514 228.91950229 411.09138514 225.796875 415.29492188 C223.05193287 417.2929844 220.57627105 417.04532257 217.28125 416.94335938 C215.1171875 416.51757812 215.1171875 416.51757812 212.5546875 414.20507812 C211.1171875 411.51757812 211.1171875 411.51757812 211.1171875 408.51757812 C209.4671875 408.51757812 207.8171875 408.51757812 206.1171875 408.51757812 C206.1486084 410.29418823 206.1486084 410.29418823 206.18066406 412.10668945 C206.2536742 416.54780744 206.29920673 420.98887361 206.33691406 425.43041992 C206.35689169 427.34392247 206.38408349 429.25736505 206.41894531 431.1706543 C206.68581835 446.2058104 206.01868509 458.09798956 195.1171875 469.51757812 C183.57808438 480.53316806 171.3381823 481.10807115 156.234375 481.03515625 C154.33928898 481.04058454 152.44420719 481.04771114 150.5491333 481.05639648 C145.42926834 481.07454869 140.30972773 481.06759588 135.18985748 481.05488014 C129.81650457 481.04471035 124.4431783 481.05415683 119.06982422 481.0604248 C110.0484522 481.06768965 101.02721144 481.05814405 92.00585938 481.0390625 C81.59532337 481.01729606 71.18510079 481.02434825 60.77457237 481.04636812 C51.8154146 481.06455528 42.85635084 481.06706424 33.89718056 481.05661345 C28.55540458 481.05039674 23.21377564 481.04949256 17.87200928 481.0627594 C12.84853285 481.0743656 7.82545815 481.06620534 2.80202484 481.04318237 C0.96510228 481.03792069 -0.87185443 481.0393652 -2.70876312 481.04823303 C-16.88665665 481.11033608 -28.15685702 479.7569118 -38.8828125 469.51757812 C-49.00387932 458.91551011 -50.47899015 447.61795025 -50.33691406 433.48950195 C-50.33578357 431.901693 -50.33642338 430.31388196 -50.33868408 428.72607422 C-50.3398243 424.44774964 -50.31642826 420.16988038 -50.28838825 415.89166093 C-50.26325818 411.4087295 -50.2610235 406.9257858 -50.25628662 402.4427948 C-50.24389077 393.96802029 -50.21111541 385.493454 -50.17088866 377.01877087 C-50.12606498 367.36455724 -50.10415735 357.71033327 -50.08410692 348.05604136 C-50.0423795 328.20977107 -49.97209388 308.36368775 -49.8828125 288.51757812 C-51.13578125 288.57558594 -52.38875 288.63359375 -53.6796875 288.69335938 C-55.3306919 288.74026291 -56.98173661 288.78576244 -58.6328125 288.83007812 C-59.4578125 288.87197266 -60.2828125 288.91386719 -61.1328125 288.95703125 C-67.28550083 289.08107739 -67.28550083 289.08107739 -70.40960693 286.13381958 C-71.75788072 283.73944241 -72.59530988 281.87112099 -73.1484375 279.19726562 C-73.31601563 278.41480469 -73.48359375 277.63234375 -73.65625 276.82617188 C-73.81351562 276.02308594 -73.97078125 275.22 -74.1328125 274.39257812 C-74.39191406 273.17634766 -74.39191406 273.17634766 -74.65625 271.93554688 C-75.32763841 268.71181683 -75.8828125 265.82175534 -75.8828125 262.51757812 C-76.6871875 262.43507813 -77.4915625 262.35257812 -78.3203125 262.26757812 C-82.16495388 261.45817994 -85.16663188 260.05357167 -88.63671875 258.25976562 C-91.59040673 257.28376438 -92.93115389 257.51192453 -95.8828125 258.51757812 C-98.82241829 260.37546518 -101.64666178 262.30966472 -104.44726562 264.3671875 C-109.11789438 267.58243802 -112.21506055 268.1798904 -117.8828125 267.51757812 C-119.921875 266.47851562 -119.921875 266.47851562 -121.5078125 264.89257812 C-122.15234375 264.2609375 -122.796875 263.62929688 -123.4609375 262.97851562 C-124.26015625 262.16640625 -125.059375 261.35429687 -125.8828125 260.51757812 C-127.06249235 259.40282851 -128.24502633 258.29109507 -129.4296875 257.18164062 C-130.70712592 255.96174742 -131.98315698 254.74037886 -133.2578125 253.51757812 C-133.87736816 252.93669434 -134.49692383 252.35581055 -135.13525391 251.75732422 C-138.98205899 247.9783977 -141.05253767 245.03531004 -141.8828125 239.51757812 C-141.44921875 237.47070312 -141.44921875 237.47070312 -140.4453125 235.76757812 C-140.07148438 235.10628906 -139.69765625 234.445 -139.3125 233.76367188 C-138.23700443 232.07402719 -137.133097 230.40241554 -136.015625 228.74023438 C-135.05269531 227.29970703 -135.05269531 227.29970703 -134.0703125 225.83007812 C-133.13251953 224.49396484 -133.13251953 224.49396484 -132.17578125 223.13085938 C-130.60409322 219.95424519 -130.77964938 218.83227109 -131.8828125 215.51757812 C-132.86635873 212.91848809 -133.9516755 210.37767828 -135.04296875 207.82226562 C-135.8828125 205.51757812 -135.8828125 205.51757812 -135.8828125 202.51757812 C-136.46248779 202.4121167 -137.04216309 202.30665527 -137.6394043 202.19799805 C-140.28505521 201.71064826 -142.9275832 201.20801969 -145.5703125 200.70507812 C-146.48232422 200.53943359 -147.39433594 200.37378906 -148.33398438 200.203125 C-158.07453547 198.32585515 -158.07453547 198.32585515 -161.8828125 194.51757812 C-162.00859603 191.88641543 -162.07146194 189.28291892 -162.0859375 186.65039062 C-162.09163757 185.85986298 -162.09733765 185.06933533 -162.10321045 184.25485229 C-162.11267458 182.57860661 -162.11920002 180.9023422 -162.12304688 179.22607422 C-162.13274607 176.6601513 -162.16375244 174.09503136 -162.1953125 171.52929688 C-162.20184293 169.90299956 -162.20709324 168.2766965 -162.2109375 166.65039062 C-162.2232843 165.88155548 -162.2356311 165.11272034 -162.24835205 164.32058716 C-162.22633754 159.05889656 -162.22633754 159.05889656 -160.66333008 156.59594727 C-158.4829919 155.27542708 -156.55412044 154.69705154 -154.06640625 154.13085938 C-153.13763672 153.91494141 -152.20886719 153.69902344 -151.25195312 153.4765625 C-150.28451172 153.26322266 -149.31707031 153.04988281 -148.3203125 152.83007812 C-147.34900391 152.60513672 -146.37769531 152.38019531 -145.37695312 152.1484375 C-138.24380224 150.51757812 -138.24380224 150.51757812 -135.8828125 150.51757812 C-135.7590625 149.31101563 -135.7590625 149.31101563 -135.6328125 148.08007812 C-134.82341432 144.23543675 -133.41880604 141.23375874 -131.625 137.76367188 C-130.64878835 134.80934715 -130.88464108 133.47303349 -131.8828125 130.51757812 C-133.32882786 128.11496799 -134.79386121 125.81983572 -136.3828125 123.51757812 C-141.83015538 115.62483365 -141.83015538 115.62483365 -141.8828125 111.51757812 C-139.05789282 104.97671666 -134.61096333 100.73062076 -129.6328125 95.76757812 C-128.79878906 94.90519531 -127.96476562 94.0428125 -127.10546875 93.15429688 C-119.06871221 85.09230719 -119.06871221 85.09230719 -112.8828125 84.51757812 C-110.328125 85.20507812 -110.328125 85.20507812 -108.0078125 86.51757812 C-106.73744141 87.21753906 -106.73744141 87.21753906 -105.44140625 87.93164062 C-102.17252358 89.95784882 -99.04745761 92.14826121 -95.98828125 94.47851562 C-93.16504875 95.8717992 -91.85554577 95.43889851 -88.8828125 94.51757812 C-86.28372247 93.5340319 -83.74291265 92.44871512 -81.1875 91.35742188 C-78.8828125 90.51757812 -78.8828125 90.51757812 -75.8828125 90.51757812 C-75.77324219 89.77894531 -75.66367188 89.0403125 -75.55078125 88.27929688 C-72.6419748 69.66766539 -72.6419748 69.66766539 -68.6328125 64.76757812 C-64.88751581 63.06517054 -62.80383114 63.37691816 -58.8828125 64.51757812 C-56.4453125 66.33007812 -56.4453125 66.33007812 -54.8828125 68.51757812 C-54.8828125 69.83757812 -54.8828125 71.15757813 -54.8828125 72.51757812 C-53.2328125 72.51757812 -51.5828125 72.51757812 -49.8828125 72.51757812 C-49.9142334 70.74096802 -49.9142334 70.74096802 -49.94628906 68.9284668 C-50.0192992 64.48734881 -50.06483173 60.04628264 -50.10253906 55.60473633 C-50.12251669 53.69123378 -50.14970849 51.7777912 -50.18457031 49.86450195 C-50.45144335 34.82934585 -49.78431009 22.93716669 -38.8828125 11.51757812 C-27.34370938 0.50198819 -15.1038073 -0.0729149 0 0 Z M-63.8828125 139.51757812 C-64.47032712 141.45714465 -64.47032712 141.45714465 -64.7578125 143.70507812 C-65.56188103 148.89422142 -67.83577355 150.62214559 -71.84765625 153.76757812 C-77.43376026 158.57098426 -80.48052453 165.56954266 -81.21875 172.81445312 C-81.33530539 183.11794971 -79.77593104 191.28795121 -72.5859375 198.98632812 C-65.68925952 205.18701108 -59.17249757 207.51757812 -49.8828125 207.51757812 C-49.8828125 184.41757813 -49.8828125 161.31757813 -49.8828125 137.51757812 C-57.37588191 137.12844272 -57.37588191 137.12844272 -63.8828125 139.51757812 Z M206.1171875 273.51757812 C206.1171875 296.61757813 206.1171875 319.71757812 206.1171875 343.51757812 C213.61025691 343.90671353 213.61025691 343.90671353 220.1171875 341.51757812 C220.70470212 339.5780116 220.70470212 339.5780116 220.9921875 337.33007812 C221.79890261 332.16051597 224.00947019 330.52835319 228.01171875 327.40820312 C233.52309917 322.45920846 236.7937149 315.72802475 237.35546875 308.41601562 C237.57190888 298.14080541 236.12909852 289.8358854 228.9609375 282.11914062 C221.67482594 275.79010304 215.65936545 273.51757812 206.1171875 273.51757812 Z " fill="#E47C92" transform="translate(177.8828125,15.482421875)"/>
<path d="M0 0 C1.89508602 -0.00542829 3.79016781 -0.01255489 5.6852417 -0.02124023 C10.80510666 -0.03939244 15.92464727 -0.03243963 21.04451752 -0.01972389 C26.41787043 -0.0095541 31.7911967 -0.01900058 37.16455078 -0.02526855 C46.1859228 -0.0325334 55.20716356 -0.0229878 64.22851562 -0.00390625 C74.63905163 0.01786019 85.04927421 0.010808 95.45980263 -0.01121187 C104.4189604 -0.02939903 113.37802416 -0.03190799 122.33719444 -0.0214572 C127.67897042 -0.01524049 133.02059936 -0.01433631 138.36236572 -0.02760315 C143.38584215 -0.03920935 148.40891685 -0.03104909 153.43235016 -0.00802612 C155.26927272 -0.00276444 157.10622943 -0.00420895 158.94313812 -0.01307678 C173.12103165 -0.07517983 184.39123202 1.27824445 195.1171875 11.51757812 C205.23825432 22.11964614 206.71336515 33.417206 206.57128906 47.5456543 C206.57015857 49.13346325 206.57079838 50.72127429 206.57305908 52.30908203 C206.5741993 56.58740661 206.55080326 60.86527587 206.52276325 65.14349532 C206.49763318 69.62642675 206.4953985 74.10937045 206.49066162 78.59236145 C206.47826577 87.06713596 206.44549041 95.54170225 206.40526366 104.01638538 C206.36043998 113.67059901 206.33853235 123.32482298 206.31848192 132.97911489 C206.2767545 152.82538518 206.20646888 172.6714685 206.1171875 192.51757812 C207.37015625 192.45957031 208.623125 192.4015625 209.9140625 192.34179688 C211.5650669 192.29489334 213.21611161 192.24939381 214.8671875 192.20507812 C216.1046875 192.14223633 216.1046875 192.14223633 217.3671875 192.078125 C223.51987583 191.95407886 223.51987583 191.95407886 226.64398193 194.90133667 C227.99225572 197.29571384 228.82968488 199.16403526 229.3828125 201.83789062 C229.55039062 202.62035156 229.71796875 203.4028125 229.890625 204.20898438 C230.04789062 205.01207031 230.20515625 205.81515625 230.3671875 206.64257812 C230.53992188 207.45339844 230.71265625 208.26421875 230.890625 209.09960938 C231.56201341 212.32333942 232.1171875 215.21340091 232.1171875 218.51757812 C232.9215625 218.60007813 233.7259375 218.68257812 234.5546875 218.76757812 C238.39932888 219.57697631 241.40100688 220.98158458 244.87109375 222.77539062 C247.82478173 223.75139187 249.16552889 223.52323172 252.1171875 222.51757812 C255.05679329 220.65969107 257.88103678 218.72549153 260.68164062 216.66796875 C265.35226938 213.45271823 268.44943555 212.85526585 274.1171875 213.51757812 C276.15625 214.55664063 276.15625 214.55664063 277.7421875 216.14257812 C278.38671875 216.77421875 279.03125 217.40585938 279.6953125 218.05664062 C280.49453125 218.86875 281.29375 219.68085938 282.1171875 220.51757812 C283.29686735 221.63232774 284.47940133 222.74406118 285.6640625 223.85351562 C286.94150092 225.07340883 288.21753198 226.29477739 289.4921875 227.51757812 C290.11174316 228.09846191 290.73129883 228.6793457 291.36962891 229.27783203 C295.21643399 233.05675855 297.28691267 235.99984621 298.1171875 241.51757812 C297.68359375 243.56445312 297.68359375 243.56445312 296.6796875 245.26757812 C296.30585938 245.92886719 295.93203125 246.59015625 295.546875 247.27148438 C294.47137943 248.96112906 293.367472 250.63274071 292.25 252.29492188 C291.60804688 253.25527344 290.96609375 254.215625 290.3046875 255.20507812 C289.36689453 256.54119141 289.36689453 256.54119141 288.41015625 257.90429688 C286.83846822 261.08091106 287.01402438 262.20288516 288.1171875 265.51757812 C289.10073373 268.11666816 290.1860505 270.65747797 291.27734375 273.21289062 C292.1171875 275.51757812 292.1171875 275.51757812 292.1171875 278.51757812 C292.69686279 278.62303955 293.27653809 278.72850098 293.8737793 278.8371582 C296.51943021 279.32450799 299.1619582 279.82713656 301.8046875 280.33007812 C302.71669922 280.49572266 303.62871094 280.66136719 304.56835938 280.83203125 C314.30891047 282.7093011 314.30891047 282.7093011 318.1171875 286.51757812 C318.24297103 289.14874082 318.30583694 291.75223733 318.3203125 294.38476562 C318.32601257 295.17529327 318.33171265 295.96582092 318.33758545 296.78030396 C318.34704958 298.45654964 318.35357502 300.13281405 318.35742188 301.80908203 C318.36712107 304.37500495 318.39812744 306.94012489 318.4296875 309.50585938 C318.43621793 311.13215669 318.44146824 312.75845975 318.4453125 314.38476562 C318.4576593 315.15360077 318.4700061 315.92243591 318.48272705 316.71456909 C318.46071254 321.97625969 318.46071254 321.97625969 316.89770508 324.43920898 C314.7173669 325.75972917 312.78849544 326.33810471 310.30078125 326.90429688 C309.37201172 327.12021484 308.44324219 327.33613281 307.48632812 327.55859375 C306.51888672 327.77193359 305.55144531 327.98527344 304.5546875 328.20507812 C303.58337891 328.43001953 302.61207031 328.65496094 301.61132812 328.88671875 C294.47817724 330.51757812 294.47817724 330.51757812 292.1171875 330.51757812 C292.0346875 331.32195312 291.9521875 332.12632812 291.8671875 332.95507812 C291.05778932 336.7997195 289.65318104 339.80139751 287.859375 343.27148438 C286.88316335 346.2258091 287.11901608 347.56212276 288.1171875 350.51757812 C289.56320286 352.92018826 291.02823621 355.21532053 292.6171875 357.51757812 C298.06453038 365.4103226 298.06453038 365.4103226 298.1171875 369.51757812 C296.25391667 373.86719161 294.09258474 376.91114762 290.73828125 380.22460938 C289.89974609 381.05798828 289.06121094 381.89136719 288.19726562 382.75 C287.32521484 383.60142578 286.45316406 384.45285156 285.5546875 385.33007812 C284.67876953 386.20083984 283.80285156 387.07160156 282.90039062 387.96875 C275.39286478 395.3838044 275.39286478 395.3838044 270.50390625 395.89648438 C265.30766706 395.83195668 262.04403315 393.39614626 257.9296875 390.45507812 C253.13103563 386.75557315 253.13103563 386.75557315 247.44921875 385.58007812 C246.29486328 386.04414062 246.29486328 386.04414062 245.1171875 386.51757812 C243.84488281 386.99904297 243.84488281 386.99904297 242.546875 387.49023438 C240.83840367 388.21907765 239.13007114 388.94824636 237.421875 389.67773438 C235.1171875 390.51757812 235.1171875 390.51757812 232.1171875 390.51757812 C231.95283203 391.62552734 231.95283203 391.62552734 231.78515625 392.75585938 C228.91950229 411.09138514 228.91950229 411.09138514 225.796875 415.29492188 C223.05193287 417.2929844 220.57627105 417.04532257 217.28125 416.94335938 C215.1171875 416.51757812 215.1171875 416.51757812 212.5546875 414.20507812 C211.1171875 411.51757812 211.1171875 411.51757812 211.1171875 408.51757812 C209.4671875 408.51757812 207.8171875 408.51757812 206.1171875 408.51757812 C206.1486084 410.29418823 206.1486084 410.29418823 206.18066406 412.10668945 C206.2536742 416.54780744 206.29920673 420.98887361 206.33691406 425.43041992 C206.35689169 427.34392247 206.38408349 429.25736505 206.41894531 431.1706543 C206.68581835 446.2058104 206.01868509 458.09798956 195.1171875 469.51757812 C183.57808438 480.53316806 171.3381823 481.10807115 156.234375 481.03515625 C154.33928898 481.04058454 152.44420719 481.04771114 150.5491333 481.05639648 C145.42926834 481.07454869 140.30972773 481.06759588 135.18985748 481.05488014 C129.81650457 481.04471035 124.4431783 481.05415683 119.06982422 481.0604248 C110.0484522 481.06768965 101.02721144 481.05814405 92.00585938 481.0390625 C81.59532337 481.01729606 71.18510079 481.02434825 60.77457237 481.04636812 C51.8154146 481.06455528 42.85635084 481.06706424 33.89718056 481.05661345 C28.55540458 481.05039674 23.21377564 481.04949256 17.87200928 481.0627594 C12.84853285 481.0743656 7.82545815 481.06620534 2.80202484 481.04318237 C0.96510228 481.03792069 -0.87185443 481.0393652 -2.70876312 481.04823303 C-16.88665665 481.11033608 -28.15685702 479.7569118 -38.8828125 469.51757812 C-49.00387932 458.91551011 -50.47899015 447.61795025 -50.33691406 433.48950195 C-50.33578357 431.901693 -50.33642338 430.31388196 -50.33868408 428.72607422 C-50.3398243 424.44774964 -50.31642826 420.16988038 -50.28838825 415.89166093 C-50.26325818 411.4087295 -50.2610235 406.9257858 -50.25628662 402.4427948 C-50.24389077 393.96802029 -50.21111541 385.493454 -50.17088866 377.01877087 C-50.12606498 367.36455724 -50.10415735 357.71033327 -50.08410692 348.05604136 C-50.0423795 328.20977107 -49.97209388 308.36368775 -49.8828125 288.51757812 C-51.13578125 288.57558594 -52.38875 288.63359375 -53.6796875 288.69335938 C-55.3306919 288.74026291 -56.98173661 288.78576244 -58.6328125 288.83007812 C-59.4578125 288.87197266 -60.2828125 288.91386719 -61.1328125 288.95703125 C-67.28550083 289.08107739 -67.28550083 289.08107739 -70.40960693 286.13381958 C-71.75788072 283.73944241 -72.59530988 281.87112099 -73.1484375 279.19726562 C-73.31601563 278.41480469 -73.48359375 277.63234375 -73.65625 276.82617188 C-73.81351562 276.02308594 -73.97078125 275.22 -74.1328125 274.39257812 C-74.39191406 273.17634766 -74.39191406 273.17634766 -74.65625 271.93554688 C-75.32763841 268.71181683 -75.8828125 265.82175534 -75.8828125 262.51757812 C-76.6871875 262.43507813 -77.4915625 262.35257812 -78.3203125 262.26757812 C-82.16495388 261.45817994 -85.16663188 260.05357167 -88.63671875 258.25976562 C-91.59040673 257.28376438 -92.93115389 257.51192453 -95.8828125 258.51757812 C-98.82241829 260.37546518 -101.64666178 262.30966472 -104.44726562 264.3671875 C-109.11789438 267.58243802 -112.21506055 268.1798904 -117.8828125 267.51757812 C-119.921875 266.47851562 -119.921875 266.47851562 -121.5078125 264.89257812 C-122.15234375 264.2609375 -122.796875 263.62929688 -123.4609375 262.97851562 C-124.26015625 262.16640625 -125.059375 261.35429687 -125.8828125 260.51757812 C-127.06249235 259.40282851 -128.24502633 258.29109507 -129.4296875 257.18164062 C-130.70712592 255.96174742 -131.98315698 254.74037886 -133.2578125 253.51757812 C-133.87736816 252.93669434 -134.49692383 252.35581055 -135.13525391 251.75732422 C-138.98205899 247.9783977 -141.05253767 245.03531004 -141.8828125 239.51757812 C-141.44921875 237.47070312 -141.44921875 237.47070312 -140.4453125 235.76757812 C-140.07148438 235.10628906 -139.69765625 234.445 -139.3125 233.76367188 C-138.23700443 232.07402719 -137.133097 230.40241554 -136.015625 228.74023438 C-135.05269531 227.29970703 -135.05269531 227.29970703 -134.0703125 225.83007812 C-133.13251953 224.49396484 -133.13251953 224.49396484 -132.17578125 223.13085938 C-130.60409322 219.95424519 -130.77964938 218.83227109 -131.8828125 215.51757812 C-132.86635873 212.91848809 -133.9516755 210.37767828 -135.04296875 207.82226562 C-135.8828125 205.51757812 -135.8828125 205.51757812 -135.8828125 202.51757812 C-136.46248779 202.4121167 -137.04216309 202.30665527 -137.6394043 202.19799805 C-140.28505521 201.71064826 -142.9275832 201.20801969 -145.5703125 200.70507812 C-146.48232422 200.53943359 -147.39433594 200.37378906 -148.33398438 200.203125 C-158.07453547 198.32585515 -158.07453547 198.32585515 -161.8828125 194.51757812 C-162.00859603 191.88641543 -162.07146194 189.28291892 -162.0859375 186.65039062 C-162.09163757 185.85986298 -162.09733765 185.06933533 -162.10321045 184.25485229 C-162.11267458 182.57860661 -162.11920002 180.9023422 -162.12304688 179.22607422 C-162.13274607 176.6601513 -162.16375244 174.09503136 -162.1953125 171.52929688 C-162.20184293 169.90299956 -162.20709324 168.2766965 -162.2109375 166.65039062 C-162.2232843 165.88155548 -162.2356311 165.11272034 -162.24835205 164.32058716 C-162.22633754 159.05889656 -162.22633754 159.05889656 -160.66333008 156.59594727 C-158.4829919 155.27542708 -156.55412044 154.69705154 -154.06640625 154.13085938 C-153.13763672 153.91494141 -152.20886719 153.69902344 -151.25195312 153.4765625 C-150.28451172 153.26322266 -149.31707031 153.04988281 -148.3203125 152.83007812 C-147.34900391 152.60513672 -146.37769531 152.38019531 -145.37695312 152.1484375 C-138.24380224 150.51757812 -138.24380224 150.51757812 -135.8828125 150.51757812 C-135.7590625 149.31101563 -135.7590625 149.31101563 -135.6328125 148.08007812 C-134.82341432 144.23543675 -133.41880604 141.23375874 -131.625 137.76367188 C-130.64878835 134.80934715 -130.88464108 133.47303349 -131.8828125 130.51757812 C-133.32882786 128.11496799 -134.79386121 125.81983572 -136.3828125 123.51757812 C-141.83015538 115.62483365 -141.83015538 115.62483365 -141.8828125 111.51757812 C-139.05789282 104.97671666 -134.61096333 100.73062076 -129.6328125 95.76757812 C-128.79878906 94.90519531 -127.96476562 94.0428125 -127.10546875 93.15429688 C-119.06871221 85.09230719 -119.06871221 85.09230719 -112.8828125 84.51757812 C-110.328125 85.20507812 -110.328125 85.20507812 -108.0078125 86.51757812 C-106.73744141 87.21753906 -106.73744141 87.21753906 -105.44140625 87.93164062 C-102.17252358 89.95784882 -99.04745761 92.14826121 -95.98828125 94.47851562 C-93.16504875 95.8717992 -91.85554577 95.43889851 -88.8828125 94.51757812 C-86.28372247 93.5340319 -83.74291265 92.44871512 -81.1875 91.35742188 C-78.8828125 90.51757812 -78.8828125 90.51757812 -75.8828125 90.51757812 C-75.77324219 89.77894531 -75.66367188 89.0403125 -75.55078125 88.27929688 C-72.6419748 69.66766539 -72.6419748 69.66766539 -68.6328125 64.76757812 C-64.88751581 63.06517054 -62.80383114 63.37691816 -58.8828125 64.51757812 C-56.4453125 66.33007812 -56.4453125 66.33007812 -54.8828125 68.51757812 C-54.8828125 69.83757812 -54.8828125 71.15757813 -54.8828125 72.51757812 C-53.2328125 72.51757812 -51.5828125 72.51757812 -49.8828125 72.51757812 C-49.9142334 70.74096802 -49.9142334 70.74096802 -49.94628906 68.9284668 C-50.0192992 64.48734881 -50.06483173 60.04628264 -50.10253906 55.60473633 C-50.12251669 53.69123378 -50.14970849 51.7777912 -50.18457031 49.86450195 C-50.45144335 34.82934585 -49.78431009 22.93716669 -38.8828125 11.51757812 C-27.34370938 0.50198819 -15.1038073 -0.0729149 0 0 Z M-28.2578125 24.95507812 C-28.90492188 25.69628906 -29.55203125 26.4375 -30.21875 27.20117188 C-33.58357154 31.88506665 -34.13359697 35.81111721 -34.14008141 41.52641678 C-34.14358748 42.22341122 -34.14709355 42.92040565 -34.15070587 43.63852113 C-34.16002724 45.97957274 -34.15509471 48.32037598 -34.15023804 50.66143799 C-34.15397393 52.35463404 -34.15857521 54.04782838 -34.16396868 55.74101996 C-34.1762217 60.39841426 -34.1759355 65.05573684 -34.17357993 69.71314359 C-34.17317234 74.73441762 -34.1842054 79.75566848 -34.19369507 84.77693176 C-34.21031891 94.61654964 -34.21580525 104.45614356 -34.21691982 114.29577431 C-34.21786969 122.29329383 -34.22197691 130.29080543 -34.22832108 138.28832245 C-34.24593765 160.95691893 -34.25515935 183.62549646 -34.25366013 206.29409984 C-34.25358022 207.51656349 -34.2535003 208.73902715 -34.25341797 209.99853516 C-34.25333621 211.22248953 -34.25325445 212.4464439 -34.25317021 213.70748779 C-34.2523573 233.54365889 -34.2714951 253.37975406 -34.2996947 273.21590319 C-34.32841355 293.57780381 -34.34223553 313.93966738 -34.34050715 334.30158877 C-34.33984288 345.73552833 -34.34535135 357.1693883 -34.36686325 368.60330963 C-34.38506194 378.33871373 -34.38943319 388.07400217 -34.3758444 397.80941591 C-34.36930801 402.7766002 -34.36922182 407.74356252 -34.3865509 412.71072578 C-34.40225701 417.25947284 -34.39944315 421.80782146 -34.38198264 426.35655865 C-34.37890731 428.00057098 -34.38256521 429.64461286 -34.39370279 431.28859034 C-34.45558451 441.07207561 -34.29276245 449.35028436 -27.69921875 457.07617188 C-26.95542969 457.69621094 -26.21164063 458.31625 -25.4453125 458.95507812 C-24.70410156 459.59316406 -23.96289062 460.23125 -23.19921875 460.88867188 C-18.37945406 464.27794991 -14.06737067 464.81049204 -8.28755188 464.78500366 C-7.53079467 464.78953478 -6.77403747 464.79406589 -5.99434823 464.79873431 C-3.46272252 464.8113778 -0.93131196 464.80975797 1.6003418 464.80810547 C3.41734595 464.81409088 5.23434756 464.82089645 7.05134583 464.82846069 C11.98546172 464.8461297 16.91950824 464.85081654 21.85365272 464.85209227 C24.93845639 464.85351427 28.02324246 464.85778486 31.10804176 464.8630867 C41.87631982 464.88159212 52.64454837 464.88975694 63.4128418 464.88818359 C73.43926236 464.88698305 83.46546735 464.90806701 93.49183339 464.93967092 C102.10774072 464.96585788 110.72357777 464.97654983 119.33952457 464.97527277 C124.48185064 464.97476372 129.62398527 464.98041524 134.76627159 465.00162888 C139.60660401 465.0210512 144.44656321 465.02110842 149.2869091 465.00659561 C151.0581441 465.00451115 152.82940269 465.00918667 154.60059738 465.02131653 C169.45751639 465.13630638 169.45751639 465.13630638 182.51953125 458.62304688 C183.02613281 457.99011719 183.53273438 457.3571875 184.0546875 456.70507812 C184.57933594 456.07988281 185.10398437 455.4546875 185.64453125 454.81054688 C189.19772022 449.27812798 190.49206069 444.82685279 190.49750423 438.2598505 C190.50216415 437.56024878 190.50682407 436.86064706 190.5116252 436.13984528 C190.52355057 433.80186382 190.51418962 431.46446614 190.50486755 429.1264801 C190.50904155 427.43084372 190.51451943 425.73521013 190.52118737 424.03958172 C190.53565196 419.38473954 190.53139407 414.73007427 190.52402055 410.07522237 C190.51929373 405.0533153 190.53179442 400.03144676 190.54203796 395.009552 C190.55924061 385.17320369 190.56006296 375.33691921 190.55482506 365.50055975 C190.55078498 357.50641351 190.55222499 349.51228614 190.55757332 341.51814079 C190.55832174 340.38072554 190.55907016 339.24331028 190.55984126 338.07142789 C190.56137273 335.76083748 190.56291107 333.45024706 190.56445623 331.13965666 C190.57818649 309.46792224 190.57273981 287.79622391 190.56127102 266.12449031 C190.5513373 246.29423406 190.5642808 226.4640711 190.58820521 206.63382924 C190.61258213 186.27525588 190.62220759 165.91672598 190.61555248 145.55813831 C190.61205724 134.12705996 190.61431254 122.69605337 190.63180351 111.26498604 C190.64650784 101.5343533 190.64718403 91.80384286 190.6297326 82.07321257 C190.62120582 77.10816791 190.61911403 72.14334189 190.63438416 67.17830849 C190.64819111 62.63277019 190.6435196 58.08763867 190.62414492 53.54212414 C190.62037233 51.89819236 190.62334303 50.2542283 190.63375657 48.61032517 C190.69069855 38.93282529 190.56733311 31.69981793 184.00390625 24.05664062 C183.27816406 23.425 182.55242187 22.79335938 181.8046875 22.14257812 C181.08667969 21.49546875 180.36867188 20.84835938 179.62890625 20.18164062 C174.29636788 16.64873029 168.50836638 16.22245714 162.26795959 16.25015259 C161.12814382 16.24335592 161.12814382 16.24335592 159.96530145 16.23642194 C157.43521941 16.2238258 154.90535394 16.22539518 152.37524414 16.22705078 C150.55469996 16.22106265 148.73415832 16.21425644 146.91362 16.20669556 C141.97975678 16.18906006 137.04596297 16.18434128 132.11207128 16.18306398 C129.02760744 16.18164075 125.94316117 16.17736793 122.85870171 16.17206955 C112.09272011 16.15357928 101.32678797 16.14539792 90.56079102 16.14697266 C80.53315306 16.14817465 70.50573014 16.12705836 60.47814661 16.09548533 C51.86053172 16.06932079 43.24298708 16.0586054 34.62533277 16.05988348 C29.48198246 16.06039294 24.33882343 16.05471793 19.19551277 16.03352737 C14.35844295 16.01414138 9.52174689 16.01402303 4.68466377 16.02856064 C2.91258701 16.03064919 1.14048681 16.02594506 -0.63154984 16.01383972 C-16.1071414 15.89467072 -16.1071414 15.89467072 -28.2578125 24.95507812 Z M-63.8828125 139.51757812 C-64.47032712 141.45714465 -64.47032712 141.45714465 -64.7578125 143.70507812 C-65.56188103 148.89422142 -67.83577355 150.62214559 -71.84765625 153.76757812 C-77.43376026 158.57098426 -80.48052453 165.56954266 -81.21875 172.81445312 C-81.33530539 183.11794971 -79.77593104 191.28795121 -72.5859375 198.98632812 C-65.68925952 205.18701108 -59.17249757 207.51757812 -49.8828125 207.51757812 C-49.8828125 184.41757813 -49.8828125 161.31757813 -49.8828125 137.51757812 C-57.37588191 137.12844272 -57.37588191 137.12844272 -63.8828125 139.51757812 Z M206.1171875 273.51757812 C206.1171875 296.61757813 206.1171875 319.71757812 206.1171875 343.51757812 C213.61025691 343.90671353 213.61025691 343.90671353 220.1171875 341.51757812 C220.70470212 339.5780116 220.70470212 339.5780116 220.9921875 337.33007812 C221.79890261 332.16051597 224.00947019 330.52835319 228.01171875 327.40820312 C233.52309917 322.45920846 236.7937149 315.72802475 237.35546875 308.41601562 C237.57190888 298.14080541 236.12909852 289.8358854 228.9609375 282.11914062 C221.67482594 275.79010304 215.65936545 273.51757812 206.1171875 273.51757812 Z " fill="#000000" transform="translate(177.8828125,15.482421875)"/>
<path d="M0 0 C0.75816834 -0.00382555 1.51633667 -0.00765109 2.29747981 -0.01159257 C4.83378197 -0.02189762 7.3698567 -0.01793516 9.90617371 -0.01396179 C11.72642221 -0.01830971 13.54666889 -0.02349312 15.36691284 -0.02944946 C20.30916567 -0.04284368 25.25134204 -0.04341754 30.19360948 -0.04088616 C34.32124277 -0.03981651 38.4488606 -0.04469979 42.57649058 -0.04949158 C52.31660505 -0.06058872 62.05668097 -0.06102333 71.79679871 -0.05497742 C81.83912877 -0.04893963 91.88131866 -0.06124323 101.92362481 -0.08254749 C110.54969068 -0.10017324 119.17571197 -0.10616321 127.80179518 -0.10290974 C132.95184399 -0.10109794 138.10179285 -0.10372263 143.25182533 -0.11762428 C148.09703005 -0.13021342 152.94201667 -0.12824818 157.78721809 -0.11521339 C159.56251347 -0.11285025 161.33782424 -0.11557288 163.11310196 -0.12383652 C165.54285647 -0.13432834 167.97188245 -0.12618417 170.40161133 -0.11352539 C171.44711591 -0.12458682 171.44711591 -0.12458682 172.51374179 -0.13587171 C180.57605143 -0.0479401 186.82829048 2.83035883 192.62565613 8.33100891 C199.53635029 15.88384722 198.39128113 21.14727222 198.39128113 32.26069641 C170.34128113 32.26069641 142.29128113 32.26069641 113.39128113 32.26069641 C115.37128113 29.78569641 115.37128113 29.78569641 117.39128113 27.26069641 C117.8875179 23.12538997 117.73296877 21.77322787 115.39128113 18.26069641 C112.40350996 17.26477269 110.37159202 17.11700562 107.24894714 17.08369446 C106.20098465 17.07085922 105.15302216 17.05802399 104.07330322 17.0447998 C102.94202499 17.03741287 101.81074677 17.03002594 100.64518738 17.02241516 C99.48252853 17.01434341 98.31986969 17.00627167 97.12197876 16.99795532 C94.66154979 16.98411999 92.20110166 16.97339538 89.74064636 16.9655304 C85.9721318 16.94828041 82.20448602 16.90438359 78.436203 16.86030579 C76.04753759 16.85018216 73.65886471 16.84166503 71.27018738 16.83491516 C70.14093338 16.81740707 69.01167938 16.79989899 67.84820557 16.78186035 C66.79709091 16.78478592 65.74597626 16.78771149 64.66300964 16.79072571 C63.7394014 16.78485947 62.81579315 16.77899323 61.86419678 16.77294922 C58.61087766 17.41461982 57.42161646 18.69055006 55.39128113 21.26069641 C54.72447745 24.21790269 54.72447745 24.21790269 55.39128113 27.26069641 C56.71128113 28.91069641 58.03128113 30.56069641 59.39128113 32.26069641 C36.62128113 32.26069641 13.85128113 32.26069641 -9.60871887 32.26069641 C-9.60871887 158.98069641 -9.60871887 285.70069641 -9.60871887 416.26069641 C59.03128113 416.26069641 127.67128113 416.26069641 198.39128113 416.26069641 C198.39128113 433.53254107 198.39128113 433.53254107 191.78190613 441.10444641 C185.689953 446.80517319 178.62664804 448.71933271 170.42179871 448.64837646 C169.66106709 448.653762 168.90033548 448.65914754 168.1165514 448.66469628 C165.58946965 448.67890505 163.06291698 448.67188995 160.53581238 448.66474915 C158.71511924 448.67045637 156.89442968 448.67742199 155.07374573 448.68554688 C150.14403563 448.70345286 145.21450378 448.7023149 140.28477097 448.69660449 C136.1644364 448.69350944 132.0441359 448.6996085 127.92380619 448.70564324 C118.20232356 448.71967797 108.48092883 448.71813545 98.75944519 448.70674133 C88.73915975 448.69525635 78.71914184 448.70934461 68.69889164 448.73613781 C60.08549397 448.75830461 51.47218023 448.76493011 42.85875607 448.7590614 C37.71878588 448.75569356 32.57898726 448.75809571 27.43904114 448.77531242 C22.60604487 448.79079544 17.77344472 448.7868109 12.94046402 448.76800728 C11.17000529 448.76432541 9.39951711 448.76741813 7.62908554 448.77789307 C-10.32213194 448.87597072 -10.32213194 448.87597072 -18.06965637 442.11225891 C-18.701297 441.37749329 -19.33293762 440.64272766 -19.98371887 439.88569641 C-20.63082825 439.15608704 -21.27793762 438.42647766 -21.94465637 437.67475891 C-25.33893693 432.75066177 -25.85932178 428.00211025 -25.86598778 422.12601662 C-25.86949385 421.42756874 -25.87299993 420.72912086 -25.87661225 420.00950789 C-25.88591475 417.66954315 -25.88100596 415.32982792 -25.87614441 412.98985291 C-25.87988124 411.2950811 -25.88448289 409.60031103 -25.88987505 407.90554368 C-25.90211622 403.2484781 -25.90184328 398.59148429 -25.8994863 393.93440628 C-25.89907842 388.91180563 -25.91011446 383.88922809 -25.91960144 378.86663818 C-25.9362181 369.02682451 -25.94171127 359.1870348 -25.9428262 349.34720828 C-25.94377627 341.35018082 -25.94788453 333.35316128 -25.95422745 325.35613632 C-25.97184099 302.68838233 -25.98106604 280.02064728 -25.9795665 257.35288639 C-25.97948659 256.13072542 -25.97940667 254.90856444 -25.97932434 253.64936829 C-25.97924258 252.42571711 -25.97916082 251.20206593 -25.97907658 249.94133441 C-25.97826345 230.10455134 -25.99740759 210.26784416 -26.02560107 190.43108304 C-26.05431449 170.06802558 -26.06814225 149.70500515 -26.06641352 129.34192693 C-26.06574913 117.90747522 -26.0712631 106.47310308 -26.09276962 95.03866959 C-26.11096102 85.30435906 -26.11534547 75.5701642 -26.10175078 65.83584405 C-26.09521108 60.86877671 -26.09514013 55.90193139 -26.11245728 50.93488503 C-26.12814851 46.38746367 -26.12536485 41.84044111 -26.10788901 37.29302971 C-26.10481042 35.64839213 -26.10848378 34.00372507 -26.11960916 32.35912223 C-26.18065612 22.69445309 -26.12625001 15.35201058 -19.42512512 7.79975891 C-18.30944153 6.85229797 -18.30944153 6.85229797 -17.17121887 5.88569641 C-16.43000793 5.23858704 -15.688797 4.59147766 -14.92512512 3.92475891 C-10.12211164 0.47436474 -5.79341774 -0.03111461 0 0 Z " fill="#FEC8D4" transform="translate(169.6087188720703,31.739303588867188)"/>
<path d="M0 0 C73.92 0 147.84 0 224 0 C224 17.27184466 224 17.27184466 217.390625 24.84375 C211.29867187 30.54447678 204.23536691 32.4586363 196.03051758 32.38768005 C195.26978597 32.39306559 194.50905436 32.39845113 193.72527027 32.40399987 C191.19818853 32.41820864 188.67163586 32.41119354 186.14453125 32.40405273 C184.32383811 32.40975996 182.50314855 32.41672558 180.6824646 32.42485046 C175.7527545 32.44275645 170.82322266 32.44161849 165.89348984 32.43590808 C161.77315527 32.43281303 157.65285478 32.43891209 153.53252506 32.44494683 C143.81104243 32.45898156 134.0896477 32.45743904 124.36816406 32.44604492 C114.34787862 32.43455994 104.32786071 32.4486482 94.30761051 32.4754414 C85.69421284 32.49760819 77.0808991 32.5042337 68.46747494 32.49836498 C63.32750476 32.49499714 58.18770613 32.4973993 53.04776001 32.51461601 C48.21476374 32.53009903 43.38216359 32.52611449 38.54918289 32.50731087 C36.77872416 32.503629 35.00823598 32.50672172 33.23780441 32.51719666 C15.28658693 32.61527431 15.28658693 32.61527431 7.5390625 25.8515625 C6.90742188 25.11679687 6.27578125 24.38203125 5.625 23.625 C4.97789062 22.89539063 4.33078125 22.16578125 3.6640625 21.4140625 C-1.20240065 14.35426385 0 8.80349345 0 0 Z " fill="#EBEEF0" transform="translate(144,448)"/>
<path d="M0 0 C2.31 0 4.62 0 7 0 C7.26554687 1.01320312 7.53109375 2.02640625 7.8046875 3.0703125 C8.16135689 4.42190177 8.51813343 5.77346278 8.875 7.125 C9.04902344 7.79015625 9.22304688 8.4553125 9.40234375 9.140625 C9.92046809 11.09798362 10.45855488 13.04898267 11 15 C11.29132813 16.09054688 11.58265625 17.18109375 11.8828125 18.3046875 C13.1716896 21.41421617 14.0855166 22.37402505 17 24 C18.85214082 24.68980025 20.7309695 25.31028906 22.625 25.875 C27.60900898 27.43932399 31.95655594 29.39995846 36.453125 32.046875 C40.02436588 33.38335165 43.27528925 33.65652641 47 33 C49.65264552 31.78060559 51.91352563 30.1769328 54.25 28.4375 C60.32307633 23.99394523 60.32307633 23.99394523 63.18359375 24.01953125 C65.37963794 25.20492284 67.01778478 26.51196 68.8125 28.25 C69.75029297 29.12398437 69.75029297 29.12398437 70.70703125 30.015625 C72 32 72 32 71.953125 34.37109375 C70.76502636 37.64810351 69.01494273 40.01692892 66.9375 42.8125 C62.99774935 48.37842672 62.99774935 48.37842672 62.3359375 54.890625 C63.55385974 58.75931918 65.48502066 62.25646027 67.3984375 65.8203125 C69.94631238 70.87877628 73 77.23318016 73 83 C74.07378906 83.26554687 75.14757812 83.53109375 76.25390625 83.8046875 C77.6901201 84.16139421 79.12631712 84.51816866 80.5625 84.875 C81.26697266 85.04902344 81.97144531 85.22304688 82.69726562 85.40234375 C87.16024998 86.51294815 91.58487052 87.71201216 96 89 C96 93.62 96 98.24 96 103 C94.37191406 103.39832031 94.37191406 103.39832031 92.7109375 103.8046875 C91.26559353 104.16133082 89.82028278 104.5181088 88.375 104.875 C87.66214844 105.04902344 86.94929688 105.22304688 86.21484375 105.40234375 C84.80121787 105.75250796 83.39052489 106.11474331 81.9831543 106.48925781 C80.22600219 106.94179532 78.44746282 107.30941538 76.66796875 107.6640625 C73.40801311 109.29642682 72.74433724 110.97106207 71.59228516 114.35742188 C71.37620605 115.06447266 71.16012695 115.77152344 70.9375 116.5 C70.44879054 117.95994217 69.95529361 119.41829045 69.45703125 120.875 C69.21678223 121.58398438 68.9765332 122.29296875 68.72900391 123.0234375 C67.4794315 126.41142752 65.72080946 129.49574254 63.8828125 132.59375 C62.35651653 136.75391954 62.00716571 140.83787718 63.86816406 144.890625 C65.02809972 146.74173469 66.25809912 148.49787756 67.5625 150.25 C72.00605477 156.32307633 72.00605477 156.32307633 71.98046875 159.18359375 C70.79507716 161.37963794 69.48804 163.01778478 67.75 164.8125 C67.16734375 165.43769531 66.5846875 166.06289063 65.984375 166.70703125 C64 168 64 168 61.62890625 167.953125 C58.35189649 166.76502636 55.98307108 165.01494273 53.1875 162.9375 C47.62157328 158.99774935 47.62157328 158.99774935 41.109375 158.3359375 C37.23699313 159.55502068 33.73833921 161.48628442 30.17578125 163.41015625 C26.07639839 165.46236883 21.88872356 166.765431 17.49609375 168.04296875 C14.82471788 169.06720519 13.7998656 169.8199201 12 172 C11.1566042 174.18338864 11.1566042 174.18338864 10.6484375 176.640625 C10.43703125 177.54683594 10.225625 178.45304688 10.0078125 179.38671875 C9.69457031 180.80404297 9.69457031 180.80404297 9.375 182.25 C9.1584375 183.17941406 8.941875 184.10882813 8.71875 185.06640625 C7.58170883 190.02867853 6.62800725 194.94803055 6 200 C4.02 200 2.04 200 0 200 C0 178.55 0 157.1 0 135 C5.28 134.34 10.56 133.68 16 133 C16.99 133.99 17.98 134.98 19 136 C22.73311031 136.58070605 24.59130004 136.2173936 27.9375 134.4375 C29.4534375 133.2309375 29.4534375 133.2309375 31 132 C31.8353125 131.34064453 31.8353125 131.34064453 32.6875 130.66796875 C41.61787135 122.79409222 46.4674279 110.353492 47.2109375 98.69140625 C47.60198106 84.71911913 43.55078819 72.63940687 33.9375 62.25 C23.7838174 52.80707518 13.89507547 50.60532665 0 48 C0 32.16 0 16.32 0 0 Z " fill="#F3C3CE" transform="translate(384,224)"/>
<path d="M0 0 C1.98 0 3.96 0 6 0 C6 21.45 6 42.9 6 65 C0.72 65.66 -4.56 66.32 -10 67 C-10 66.34 -10 65.68 -10 65 C-13.89906471 63.70031176 -15.87251684 63.34484394 -20 64 C-30.2215618 71.0030637 -38.63693948 82.66707461 -41 95 C-42.01298312 109.94150095 -39.51344677 123.52850346 -30.06640625 135.4375 C-20.21545869 146.13797882 -8.15442302 150.42728633 6 152 C6 167.84 6 183.68 6 200 C3.69 200 1.38 200 -1 200 C-2.68555198 193.98819792 -4.28925684 188.02754459 -5.375 181.875 C-6.17074002 179.48777995 -7.00156443 178.53286597 -9 177 C-11.54498345 175.98461855 -11.54498345 175.98461855 -14.4375 175.1875 C-20.04144008 173.44600955 -24.92634462 171.07592765 -30.015625 168.171875 C-33.77195991 166.69687438 -37.05439472 166.2584232 -41 167 C-43.65054954 168.22370011 -45.91351035 169.82305582 -48.25 171.5625 C-54.32307633 176.00605477 -54.32307633 176.00605477 -57.18359375 175.98046875 C-59.37963794 174.79507716 -61.01778478 173.48804 -62.8125 171.75 C-63.43769531 171.16734375 -64.06289062 170.5846875 -64.70703125 169.984375 C-66 168 -66 168 -65.953125 165.62890625 C-64.37616968 161.27935326 -61.47520284 157.90286213 -58.71484375 154.23046875 C-56.64662953 150.33431121 -56.22366646 147.27507658 -57 143 C-58.03924164 140.04492695 -59.41019097 137.32739039 -60.875 134.5625 C-63.89365546 128.77585482 -65.86911326 123.44831998 -67 117 C-74.59581807 114.61106267 -82.22749312 112.73641111 -90 111 C-90 106.38 -90 101.76 -90 97 C-88.59105469 96.65066406 -87.18210938 96.30132812 -85.73046875 95.94140625 C-83.88279702 95.48183308 -82.03514161 95.02219425 -80.1875 94.5625 C-79.25873047 94.33240234 -78.32996094 94.10230469 -77.37304688 93.86523438 C-76.0340332 93.53168945 -76.0340332 93.53168945 -74.66796875 93.19140625 C-73.43469849 92.88505249 -73.43469849 92.88505249 -72.17651367 92.57250977 C-70.43247603 92.11375842 -68.71082088 91.57027363 -67 91 C-66.21707336 88.67480235 -66.21707336 88.67480235 -65.75 85.8125 C-64.31067274 79.28495639 -61.69137201 74.18229597 -58.42578125 68.421875 C-56.78211463 64.47707511 -56.15945913 61.17871808 -57 57 C-58.22829942 54.35168338 -59.82302931 52.08652526 -61.5625 49.75 C-66.00605477 43.67692367 -66.00605477 43.67692367 -65.98046875 40.81640625 C-64.79507716 38.62036206 -63.48804 36.98221522 -61.75 35.1875 C-61.16734375 34.56230469 -60.5846875 33.93710938 -59.984375 33.29296875 C-58 32 -58 32 -55.62890625 32.046875 C-52.35189649 33.23497364 -49.98307108 34.98505727 -47.1875 37.0625 C-41.7306958 40.94720322 -41.7306958 40.94720322 -35.2421875 41.734375 C-31.4456611 40.49091339 -27.95568129 38.6035653 -24.4453125 36.71826172 C-18.8566273 33.75680057 -13.21018907 32.19426713 -7 31 C-3.92136827 20.8311861 -2.00442728 10.42026556 0 0 Z " fill="#F3C3CE" transform="translate(122,88)"/>
<path d="M0 0 C0.75816834 -0.00382555 1.51633667 -0.00765109 2.29747981 -0.01159257 C4.83378197 -0.02189762 7.3698567 -0.01793516 9.90617371 -0.01396179 C11.72642221 -0.01830971 13.54666889 -0.02349312 15.36691284 -0.02944946 C20.30916567 -0.04284368 25.25134204 -0.04341754 30.19360948 -0.04088616 C34.32124277 -0.03981651 38.4488606 -0.04469979 42.57649058 -0.04949158 C52.31660505 -0.06058872 62.05668097 -0.06102333 71.79679871 -0.05497742 C81.83912877 -0.04893963 91.88131866 -0.06124323 101.92362481 -0.08254749 C110.54969068 -0.10017324 119.17571197 -0.10616321 127.80179518 -0.10290974 C132.95184399 -0.10109794 138.10179285 -0.10372263 143.25182533 -0.11762428 C148.09703005 -0.13021342 152.94201667 -0.12824818 157.78721809 -0.11521339 C159.56251347 -0.11285025 161.33782424 -0.11557288 163.11310196 -0.12383652 C165.54285647 -0.13432834 167.97188245 -0.12618417 170.40161133 -0.11352539 C171.44711591 -0.12458682 171.44711591 -0.12458682 172.51374179 -0.13587171 C180.57605143 -0.0479401 186.82829048 2.83035883 192.62565613 8.33100891 C199.53635029 15.88384722 198.39128113 21.14727222 198.39128113 32.26069641 C170.34128113 32.26069641 142.29128113 32.26069641 113.39128113 32.26069641 C115.37128113 29.78569641 115.37128113 29.78569641 117.39128113 27.26069641 C117.8875179 23.12538997 117.73296877 21.77322787 115.39128113 18.26069641 C112.40350996 17.26477269 110.37159202 17.11700562 107.24894714 17.08369446 C106.20098465 17.07085922 105.15302216 17.05802399 104.07330322 17.0447998 C102.94202499 17.03741287 101.81074677 17.03002594 100.64518738 17.02241516 C99.48252853 17.01434341 98.31986969 17.00627167 97.12197876 16.99795532 C94.66154979 16.98411999 92.20110166 16.97339538 89.74064636 16.9655304 C85.9721318 16.94828041 82.20448602 16.90438359 78.436203 16.86030579 C76.04753759 16.85018216 73.65886471 16.84166503 71.27018738 16.83491516 C70.14093338 16.81740707 69.01167938 16.79989899 67.84820557 16.78186035 C66.79709091 16.78478592 65.74597626 16.78771149 64.66300964 16.79072571 C63.7394014 16.78485947 62.81579315 16.77899323 61.86419678 16.77294922 C58.61087766 17.41461982 57.42161646 18.69055006 55.39128113 21.26069641 C54.72447745 24.21790269 54.72447745 24.21790269 55.39128113 27.26069641 C56.71128113 28.91069641 58.03128113 30.56069641 59.39128113 32.26069641 C31.34128113 32.26069641 3.29128113 32.26069641 -25.60871887 32.26069641 C-25.60871887 14.43980089 -25.60871887 14.43980089 -19.51496887 8.07319641 C-13.23437088 2.21130495 -8.66264891 -0.04652434 0 0 Z " fill="#FEFEFE" transform="translate(169.6087188720703,31.739303588867188)"/>
<path d="M0 0 C9.10041262 2.14127356 17.2218429 13.63237859 23.69897461 20.13110352 C25.64127265 22.07881803 27.5889314 24.0210593 29.53710938 25.96289062 C30.77375875 27.20019983 32.01009842 28.43781868 33.24609375 29.67578125 C33.82830185 30.25596512 34.41050995 30.83614899 35.01036072 31.43391418 C39.92633175 36.37886669 39.92633175 36.37886669 40.6875 40.375 C39.34553724 49.43324861 27.14258828 57.94633598 20.80639648 64.26147461 C18.85868197 66.20377265 16.9164407 68.1514314 14.97460938 70.09960938 C13.73730017 71.33625875 12.49968132 72.57259842 11.26171875 73.80859375 C10.39144295 74.6819059 10.39144295 74.6819059 9.50358582 75.57286072 C4.40217169 80.64437637 4.40217169 80.64437637 0.3125 81 C-2.8125 80.75 -2.8125 80.75 -5.125 79.75 C-7.19121893 77.30114794 -7.92389878 75.09558579 -8.15917969 71.90161133 C-7.72106071 69.18249686 -6.81683281 68.1499465 -4.953125 66.13671875 C-3.99635864 65.09874146 -3.99635864 65.09874146 -3.02026367 64.03979492 C1.14226899 59.72259998 5.36459261 55.47053317 9.625 51.25 C10.54732422 50.3321875 11.46964844 49.414375 12.41992188 48.46875 C14.67349899 46.22684945 16.92939075 43.987334 19.1875 41.75 C17.58997219 37.76295714 14.79694346 35.1198311 11.77734375 32.1796875 C11.24984024 31.65738556 10.72233673 31.13508362 10.17884827 30.59695435 C8.4989287 28.93479666 6.81245728 27.27950195 5.125 25.625 C3.43486984 23.96249027 1.7462228 22.29854046 0.06044006 20.63162231 C-0.98740971 19.5960278 -2.03792114 18.56311817 -3.09132385 17.53317261 C-7.63947437 13.04769222 -7.63947437 13.04769222 -8.1875 8.9375 C-7.8125 5.75 -7.8125 5.75 -5.6875 2.875 C-2.8125 0.75 -2.8125 0.75 0 0 Z " fill="#050203" transform="translate(295.8125,215.25)"/>
<path d="M0 0 C2.96328619 2.05150582 3.81472499 3.25889995 4.6875 6.75 C2.87936558 15.29754452 -7.44878526 22.56733514 -13.4375 28.5 C-14.35982422 29.4178125 -15.28214844 30.335625 -16.23242188 31.28125 C-18.48599899 33.52315055 -20.74189075 35.762666 -23 38 C-21.40247219 41.98704286 -18.60944346 44.6301689 -15.58984375 47.5703125 C-14.79858849 48.35376541 -14.79858849 48.35376541 -13.99134827 49.15304565 C-12.3114287 50.81520334 -10.62495728 52.47049805 -8.9375 54.125 C-7.24736984 55.78750973 -5.5587228 57.45145954 -3.87294006 59.11837769 C-2.82509029 60.1539722 -1.77457886 61.18688183 -0.72117615 62.21682739 C3.82697437 66.70230778 3.82697437 66.70230778 4.375 70.8125 C4 74 4 74 1.875 76.875 C-1 79 -1 79 -3.8125 79.75 C-12.91291262 77.60872644 -21.0343429 66.11762141 -27.51147461 59.61889648 C-29.45377265 57.67118197 -31.4014314 55.7289407 -33.34960938 53.78710938 C-34.58625875 52.54980017 -35.82259842 51.31218132 -37.05859375 50.07421875 C-37.64080185 49.49403488 -38.22300995 48.91385101 -38.82286072 48.31608582 C-43.73883175 43.37113331 -43.73883175 43.37113331 -44.5 39.375 C-43.15803724 30.31675139 -30.95508828 21.80366402 -24.61889648 15.48852539 C-22.67118197 13.54622735 -20.7289407 11.5985686 -18.78710938 9.65039062 C-17.54980017 8.41374125 -16.31218132 7.17740158 -15.07421875 5.94140625 C-14.49403488 5.35919815 -13.91385101 4.77699005 -13.31608582 4.17713928 C-8.47913195 -0.63146607 -6.80934459 -1.52623241 0 0 Z " fill="#050203" transform="translate(220,217)"/>
<path d="M0 0 C2 3 2 3 2 17 C-26.05 17 -54.1 17 -83 17 C-81.68 15.35 -80.36 13.7 -79 12 C-78.50376323 7.86469356 -78.65831236 6.51253146 -81 3 C-81.99 2.34 -82.98 1.68 -84 1 C-73.08255423 0.80007503 -62.16496894 0.61632227 -51.24690437 0.45341206 C-46.17761085 0.37725977 -41.1085374 0.29546569 -36.03955078 0.20092773 C-31.15085639 0.10995737 -26.2621353 0.03361128 -21.37304306 -0.03244972 C-19.50458078 -0.06029537 -17.63619039 -0.09347705 -15.76791763 -0.13199425 C-13.15792807 -0.18490572 -10.54833067 -0.21911012 -7.93798828 -0.2487793 C-7.1597168 -0.26891586 -6.38144531 -0.28905243 -5.57958984 -0.30979919 C-3.42947388 -0.32279968 -3.42947388 -0.32279968 0 0 Z " fill="#EBEEF0" transform="translate(366,47)"/>
<path d="M0 0 C3.20119446 0.55863982 5.3057092 0.95395513 7.8671875 3.03515625 C10.28932399 8.78773042 8.48665081 14.60987232 6.74609375 20.3203125 C4.61861876 27.62272149 2.7006482 34.95540886 0.89453125 42.34375 C0.38252962 44.41350257 -0.12984284 46.48316343 -0.64257812 48.55273438 C-1.42884646 51.73076507 -2.21028426 54.9096568 -2.97875977 58.09204102 C-3.73625239 61.22122673 -4.51280696 64.34515063 -5.29296875 67.46875 C-5.51912369 68.42486679 -5.74527863 69.38098358 -5.97828674 70.36607361 C-6.20209518 71.24872391 -6.42590363 72.13137421 -6.65649414 73.04077148 C-6.84570938 73.81476791 -7.03492462 74.58876434 -7.22987366 75.38621521 C-8.38957633 77.9856934 -9.70830431 78.96330508 -12.1328125 80.41015625 C-15.35872778 80.81339566 -17.43253395 80.69405296 -20.4453125 79.47265625 C-23.12166631 76.20155715 -23.07213074 72.5487248 -23.1328125 68.41015625 C-22.71584938 65.60506698 -21.91546727 62.9974885 -21.0390625 60.3046875 C-20.56334878 58.72607932 -20.09221878 57.14608464 -19.625 55.56494141 C-19.2542334 54.31538666 -19.2542334 54.31538666 -18.87597656 53.04058838 C-17.56298333 48.39324367 -16.497987 43.6894106 -15.4140625 38.984375 C-14.95221302 37.01488244 -14.48997106 35.04548187 -14.02734375 33.07617188 C-13.32120719 30.06086485 -12.6207833 27.04467811 -11.93505859 24.0246582 C-11.256967 21.04880073 -10.556297 18.07901918 -9.8515625 15.109375 C-9.65244263 14.20732834 -9.45332275 13.30528168 -9.24816895 12.37590027 C-7.94604291 6.99091904 -6.19917702 1.19214943 0 0 Z " fill="#020101" transform="translate(263.1328125,215.58984375)"/>
<path d="M0 0 C1.25668488 0.00424484 2.51336975 0.00848969 3.80813599 0.01286316 C7.13246985 0.02677753 10.4561748 0.05368251 13.78033447 0.0869751 C17.17902216 0.11778629 20.57777509 0.13139197 23.9765625 0.14648438 C30.63298501 0.17951854 37.28911248 0.22969252 43.9453125 0.29296875 C43.295625 1.05609375 42.6459375 1.81921875 41.9765625 2.60546875 C39.73197559 5.14353204 39.73197559 5.14353204 39.4453125 8.29296875 C39.80410105 11.94981593 39.80410105 11.94981593 43.9453125 16.29296875 C21.1753125 16.29296875 -1.5946875 16.29296875 -25.0546875 16.29296875 C-24.06292246 9.35061349 -23.76784987 7.90139417 -19.0546875 3.29296875 C-13.19683975 -0.81164565 -6.85635243 -0.08731657 0 0 Z " fill="#EBEEF0" transform="translate(185.0546875,47.70703125)"/>
<path d="M0 0 C1.73618591 -0.00006042 1.73618591 -0.00006042 3.50744629 -0.00012207 C5.95179684 0.00523347 8.39614694 0.02281732 10.84033203 0.05175781 C14.58028833 0.09359939 18.31844293 0.09282635 22.05859375 0.0859375 C24.43490834 0.09643055 26.81121365 0.10936926 29.1875 0.125 C30.3053186 0.12520142 31.42313721 0.12540283 32.5748291 0.12561035 C34.14170471 0.14947815 34.14170471 0.14947815 35.74023438 0.17382812 C37.11326721 0.18645691 37.11326721 0.18645691 38.51403809 0.19934082 C41.63433226 0.676399 43.54257635 1.76301627 46.09375 3.59375 C47.49832737 6.40290474 47.34270157 8.48185534 47.09375 11.59375 C45.31390595 14.7296657 44.57066793 15.43477736 41.09375 16.59375 C39.41778624 16.69603209 37.73811587 16.74217323 36.05908203 16.75488281 C35.03436798 16.76449036 34.00965393 16.7740979 32.95388794 16.78399658 C31.84762054 16.78824646 30.74135315 16.79249634 29.6015625 16.796875 C27.89442581 16.80542511 27.89442581 16.80542511 26.15280151 16.81414795 C23.74364146 16.82359879 21.33446848 16.83013226 18.92529297 16.83398438 C15.24033063 16.84369314 11.55592523 16.87471781 7.87109375 16.90625 C5.53125331 16.91277977 3.19140889 16.91803034 0.8515625 16.921875 C-0.25065643 16.9342218 -1.35287537 16.9465686 -2.48849487 16.95928955 C-3.51951324 16.95628845 -4.55053162 16.95328735 -5.61279297 16.95019531 C-6.51641571 16.95384094 -7.42003845 16.95748657 -8.3510437 16.96124268 C-11.4718779 16.51240075 -13.35965304 15.42265286 -15.90625 13.59375 C-17.35055855 10.70513291 -17.28313506 8.79727299 -16.90625 5.59375 C-12.57256643 -0.89012563 -7.08601174 -0.10393192 0 0 Z " fill="#020202" transform="translate(240.90625,47.40625)"/>
<path d="M0 0 C5.28 0 10.56 0 16 0 C16 9.9 16 19.8 16 30 C10.06255355 28.51563839 6.09896473 24.99685519 2.59375 19.9921875 C-0.76765323 13.48547124 -0.30292128 7.19438033 0 0 Z " fill="#FDFDFD" transform="translate(144,448)"/>
<path d="M0 0 C2.875 1.4375 2.875 1.4375 5 4 C5.91181761 8.32122258 5.80084338 11.76793326 3.375 15.5 C0.43125008 17.35921047 -1.51270927 17.9288308 -5 18 C-7.32731556 16.86220128 -9.16840714 15.83159286 -11 14 C-11.4311661 10.6184259 -11.47253855 7.3775767 -11 4 C-7.81276081 0.06282218 -4.96287606 -0.82714601 0 0 Z " fill="#000000" transform="translate(91,414)"/>
<path d="M0 0 C2.875 1.4375 2.875 1.4375 5 4 C5.91181761 8.32122258 5.80084338 11.76793326 3.375 15.5 C0.43125008 17.35921047 -1.51270927 17.9288308 -5 18 C-7.32731556 16.86220128 -9.16840714 15.83159286 -11 14 C-11.4311661 10.6184259 -11.47253855 7.3775767 -11 4 C-7.81276081 0.06282218 -4.96287606 -0.82714601 0 0 Z " fill="#000000" transform="translate(91,382)"/>
<path d="M0 0 C2.875 1.4375 2.875 1.4375 5 4 C5.91181761 8.32122258 5.80084338 11.76793326 3.375 15.5 C0.43125008 17.35921047 -1.51270927 17.9288308 -5 18 C-7.32731556 16.86220128 -9.16840714 15.83159286 -11 14 C-11.4311661 10.6184259 -11.47253855 7.3775767 -11 4 C-7.81276081 0.06282218 -4.96287606 -0.82714601 0 0 Z " fill="#000000" transform="translate(91,350)"/>
<path d="M0 0 C2.5 1.5 2.5 1.5 4 4 C4.58651804 8.61882953 4.57342659 10.85314682 2.5 15 C-0.54178658 17.43342926 -2.21678629 17.52786271 -6 17.46875 C-8.66677058 16.84372564 -10.06095306 15.93479464 -12 14 C-13.00769037 9.56171668 -12.75975802 5.32957653 -10.5 1.375 C-6.94404627 -0.58077455 -3.96588387 -0.78017388 0 0 Z " fill="#000000" transform="translate(428,144)"/>
<path d="M0 0 C2.5 1.5 2.5 1.5 4 4 C4.58651804 8.61882953 4.57342659 10.85314682 2.5 15 C-0.54178658 17.43342926 -2.21678629 17.52786271 -6 17.46875 C-8.66677058 16.84372564 -10.06095306 15.93479464 -12 14 C-13.00769037 9.56171668 -12.75975802 5.32957653 -10.5 1.375 C-6.94404627 -0.58077455 -3.96588387 -0.78017388 0 0 Z " fill="#000000" transform="translate(428,112)"/>
<path d="M0 0 C2.5 1.5 2.5 1.5 4 4 C4.58651804 8.61882953 4.57342659 10.85314682 2.5 15 C-0.54178658 17.43342926 -2.21678629 17.52786271 -6 17.46875 C-8.66677058 16.84372564 -10.06095306 15.93479464 -12 14 C-13.00769037 9.56171668 -12.75975802 5.32957653 -10.5 1.375 C-6.94404627 -0.58077455 -3.96588387 -0.78017388 0 0 Z " fill="#000000" transform="translate(428,80)"/>
</svg>
