<?xml version="1.0" encoding="UTF-8"?>
<svg version="1.1" xmlns="http://www.w3.org/2000/svg" width="512" height="512">
<path d="M0 0 C0.90548901 -0.00507454 1.81097801 -0.01014909 2.74390608 -0.0153774 C3.73999292 -0.01587516 4.73607975 -0.01637292 5.76235104 -0.01688576 C6.81958227 -0.02126801 7.8768135 -0.02565027 8.96608204 -0.03016531 C12.52650497 -0.04357334 16.08690314 -0.04973672 19.64734554 -0.0558567 C22.1931078 -0.06375616 24.73886893 -0.07202501 27.28462887 -0.08063698 C34.93791881 -0.10461149 42.59120755 -0.1197888 50.2445232 -0.13269705 C52.40679086 -0.13640957 54.56905789 -0.14038276 56.73132491 -0.14444971 C70.16284912 -0.16968965 83.59437436 -0.19173969 97.02591705 -0.20417786 C100.13703128 -0.20710749 103.24814546 -0.21006916 106.35925961 -0.21308327 C107.13249984 -0.21382932 107.90574007 -0.21457537 108.70241182 -0.21534403 C121.22119676 -0.22799062 133.73983945 -0.2612042 146.25855792 -0.3028851 C159.11598322 -0.34534211 171.97333579 -0.36887733 184.83083099 -0.37409842 C192.04789394 -0.37750856 199.2647347 -0.38921635 206.48172855 -0.42220116 C213.27384342 -0.45319334 220.06550396 -0.45859743 226.8577013 -0.4468174 C229.34814426 -0.44659656 231.83860512 -0.45490971 234.32898617 -0.47247124 C237.73489202 -0.49517771 241.13939622 -0.48685921 244.54531002 -0.47098732 C246.0160177 -0.49181045 246.0160177 -0.49181045 247.51643664 -0.51305425 C255.79199425 -0.41834318 262.15961579 2.22163086 268.47327328 7.57451439 C276.13029164 16.80797771 276.89615898 24.0850033 276.86569881 35.71153831 C276.87022993 36.97974285 276.87476104 38.24794738 276.87942946 39.55458236 C276.89163238 43.06344597 276.8914022 46.57221405 276.88904071 50.08109403 C276.88863185 53.86991604 276.89967826 57.65870769 276.90915585 61.44751549 C276.92575212 68.86647934 276.93126478 76.28541142 276.9323806 83.70439228 C276.93333176 89.7367446 276.93744544 95.76908646 276.94378185 101.80143547 C276.96139078 118.91433278 276.97062131 136.02720504 276.9691209 153.14011148 C276.96904099 154.06221932 276.96896108 154.98432716 276.96887875 155.93437767 C276.96879698 156.85761494 276.96871522 157.78085221 276.96863098 158.73206636 C276.96781826 173.69100889 276.98695347 188.64985069 277.01515548 203.60876408 C277.04390244 218.97834465 277.05769477 234.34787611 277.05596793 249.71748424 C277.05530464 258.34236897 277.06077018 266.96714811 277.08232403 275.59200859 C277.10055973 282.93601815 277.10486362 290.27987426 277.09130518 297.62389669 C277.08478743 301.3681082 277.08461472 305.11202551 277.10201168 308.8562088 C277.1207105 312.92254572 277.10815687 316.98820523 277.0927496 321.05455589 C277.10303672 322.22782472 277.11332385 323.40109354 277.12392271 324.60991597 C277.05244814 333.16517989 275.60147147 341.46104013 270.41077328 348.51201439 C265.05872709 353.5072575 258.63328749 357.25425904 251.19375324 357.27123547 C250.28764754 357.27569331 249.38154183 357.28015115 248.44797838 357.28474408 C247.45120942 357.28455972 246.45444047 357.28437536 245.42746639 357.28418541 C244.3695296 357.2878621 243.3115928 357.29153879 242.22159731 357.29532689 C238.65883732 357.30638399 235.09610647 357.31021102 231.53333187 357.31401634 C228.9859473 357.32027948 226.43856364 357.32692615 223.89118099 357.33392906 C216.23344309 357.35317154 208.5757103 357.36375992 200.91795439 357.37265685 C197.31089087 357.37704064 193.70382883 357.38240726 190.09676647 357.38764572 C178.10411986 357.40465868 166.11147416 357.41915212 154.11881733 357.42639446 C151.00666331 357.42830433 147.8945093 357.43022467 144.78235531 357.4321804 C144.00885277 357.43266414 143.23535022 357.43314789 142.43840821 357.43364628 C129.91250498 357.44194383 117.38669734 357.46727575 104.86083584 357.49976108 C91.99776432 357.53284863 79.13474136 357.5508448 66.27162707 357.5540387 C59.05072041 357.55620237 51.82995309 357.56492972 44.60908794 357.59049988 C37.81455609 357.61450481 31.02031812 357.61802192 24.22573757 357.60773849 C21.73326821 357.60724252 19.2407866 357.61358097 16.74835491 357.62729454 C13.34226337 357.64498494 9.93707424 357.63792027 6.53098202 357.62476158 C5.54759739 357.63573083 4.56421277 357.64670007 3.55102861 357.65800172 C-4.83912079 357.57989508 -12.35084208 355.18789903 -18.40172672 349.13701439 C-25.03350023 340.30109459 -25.69740841 332.34776072 -25.66915226 321.56249046 C-25.67368337 320.29428593 -25.67821449 319.0260814 -25.68288291 317.71944642 C-25.69508583 314.21058281 -25.69485565 310.70181473 -25.69249415 307.19293475 C-25.6920853 303.40411274 -25.70313171 299.61532108 -25.71260929 295.82651329 C-25.72920556 288.40754943 -25.73471822 280.98861736 -25.73583405 273.56963649 C-25.7367852 267.53728417 -25.74089888 261.50494232 -25.7472353 255.47259331 C-25.76484422 238.35969599 -25.77407475 221.24682374 -25.77257435 204.1339173 C-25.77249444 203.21180946 -25.77241453 202.28970161 -25.77233219 201.33965111 C-25.77225043 200.41641384 -25.77216867 199.49317657 -25.77208443 198.54196241 C-25.7712717 183.58301989 -25.79040691 168.62417809 -25.81860892 153.6652647 C-25.84735589 138.29568413 -25.86114821 122.92615267 -25.85942137 107.55654454 C-25.85875808 98.93165981 -25.86422363 90.30688067 -25.88577747 81.68202019 C-25.90401317 74.33801063 -25.90831707 66.99415452 -25.89475863 59.65013209 C-25.88824088 55.90592058 -25.88806817 52.16200327 -25.90546513 48.41781998 C-25.92416394 44.35148306 -25.91161032 40.28582355 -25.89620304 36.21947289 C-25.90649017 35.04620406 -25.91677729 33.87293523 -25.92737615 32.66411281 C-25.85536636 24.04478374 -24.10738573 16.81988574 -19.77672672 9.32451439 C-14.28455387 4.26593413 -7.59743928 0.02260674 0 0 Z " fill="#E47C92" transform="translate(231.40172672271729,154.8629856109619)"/>
<path d="M0 0 C1.62526863 -0.0129007 1.62526863 -0.0129007 3.28337097 -0.02606201 C5.06702057 -0.03245193 5.06702057 -0.03245193 6.88670349 -0.03897095 C8.13904282 -0.04714844 9.39138214 -0.05532593 10.68167114 -0.06375122 C14.83782126 -0.08861971 18.99393494 -0.10528149 23.15013123 -0.11953735 C24.583465 -0.1248989 26.01679871 -0.13027642 27.45013237 -0.13566971 C33.41647374 -0.15729952 39.38281243 -0.17603257 45.34918308 -0.1872921 C53.88369448 -0.20350636 62.41774881 -0.23662086 70.95208794 -0.29369295 C76.96074749 -0.33249564 82.96928537 -0.35193722 88.97806686 -0.35721266 C92.56230268 -0.3608535 96.14605076 -0.37273697 99.73015022 -0.4053154 C103.73703412 -0.44121348 107.74294666 -0.43699916 111.74998474 -0.42959595 C112.92491486 -0.44600128 114.09984497 -0.46240662 115.31037903 -0.47930908 C123.76730821 -0.41554409 130.57333828 1.27993219 136.91323185 7.13062477 C143.75869831 14.36795708 145.888258 22.13809464 145.90493774 32.00918579 C145.91133522 33.72898903 145.91133522 33.72898903 145.91786194 35.48353577 C145.91740875 36.72730484 145.91695557 37.97107391 145.91648865 39.25253296 C145.91948367 40.58693027 145.92288699 41.92132672 145.92666626 43.25572205 C145.93547679 46.86956395 145.93784317 50.48338216 145.93848205 54.09723377 C145.93919437 56.35906277 145.94133216 58.6208858 145.94397926 60.88271332 C145.95322383 68.78512452 145.95731537 76.68751888 145.95652771 84.5899353 C145.95592757 91.9368858 145.96646921 99.28376273 145.98227137 106.63069463 C145.9953827 112.95364069 146.00071008 119.27656281 146.0000723 125.59952235 C145.99981831 129.36909115 146.00261421 133.13859456 146.01325035 136.90814972 C146.02299169 140.45733589 146.02296954 144.00639498 146.01573372 147.55558586 C146.01420361 149.46444699 146.0224928 151.37330827 146.03117371 153.28215027 C145.99166756 164.18712666 145.32298891 173.76839582 137.77122498 182.15390015 C129.23534459 189.2849487 121.51663868 190.45208638 110.66648865 190.42855835 C109.45111923 190.43366928 108.23574982 190.43878021 106.98355103 190.44404602 C103.66101141 190.45554224 100.33872177 190.458019 97.0161798 190.45548272 C94.23563553 190.45440996 91.45511404 190.45930435 88.67457467 190.46408814 C82.10968739 190.47517035 75.54485732 190.47562849 68.97996521 190.46957397 C62.22483895 190.46353939 55.46992126 190.47583492 48.71483058 190.49714404 C42.90059088 190.51480564 37.08641728 190.52075411 31.27215177 190.5175063 C27.80607353 190.51569999 24.34014396 190.51826366 20.87409019 190.53222084 C17.00402644 190.54722248 13.13422458 190.53778928 9.2641449 190.5262146 C8.1277356 190.53385834 6.99132629 190.54150208 5.82048035 190.54937744 C-4.53010816 190.48113482 -11.69889125 188.53840149 -19.27955627 181.34140015 C-25.21573702 174.67955402 -26.34793432 167.67106035 -26.3740387 158.94857788 C-26.37739731 158.24226227 -26.38075592 157.53594666 -26.38421631 156.80822754 C-26.39367855 154.48463155 -26.39566671 152.16110792 -26.39674377 149.8374939 C-26.39995849 148.21754426 -26.40332273 146.59759491 -26.40682983 144.97764587 C-26.41280843 141.5875786 -26.41467092 138.19753677 -26.41407776 134.8074646 C-26.41397594 130.46404897 -26.42765369 126.12079609 -26.44484997 121.77741909 C-26.45596536 118.43427276 -26.45799715 115.09116593 -26.45746803 111.74800301 C-26.45864786 110.14642842 -26.4630698 108.5448528 -26.4708004 106.94329643 C-26.48059563 104.70535699 -26.47772477 102.46777303 -26.47169495 100.22982788 C-26.47311996 98.95695419 -26.47454498 97.68408051 -26.47601318 96.37263489 C-26.09932989 91.46868477 -26.09932989 91.46868477 -24.22877502 89.15390015 C-21.25877502 88.16390015 -21.25877502 88.16390015 -18.22877502 87.15390015 C-18.22877502 80.88390015 -18.22877502 74.61390015 -18.22877502 68.15390015 C-19.87877502 67.82390015 -21.52877502 67.49390015 -23.22877502 67.15390015 C-26.14672364 64.67725485 -26.23962407 63.04780234 -26.63282776 59.20248413 C-26.65936656 57.60184376 -26.6681013 56.000844 -26.66236877 54.3999939 C-26.66761063 53.5439003 -26.67285248 52.6878067 -26.67825317 51.80577087 C-26.68467214 49.99270713 -26.68333798 48.17960173 -26.67481995 46.36654663 C-26.66637836 43.62496164 -26.6949598 40.88551007 -26.7268219 38.14413452 C-26.76896072 27.46906846 -26.05780318 18.78106426 -20.60377502 9.34140015 C-14.73500545 3.93595449 -8.04507923 0.04754382 0 0 Z " fill="#FDB3C3" transform="translate(30.228775024414063,154.84609985351563)"/>
<path d="M0 0 C1.50438887 -0.01658356 3.00869819 -0.04390588 4.51269531 -0.08203125 C6.687669 -0.13682848 8.86080591 -0.1586705 11.03637695 -0.17333984 C12.33696045 -0.19315918 13.63754395 -0.21297852 14.97753906 -0.23339844 C18.3215332 0.35009766 18.3215332 0.35009766 20.77685547 2.7578125 C22.3215332 5.35009766 22.3215332 5.35009766 22.3215332 7.35009766 C28.5915332 7.35009766 34.8615332 7.35009766 41.3215332 7.35009766 C41.9815332 5.70009766 42.6415332 4.05009766 43.3215332 2.35009766 C46.13783238 -0.46620152 47.96072057 0.07793325 51.9074707 0.04370117 C52.58420334 0.03537766 53.26093597 0.02705414 53.95817566 0.01847839 C56.20435294 -0.00568856 58.4502395 -0.01440584 60.6965332 -0.02099609 C62.26155687 -0.0299642 63.82657965 -0.03908608 65.39160156 -0.0483551 C68.68027833 -0.06487053 71.96885308 -0.07254863 75.25756836 -0.07543945 C79.44949306 -0.08079648 83.64044171 -0.11835237 87.83209229 -0.16418362 C91.07000101 -0.19410994 94.30768041 -0.20116651 97.54571533 -0.2021656 C99.08933944 -0.20634463 100.6329657 -0.21868489 102.17645264 -0.23968315 C112.19066518 -0.3649615 120.73519528 0.16224041 128.45019531 7.32691956 C135.90252739 15.14732935 137.47361656 23.56145517 137.46679688 34.14038086 C137.47015549 34.89733246 137.4735141 35.65428406 137.47697449 36.43417358 C137.48643093 38.92309231 137.48842497 41.41194336 137.48950195 43.90087891 C137.4927184 45.64194262 137.49608276 47.38300606 137.49958801 49.12406921 C137.50556614 52.76964952 137.50742928 56.41520616 137.50683594 60.06079102 C137.50673443 64.71419887 137.52038057 69.36745374 137.53760815 74.02082539 C137.54876995 77.61637559 137.55075386 81.21188931 137.55022621 84.80745506 C137.55140026 86.52212234 137.55578948 88.23679074 137.56355858 89.95144081 C137.66479654 114.6037435 137.66479654 114.6037435 128.68481445 124.07666016 C120.93643111 131.1459717 113.91535272 131.79310634 103.73608398 131.75415039 C102.48155426 131.76101364 101.22702454 131.76787689 99.93447876 131.77494812 C96.50859396 131.79007171 93.08325522 131.7917215 89.65737772 131.78600574 C86.78978744 131.78290532 83.92224591 131.78901592 81.05466259 131.79504448 C74.28501665 131.80907064 67.51549696 131.80754493 60.74584961 131.79614258 C53.77989669 131.78466829 46.81432909 131.79872949 39.84842694 131.82553905 C33.85156435 131.84774838 27.85482225 131.85432155 21.85792148 131.84846264 C18.28339271 131.84510369 14.70911075 131.84743655 11.13461685 131.86471367 C7.14475647 131.88315821 3.15563775 131.86894225 -0.83422852 131.85180664 C-2.59259033 131.86630859 -2.59259033 131.86630859 -4.38647461 131.88110352 C-13.38380626 131.80037975 -21.13924764 129.88931681 -27.6784668 123.35009766 C-33.14143386 116.07145058 -34.97983589 108.92680173 -34.96899414 99.92724609 C-34.97571136 99.11483963 -34.98242859 98.30243317 -34.98934937 97.46540833 C-35.00824678 94.79669976 -35.01224957 92.12824385 -35.0144043 89.45947266 C-35.02083868 87.59010722 -35.02756751 85.72074277 -35.03457642 83.85137939 C-35.04652908 79.93767973 -35.05025938 76.02406819 -35.04907227 72.11035156 C-35.04886936 67.11957529 -35.07615128 62.12937025 -35.11061668 57.1387291 C-35.1329642 53.2780096 -35.13690738 49.41742578 -35.13585281 45.55664825 C-35.13819774 43.71802048 -35.14695809 41.87938832 -35.16251755 40.04082489 C-35.2487509 28.79745769 -34.82504363 19.52686525 -29.0534668 9.53759766 C-20.12257702 1.31177812 -11.67071832 0.09433459 0 0 Z " fill="#EC9AAB" transform="translate(38.678466796875,380.64990234375)"/>
<path d="M0 0 C0.90548901 -0.00507454 1.81097801 -0.01014909 2.74390608 -0.0153774 C3.73999292 -0.01587516 4.73607975 -0.01637292 5.76235104 -0.01688576 C6.81958227 -0.02126801 7.8768135 -0.02565027 8.96608204 -0.03016531 C12.52650497 -0.04357334 16.08690314 -0.04973672 19.64734554 -0.0558567 C22.1931078 -0.06375616 24.73886893 -0.07202501 27.28462887 -0.08063698 C34.93791881 -0.10461149 42.59120755 -0.1197888 50.2445232 -0.13269705 C52.40679086 -0.13640957 54.56905789 -0.14038276 56.73132491 -0.14444971 C70.16284912 -0.16968965 83.59437436 -0.19173969 97.02591705 -0.20417786 C100.13703128 -0.20710749 103.24814546 -0.21006916 106.35925961 -0.21308327 C107.13249984 -0.21382932 107.90574007 -0.21457537 108.70241182 -0.21534403 C121.22119676 -0.22799062 133.73983945 -0.2612042 146.25855792 -0.3028851 C159.11598322 -0.34534211 171.97333579 -0.36887733 184.83083099 -0.37409842 C192.04789394 -0.37750856 199.2647347 -0.38921635 206.48172855 -0.42220116 C213.27384342 -0.45319334 220.06550396 -0.45859743 226.8577013 -0.4468174 C229.34814426 -0.44659656 231.83860512 -0.45490971 234.32898617 -0.47247124 C237.73489202 -0.49517771 241.13939622 -0.48685921 244.54531002 -0.47098732 C246.0160177 -0.49181045 246.0160177 -0.49181045 247.51643664 -0.51305425 C255.79199425 -0.41834318 262.15961579 2.22163086 268.47327328 7.57451439 C276.13029164 16.80797771 276.89615898 24.0850033 276.86569881 35.71153831 C276.87022993 36.97974285 276.87476104 38.24794738 276.87942946 39.55458236 C276.89163238 43.06344597 276.8914022 46.57221405 276.88904071 50.08109403 C276.88863185 53.86991604 276.89967826 57.65870769 276.90915585 61.44751549 C276.92575212 68.86647934 276.93126478 76.28541142 276.9323806 83.70439228 C276.93333176 89.7367446 276.93744544 95.76908646 276.94378185 101.80143547 C276.96139078 118.91433278 276.97062131 136.02720504 276.9691209 153.14011148 C276.96904099 154.06221932 276.96896108 154.98432716 276.96887875 155.93437767 C276.96879698 156.85761494 276.96871522 157.78085221 276.96863098 158.73206636 C276.96781826 173.69100889 276.98695347 188.64985069 277.01515548 203.60876408 C277.04390244 218.97834465 277.05769477 234.34787611 277.05596793 249.71748424 C277.05530464 258.34236897 277.06077018 266.96714811 277.08232403 275.59200859 C277.10055973 282.93601815 277.10486362 290.27987426 277.09130518 297.62389669 C277.08478743 301.3681082 277.08461472 305.11202551 277.10201168 308.8562088 C277.1207105 312.92254572 277.10815687 316.98820523 277.0927496 321.05455589 C277.10303672 322.22782472 277.11332385 323.40109354 277.12392271 324.60991597 C277.05244814 333.16517989 275.60147147 341.46104013 270.41077328 348.51201439 C265.05872709 353.5072575 258.63328749 357.25425904 251.19375324 357.27123547 C250.28764754 357.27569331 249.38154183 357.28015115 248.44797838 357.28474408 C247.45120942 357.28455972 246.45444047 357.28437536 245.42746639 357.28418541 C244.3695296 357.2878621 243.3115928 357.29153879 242.22159731 357.29532689 C238.65883732 357.30638399 235.09610647 357.31021102 231.53333187 357.31401634 C228.9859473 357.32027948 226.43856364 357.32692615 223.89118099 357.33392906 C216.23344309 357.35317154 208.5757103 357.36375992 200.91795439 357.37265685 C197.31089087 357.37704064 193.70382883 357.38240726 190.09676647 357.38764572 C178.10411986 357.40465868 166.11147416 357.41915212 154.11881733 357.42639446 C151.00666331 357.42830433 147.8945093 357.43022467 144.78235531 357.4321804 C144.00885277 357.43266414 143.23535022 357.43314789 142.43840821 357.43364628 C129.91250498 357.44194383 117.38669734 357.46727575 104.86083584 357.49976108 C91.99776432 357.53284863 79.13474136 357.5508448 66.27162707 357.5540387 C59.05072041 357.55620237 51.82995309 357.56492972 44.60908794 357.59049988 C37.81455609 357.61450481 31.02031812 357.61802192 24.22573757 357.60773849 C21.73326821 357.60724252 19.2407866 357.61358097 16.74835491 357.62729454 C13.34226337 357.64498494 9.93707424 357.63792027 6.53098202 357.62476158 C5.54759739 357.63573083 4.56421277 357.64670007 3.55102861 357.65800172 C-4.83912079 357.57989508 -12.35084208 355.18789903 -18.40172672 349.13701439 C-25.03350023 340.30109459 -25.69740841 332.34776072 -25.66915226 321.56249046 C-25.67368337 320.29428593 -25.67821449 319.0260814 -25.68288291 317.71944642 C-25.69508583 314.21058281 -25.69485565 310.70181473 -25.69249415 307.19293475 C-25.6920853 303.40411274 -25.70313171 299.61532108 -25.71260929 295.82651329 C-25.72920556 288.40754943 -25.73471822 280.98861736 -25.73583405 273.56963649 C-25.7367852 267.53728417 -25.74089888 261.50494232 -25.7472353 255.47259331 C-25.76484422 238.35969599 -25.77407475 221.24682374 -25.77257435 204.1339173 C-25.77249444 203.21180946 -25.77241453 202.28970161 -25.77233219 201.33965111 C-25.77225043 200.41641384 -25.77216867 199.49317657 -25.77208443 198.54196241 C-25.7712717 183.58301989 -25.79040691 168.62417809 -25.81860892 153.6652647 C-25.84735589 138.29568413 -25.86114821 122.92615267 -25.85942137 107.55654454 C-25.85875808 98.93165981 -25.86422363 90.30688067 -25.88577747 81.68202019 C-25.90401317 74.33801063 -25.90831707 66.99415452 -25.89475863 59.65013209 C-25.88824088 55.90592058 -25.88806817 52.16200327 -25.90546513 48.41781998 C-25.92416394 44.35148306 -25.91161032 40.28582355 -25.89620304 36.21947289 C-25.90649017 35.04620406 -25.91677729 33.87293523 -25.92737615 32.66411281 C-25.85536636 24.04478374 -24.10738573 16.81988574 -19.77672672 9.32451439 C-14.28455387 4.26593413 -7.59743928 0.02260674 0 0 Z M-8.40172672 21.13701439 C-9.66315856 23.65987806 -9.5329024 25.39544808 -9.54153442 28.22055912 C-9.54722567 29.30356035 -9.55291691 30.38656158 -9.55878061 31.50238103 C-9.55996049 32.70186543 -9.56114036 33.90134982 -9.562356 35.13718224 C-9.56744381 36.40393691 -9.57253163 37.67069158 -9.57777363 38.97583276 C-9.59170585 42.50368581 -9.59927069 46.03152852 -9.60574663 49.55940211 C-9.6121103 52.58248386 -9.62218144 55.60554855 -9.63230728 58.62861969 C-9.6656586 68.5902408 -9.68715796 78.55187228 -9.70550713 88.51353094 C-9.7103008 91.10684255 -9.71528429 93.70015373 -9.72031236 96.2934649 C-9.75128263 112.39119697 -9.77797337 128.48893261 -9.79473114 144.58668613 C-9.79868077 148.31675981 -9.80268374 152.04683342 -9.80675602 155.77690697 C-9.80776438 156.70402099 -9.80877274 157.631135 -9.80981166 158.58634339 C-9.82682018 173.60654321 -9.86793011 188.62657832 -9.91877901 203.64669772 C-9.97053482 219.06129352 -9.99967074 234.47580457 -10.00692803 249.89048654 C-10.01159292 258.54781041 -10.02637158 267.20486458 -10.06667233 275.86210251 C-10.10095185 283.23492814 -10.11492021 290.60743545 -10.10224818 297.98033621 C-10.09641623 301.74239551 -10.10032141 305.50378142 -10.13041782 309.26573944 C-10.16278586 313.34493299 -10.14864894 317.42264955 -10.12998295 321.50192833 C-10.14677788 322.69025912 -10.16357281 323.87858991 -10.18087667 325.10293072 C-10.1072503 331.52635744 -9.52781782 335.33509297 -4.88393646 339.95231038 C-2.2549479 342.0536144 -0.49997874 342.26449434 2.79162788 342.27682209 C3.67607557 342.28251333 4.56052325 342.28820457 5.47177237 342.29406828 C6.44947272 342.29524815 7.42717306 342.29642803 8.43450069 342.29764366 C9.46849288 342.30273148 10.50248507 342.3078193 11.56781036 342.3130613 C15.05542095 342.32884002 18.54301075 342.3373251 22.03064632 342.34575462 C24.52201629 342.35528868 27.01338492 342.36517964 29.50475216 342.37540245 C36.99826137 342.40412372 44.4917703 342.42387681 51.98531339 342.4407948 C54.1015893 342.4455891 56.21786469 342.45057251 58.33414006 342.45560002 C71.47352102 342.48657183 84.61290637 342.51325981 97.75231361 342.53001881 C100.79658866 342.53396837 103.84086363 342.53797135 106.88513851 342.54204369 C107.64178749 342.54305205 108.39843646 342.54406041 109.1780142 342.54509933 C121.43379245 342.56210424 133.68936871 342.60321033 145.94504835 342.65406667 C158.52557293 342.70584181 171.10599364 342.73496096 183.68662387 342.74221569 C190.75107097 342.74687826 197.81518737 342.76163213 204.879529 342.80195999 C211.52551011 342.83985324 218.17102985 342.84725808 224.81713963 342.83395386 C227.25724831 342.83400792 229.69738158 342.84434995 232.13739681 342.86570549 C235.46799267 342.89329847 238.79651606 342.8839159 242.12712765 342.86527061 C243.09367438 342.88206554 244.06022112 342.89886047 245.05605716 342.91616434 C250.95004987 342.83366039 254.07549758 341.75185691 258.33749324 337.61922413 C260.76233184 334.76851323 260.72691145 332.70906256 260.73808098 329.05346966 C260.74377222 327.97046843 260.74946346 326.8874672 260.75532717 325.77164775 C260.75709698 323.97242115 260.75709698 323.97242115 260.75890255 322.13684654 C260.76399037 320.87009187 260.76907819 319.6033372 260.77432019 318.29819602 C260.7882524 314.77034297 260.79581725 311.24250026 260.80229318 307.71462667 C260.80865685 304.69154492 260.81872799 301.66848022 260.82885384 298.64540908 C260.86220515 288.68378798 260.88370451 278.7221565 260.90205368 268.76049784 C260.90684736 266.16718623 260.91183084 263.57387504 260.91685891 260.98056388 C260.94782918 244.88283181 260.97451992 228.78509617 260.99127769 212.68734264 C260.99522732 208.95726897 260.9992303 205.22719536 261.00330257 201.49712181 C261.00481512 200.10645078 261.00481512 200.10645078 261.00635821 198.68768539 C261.02336673 183.66748557 261.06447666 168.64745045 261.11532556 153.62733106 C261.16708138 138.21273526 261.19621729 122.79822421 261.20347458 107.38354224 C261.20813948 98.72621837 261.22291813 90.06916419 261.26321888 81.41192627 C261.29749841 74.03910064 261.31146676 66.66659333 261.29879474 59.29369257 C261.29296279 55.53163327 261.29686797 51.77024736 261.32696438 48.00828934 C261.35933241 43.92909579 261.34519549 39.85137922 261.3265295 35.77210045 C261.34332443 34.58376966 261.36011936 33.39543887 261.37742323 32.17109805 C261.30434044 25.79509549 260.73333949 21.95269229 256.17813927 17.32171839 C253.34111086 15.19429813 250.71168184 15.01005078 247.29748821 14.99720669 C245.97305521 14.98866983 245.97305521 14.98866983 244.62186599 14.9799605 C243.65096943 14.97878062 242.68007288 14.97760075 241.67975521 14.97638512 C240.13361062 14.96875339 240.13361062 14.96875339 238.55623078 14.96096748 C235.0855458 14.94521055 231.61488168 14.93670941 228.14417171 14.92827415 C225.66250634 14.91873843 223.1808423 14.9088474 220.69917965 14.89862633 C213.24020041 14.86992513 205.78122147 14.85015716 198.32220829 14.83323398 C196.21547147 14.82843845 194.10873518 14.8234552 192.0019989 14.81842875 C178.91909387 14.78745961 165.8361844 14.76077489 152.75325298 14.74400997 C149.72324014 14.74006049 146.69322737 14.73605749 143.66321468 14.73198509 C142.91012182 14.73097673 142.15702896 14.72996837 141.38111511 14.72892945 C129.18036551 14.71192102 116.97981869 14.67080919 104.7791681 14.6199621 C92.25285247 14.56818716 79.72664113 14.53906801 67.20021939 14.53181309 C60.16708567 14.52715092 53.13428414 14.51240097 46.10125637 14.47206879 C39.4856302 14.43417617 32.87046753 14.42677054 26.2547121 14.44007492 C23.82589037 14.44002086 21.39704392 14.42967938 18.96831608 14.40832329 C15.65309732 14.38072922 12.3399605 14.39011325 9.02472591 14.40875816 C7.58176541 14.38356577 7.58176541 14.38356577 6.10965419 14.35786444 C-0.44552758 14.45004481 -4.11571915 16.10453071 -8.40172672 21.13701439 Z " fill="#020101" transform="translate(231.40172672271729,154.8629856109619)"/>
<path d="M0 0 C14.35267173 10.73417536 23.95865222 25.011994 27.53125 42.68359375 C29.96577235 59.90783939 25.96952276 77.0357399 15.8125 91.1875 C5.11981463 104.63223718 -9.5793924 114.84076705 -27 117 C-45.68860783 118.58332159 -63.01927426 114.55958946 -77.71777344 102.29394531 C-87.79436899 93.37336455 -94.04150566 82.68716669 -97.83203125 69.86328125 C-99.12680749 66.68913081 -100.03296133 65.63982359 -103 64 C-104.32 63.67 -105.64 63.34 -107 63 C-107 56.73 -107 50.46 -107 44 C-104.69 43.01 -102.38 42.02 -100 41 C-98.11597408 37.83740178 -98.11597408 37.83740178 -97 34.0625 C-96.51086228 32.70190625 -96.01464426 31.34383906 -95.51171875 29.98828125 C-95.26341309 29.31361816 -95.01510742 28.63895508 -94.75927734 27.94384766 C-88.33788427 11.50425547 -75.19711351 0.76795449 -59.61328125 -6.6015625 C-40.31550136 -14.20178824 -17.25593423 -11.24896651 0 0 Z " fill="#FCFBFB" transform="translate(393,235)"/>
<path d="M0 0 C32.14558421 -0.06841817 64.29114774 -0.12151888 96.43678774 -0.15319599 C100.23072645 -0.15694817 104.02466502 -0.16083113 107.81860352 -0.16479492 C108.5739175 -0.16558185 109.32923149 -0.16636878 110.10743377 -0.16717956 C122.3419797 -0.18023822 134.57648339 -0.20389459 146.81100424 -0.23145839 C159.36207348 -0.2594998 171.91312059 -0.27617358 184.46421987 -0.28226548 C192.21072001 -0.28638456 199.9571008 -0.29940052 207.7035642 -0.3237494 C213.64068635 -0.341462 219.57774702 -0.34336881 225.51489639 -0.33932304 C227.95260288 -0.34015025 230.39031377 -0.34614238 232.82799339 -0.35761642 C236.15011992 -0.37249012 239.47173116 -0.36897202 242.79386902 -0.36076355 C243.76371473 -0.36950207 244.73356044 -0.3782406 245.73279542 -0.38724393 C250.62576078 -0.3544515 254.10980455 -0.29681775 258 3 C258.75237127 3.63193079 259.50474255 4.26386158 260.27991295 4.91494179 C263.03596497 9.85805262 262.55672314 14.79519569 262.52139282 20.3609314 C262.52904392 21.63024934 262.53669501 22.89956729 262.54457796 24.20734942 C262.56516561 27.72855216 262.56076773 31.24934827 262.55221677 34.77058458 C262.54728717 38.56893859 262.56530448 42.36719405 262.58029175 46.16551208 C262.6058041 53.60616545 262.60937086 61.04667454 262.60469122 68.48736428 C262.60112648 74.53506611 262.60462068 80.5827241 262.61314011 86.63042068 C262.61433048 87.49085952 262.61552086 88.35129836 262.61674731 89.2378111 C262.61917079 90.98575031 262.62159906 92.73368953 262.62403207 94.48162873 C262.64579038 110.87794716 262.64145473 127.27418336 262.62926237 143.67050643 C262.61892433 158.67113796 262.64143257 173.67150972 262.67945881 188.67208986 C262.7182013 204.07324558 262.73473009 219.47427837 262.72721231 234.87548316 C262.72338588 243.52267034 262.72838622 252.16963644 262.75664139 260.81678391 C262.78045303 268.17859384 262.78329743 275.54004664 262.75906105 282.90186141 C262.74727143 286.6578398 262.74511544 290.4131647 262.76906586 294.16909981 C262.79473315 298.24161975 262.7738843 302.31258037 262.7484436 306.38510132 C262.76319217 307.57138575 262.77794074 308.75767018 262.79313624 309.97990263 C262.70861334 316.39657832 262.11802677 320.2014847 257.48150003 324.81458628 C254.85349897 326.9173662 253.09815145 327.12748033 249.80664539 327.1398077 C248.92219771 327.14549894 248.03775003 327.15119018 247.1265009 327.15705389 C246.14880056 327.15823376 245.17110021 327.15941364 244.16377258 327.16062927 C242.6127843 327.168261 242.6127843 327.168261 241.03046292 327.17604691 C237.54285233 327.19182563 234.05526252 327.20031072 230.56762695 327.20874023 C228.07625698 327.21827429 225.58488836 327.22816525 223.09352112 327.23838806 C215.60001191 327.26710934 208.10650298 327.28686242 200.61295989 327.30378041 C198.49668398 327.30857471 196.38040859 327.31355812 194.26413321 327.31858563 C181.12475225 327.34955744 167.98536691 327.37624543 154.84595966 327.39300442 C151.80168462 327.39695398 148.75740965 327.40095696 145.71313477 327.4050293 C144.5781613 327.40654184 144.5781613 327.40654184 143.42025908 327.40808494 C131.16448083 327.42508985 118.90890457 327.46619594 106.65322492 327.51705229 C94.07270035 327.56882743 81.49227964 327.59794658 68.91164941 327.6052013 C61.84720231 327.60986387 54.78308591 327.62461774 47.71874428 327.6649456 C41.07276317 327.70283885 34.42724343 327.71024369 27.78113365 327.69693947 C25.34102497 327.69699353 22.9008917 327.70733557 20.46087646 327.7286911 C17.13028061 327.75628408 13.80175722 327.74690151 10.47114563 327.72825623 C9.50459889 327.74505115 8.53805215 327.76184608 7.54221612 327.77914995 C1.6482234 327.69664601 -1.4772243 326.61484252 -5.73921996 322.48220974 C-8.59133601 319.12917902 -8.10145161 316.15967736 -8.0625 311.875 C-8.05347656 310.59367187 -8.04445312 309.31234375 -8.03515625 307.9921875 C-8.02355469 307.00476563 -8.01195312 306.01734375 -8 305 C-6.80655472 304.99853344 -5.61310944 304.99706688 -4.38349915 304.99555588 C23.95771151 304.95984029 52.29883061 304.90357948 80.63994634 304.82207905 C84.12959271 304.8120618 87.61923955 304.80221764 91.10888672 304.79248047 C91.80360148 304.7905391 92.49831624 304.78859772 93.21408296 304.78659752 C104.45719644 304.75559134 115.70028952 304.73860074 126.9434377 304.72680578 C138.48322552 304.71438703 150.02289064 304.68657264 161.56261349 304.64538693 C168.04294868 304.62274529 174.52313126 304.60709096 181.00350952 304.60811615 C187.10368212 304.60886114 193.20351699 304.59097428 199.30360222 304.55883217 C201.54168088 304.55031724 203.77979736 304.54859401 206.01788521 304.55419731 C209.07644562 304.56083446 212.13393065 304.5429224 215.19238281 304.51898193 C216.07567103 304.52674235 216.95895926 304.53450277 217.86901379 304.54249835 C224.45711281 304.45136551 230.04834804 302.91405129 234.83984375 298.18359375 C235.20207031 297.60738281 235.56429687 297.03117187 235.9375 296.4375 C236.31777344 295.85871094 236.69804687 295.27992188 237.08984375 294.68359375 C238.85046422 291.42682369 239.12767367 288.74307231 239.1386652 285.11743641 C239.14413964 284.10476194 239.14961409 283.09208748 239.15525442 282.0487259 C239.15623253 280.93298037 239.15721064 279.81723484 239.15821838 278.66767883 C239.16315636 277.48496893 239.16809434 276.30225902 239.17318195 275.08370942 C239.1859111 271.79542342 239.19418557 268.50717994 239.20060861 265.2188791 C239.20860621 261.67491908 239.22230619 258.13098064 239.23532104 254.58703613 C239.25709288 248.44509366 239.27523478 242.30314902 239.29092598 236.16118813 C239.31361817 227.28089443 239.3417619 218.40062463 239.37124526 209.52035119 C239.41892915 195.11343152 239.46219118 180.70650209 239.50268555 166.29956055 C239.54203641 152.30280802 239.583473 138.30606422 239.62768555 124.30932617 C239.63043505 123.43807179 239.63318456 122.56681741 239.63601738 121.66916138 C239.65753596 114.85559354 239.67917569 108.04202609 239.70085371 101.22845876 C239.80711809 67.81899009 239.90281324 34.4094987 240 1 C160.8 1 81.6 1 0 1 C0 0.67 0 0.34 0 0 Z " fill="#DD647C" transform="translate(230,170)"/>
<path d="M0 0 C1.20275574 -0.0071553 2.40551147 -0.01431061 3.64471436 -0.02168274 C4.97964452 -0.02452299 6.31457496 -0.02723472 7.64950562 -0.02983093 C9.05404834 -0.03609689 10.45858941 -0.04274381 11.86312866 -0.04974365 C16.47859546 -0.07077625 21.09406254 -0.08114743 25.70956421 -0.09111023 C27.30017489 -0.09515852 28.8907854 -0.09927547 30.48139572 -0.10346031 C37.95703837 -0.12251269 45.43267116 -0.13674186 52.90833342 -0.14507228 C61.52716664 -0.15483585 70.14574244 -0.18113198 78.764485 -0.22157317 C85.43214907 -0.25178136 92.09973957 -0.26654573 98.76747072 -0.26985329 C102.74673472 -0.27219904 106.72572373 -0.2810967 110.70491409 -0.30631447 C114.45277775 -0.3296819 118.20018709 -0.33379401 121.94810486 -0.32355309 C123.96814885 -0.32282561 125.98817021 -0.34185713 128.00811768 -0.36161804 C135.33446269 -0.3199079 140.85683117 0.44511474 147.23300171 4.14717102 C148.0309314 4.59318665 148.82886108 5.03920227 149.65097046 5.49873352 C155.8496223 9.95957348 159.81935295 15.90622473 162.23300171 23.14717102 C163.0353868 33.99910057 162.39277688 43.14309997 155.48300171 51.95967102 C150.12252523 57.69917109 143.15877022 61.71656223 135.25812912 62.40723324 C134.2073682 62.41188375 133.15660728 62.41653425 132.07400513 62.42132568 C130.8601564 62.43130081 129.64630768 62.44127594 128.39567566 62.45155334 C126.41781319 62.45255035 126.41781319 62.45255035 124.3999939 62.4535675 C122.98677638 62.4611954 121.57356299 62.46962398 120.16035461 62.47879028 C116.33164008 62.50068175 112.50300539 62.50952709 108.67423534 62.51461673 C106.27839152 62.51826703 103.88256839 62.52451062 101.48673248 62.53161812 C93.1174783 62.55609528 84.74828594 62.56916049 76.3789978 62.57270813 C68.59565357 62.57634074 60.81270429 62.60622063 53.0294807 62.64811271 C46.33285456 62.68288397 39.63635888 62.69825776 32.93964314 62.69895416 C28.94636981 62.69974474 24.95349903 62.70838135 20.96031952 62.73695183 C17.20082805 62.76324997 13.44206951 62.76527329 9.68252754 62.74929619 C7.65911857 62.74663557 5.63572311 62.7685856 3.61244202 62.79148865 C-7.02041675 62.70675022 -15.20414107 59.71002824 -22.76699829 52.14717102 C-29.4670322 43.15158232 -31.02567156 34.27473384 -29.76699829 23.14717102 C-26.66517875 13.44432625 -21.4116418 7.44489833 -12.51699829 2.83467102 C-8.21903738 0.79743755 -4.77189212 0.01946878 0 0 Z " fill="#030202" transform="translate(290.7669982910156,397.8528289794922)"/>
<path d="M0 0 C1.62526863 -0.0129007 1.62526863 -0.0129007 3.28337097 -0.02606201 C5.06702057 -0.03245193 5.06702057 -0.03245193 6.88670349 -0.03897095 C8.13904282 -0.04714844 9.39138214 -0.05532593 10.68167114 -0.06375122 C14.83782126 -0.08861971 18.99393494 -0.10528149 23.15013123 -0.11953735 C24.583465 -0.1248989 26.01679871 -0.13027642 27.45013237 -0.13566971 C33.41647374 -0.15729952 39.38281243 -0.17603257 45.34918308 -0.1872921 C53.88369448 -0.20350636 62.41774881 -0.23662086 70.95208794 -0.29369295 C76.96074749 -0.33249564 82.96928537 -0.35193722 88.97806686 -0.35721266 C92.56230268 -0.3608535 96.14605076 -0.37273697 99.73015022 -0.4053154 C103.73703412 -0.44121348 107.74294666 -0.43699916 111.74998474 -0.42959595 C112.92491486 -0.44600128 114.09984497 -0.46240662 115.31037903 -0.47930908 C123.76730821 -0.41554409 130.57333828 1.27993219 136.91323185 7.13062477 C143.75869831 14.36795708 145.888258 22.13809464 145.90493774 32.00918579 C145.91133522 33.72898903 145.91133522 33.72898903 145.91786194 35.48353577 C145.91740875 36.72730484 145.91695557 37.97107391 145.91648865 39.25253296 C145.91948367 40.58693027 145.92288699 41.92132672 145.92666626 43.25572205 C145.93547679 46.86956395 145.93784317 50.48338216 145.93848205 54.09723377 C145.93919437 56.35906277 145.94133216 58.6208858 145.94397926 60.88271332 C145.95322383 68.78512452 145.95731537 76.68751888 145.95652771 84.5899353 C145.95592757 91.9368858 145.96646921 99.28376273 145.98227137 106.63069463 C145.9953827 112.95364069 146.00071008 119.27656281 146.0000723 125.59952235 C145.99981831 129.36909115 146.00261421 133.13859456 146.01325035 136.90814972 C146.02299169 140.45733589 146.02296954 144.00639498 146.01573372 147.55558586 C146.01420361 149.46444699 146.0224928 151.37330827 146.03117371 153.28215027 C145.99166756 164.18712666 145.32298891 173.76839582 137.77122498 182.15390015 C129.23534459 189.2849487 121.51663868 190.45208638 110.66648865 190.42855835 C109.45111923 190.43366928 108.23574982 190.43878021 106.98355103 190.44404602 C103.66101141 190.45554224 100.33872177 190.458019 97.0161798 190.45548272 C94.23563553 190.45440996 91.45511404 190.45930435 88.67457467 190.46408814 C82.10968739 190.47517035 75.54485732 190.47562849 68.97996521 190.46957397 C62.22483895 190.46353939 55.46992126 190.47583492 48.71483058 190.49714404 C42.90059088 190.51480564 37.08641728 190.52075411 31.27215177 190.5175063 C27.80607353 190.51569999 24.34014396 190.51826366 20.87409019 190.53222084 C17.00402644 190.54722248 13.13422458 190.53778928 9.2641449 190.5262146 C8.1277356 190.53385834 6.99132629 190.54150208 5.82048035 190.54937744 C-4.53010816 190.48113482 -11.69889125 188.53840149 -19.27955627 181.34140015 C-25.21573702 174.67955402 -26.34793432 167.67106035 -26.3740387 158.94857788 C-26.37739731 158.24226227 -26.38075592 157.53594666 -26.38421631 156.80822754 C-26.39367855 154.48463155 -26.39566671 152.16110792 -26.39674377 149.8374939 C-26.39995849 148.21754426 -26.40332273 146.59759491 -26.40682983 144.97764587 C-26.41280843 141.5875786 -26.41467092 138.19753677 -26.41407776 134.8074646 C-26.41397594 130.46404897 -26.42765369 126.12079609 -26.44484997 121.77741909 C-26.45596536 118.43427276 -26.45799715 115.09116593 -26.45746803 111.74800301 C-26.45864786 110.14642842 -26.4630698 108.5448528 -26.4708004 106.94329643 C-26.48059563 104.70535699 -26.47772477 102.46777303 -26.47169495 100.22982788 C-26.47311996 98.95695419 -26.47454498 97.68408051 -26.47601318 96.37263489 C-26.24162083 93.32113662 -25.97092101 91.63542112 -24.22877502 89.15390015 C-21.47877502 87.71640015 -21.47877502 87.71640015 -18.22877502 87.15390015 C-14.21937901 88.61887177 -12.61274967 89.57793818 -10.22877502 93.15390015 C-9.97721863 96.24565125 -9.97721863 96.24565125 -9.97340393 100.10043335 C-9.96978348 100.80324432 -9.96616302 101.5060553 -9.96243286 102.23016357 C-9.95554192 103.75576289 -9.95303286 105.28138683 -9.95438004 106.80700111 C-9.9553454 109.22441381 -9.94240136 111.64138198 -9.92539978 114.05873108 C-9.87913576 120.9314833 -9.85452979 127.80419096 -9.84791565 134.67709351 C-9.84289293 138.88232405 -9.8186027 143.08709203 -9.78258896 147.29216576 C-9.77280638 148.89205329 -9.77045062 150.49200459 -9.77576065 152.09191322 C-9.78285412 154.33483688 -9.7655038 156.57638916 -9.74293518 158.81918335 C-9.74008514 160.09364822 -9.73723511 161.3681131 -9.73429871 162.68119812 C-9.13869467 166.77270842 -7.80020754 168.95435477 -5.22877502 172.15390015 C-2.73830809 173.39913361 -1.06362995 173.28526553 1.72357178 173.29434204 C2.77086456 173.30005219 3.81815735 173.30576233 4.89718628 173.31164551 C6.62788109 173.3133223 6.62788109 173.3133223 8.39353943 173.31503296 C10.21072479 173.32248032 10.21072479 173.32248032 12.06462097 173.33007812 C15.39326061 173.3422001 18.72183732 173.34964853 22.05049157 173.35408878 C24.13000972 173.35701881 26.20952234 173.36112352 28.2890377 173.36559296 C34.79505078 173.37927052 41.30105125 173.38893554 47.80707771 173.39279485 C55.31772421 173.39727447 62.82818862 173.41481668 70.33877975 173.44379544 C76.14352488 173.46541488 81.94821881 173.47549929 87.75300378 173.47683597 C91.2201453 173.47788394 94.68711572 173.48378977 98.15421486 173.50165558 C102.02311191 173.52120343 105.89178166 173.51684622 109.76072693 173.51034546 C110.90845078 173.51956024 112.05617462 173.52877502 113.23867798 173.53826904 C114.82230637 173.52991531 114.82230637 173.52991531 116.43792725 173.52139282 C117.35251363 173.52285938 118.26710001 173.52432594 119.20940113 173.52583694 C122.41757698 173.06005993 124.21775436 172.14786911 126.77122498 170.15390015 C128.81132237 166.50899461 129.02529192 163.32473302 129.03865051 159.19540405 C129.04718048 158.00094666 129.05571045 156.80648926 129.0644989 155.57583618 C129.06359253 154.27386292 129.06268616 152.97188965 129.06175232 151.63046265 C129.06773975 150.23883708 129.07454579 148.84721483 129.08210754 147.45559692 C129.09974924 143.6829325 129.10446204 139.91035885 129.10573912 136.13765717 C129.10716188 133.7798824 129.11143377 131.42213062 129.11673355 129.06436157 C129.13522511 120.83703142 129.14340493 112.60976602 129.14183044 104.38241577 C129.14062806 96.71549501 129.16175151 89.04885531 129.19331777 81.38200569 C129.21946743 74.79588052 129.23019835 68.20984727 129.22891963 61.62367058 C129.22840976 57.69152817 129.23410649 53.75963582 129.25527573 49.82754517 C129.27463724 46.13053165 129.27479739 42.43400738 129.26024246 38.73697662 C129.25715422 36.7352817 129.27384384 34.73358684 129.29112244 32.73196411 C129.28273346 31.53750671 129.27434448 30.34304932 129.26570129 29.11239624 C129.26679083 28.07634247 129.26788036 27.0402887 129.26900291 25.97283936 C128.62765972 22.34088354 127.38153518 20.73103084 124.77122498 18.15390015 C121.32368639 16.31268048 118.45475182 15.90006115 114.57873535 15.87974548 C113.04164162 15.86478279 113.04164162 15.86478279 111.47349548 15.84951782 C110.36010803 15.84885315 109.24672058 15.84818848 108.09959412 15.84750366 C106.32805214 15.83501839 106.32805214 15.83501839 104.52072144 15.82228088 C101.2892807 15.80233712 98.05798941 15.79154487 94.82649541 15.78645444 C92.80574063 15.78280524 90.78501044 15.77656237 88.76426506 15.76945305 C81.70936372 15.74498074 74.65453572 15.73191083 67.59959412 15.72836304 C61.03119148 15.72472628 54.46325567 15.6948158 47.89499575 15.65295845 C42.24812254 15.6182387 36.601404 15.60281434 30.9544248 15.602117 C27.58498143 15.60132494 24.21601432 15.59261976 20.84668159 15.56411934 C17.08812271 15.53729198 13.33085581 15.54200585 9.57225037 15.55453491 C8.46088715 15.53970062 7.34952393 15.52486633 6.20448303 15.50958252 C-0.32246719 15.53157579 -0.32246719 15.53157579 -5.90383911 18.56636047 C-9.73917087 22.83489666 -9.37680948 26.19387297 -9.40455627 31.7046814 C-9.42775753 33.45274027 -9.45187499 35.20078719 -9.4768219 36.94882202 C-9.51191935 39.70728524 -9.54126971 42.46530931 -9.55470276 45.22396851 C-9.57019875 47.88474877 -9.61042089 50.54424204 -9.65455627 53.2046814 C-9.65264786 54.02567825 -9.65073944 54.84667511 -9.64877319 55.69255066 C-9.73270706 59.63185525 -9.95613182 61.706391 -12.04981995 65.14291382 C-15.10745276 67.9648434 -17.10109752 68.29873094 -21.22877502 68.15390015 C-23.93689766 66.18126528 -25.88435899 64.59269133 -26.68925476 61.23025513 C-26.87443087 58.90632976 -26.89561882 56.63337119 -26.85768127 54.30233765 C-26.86009323 53.447659 -26.86250519 52.59298035 -26.86499023 51.71240234 C-26.86401262 49.90525676 -26.85063927 48.09808092 -26.82569885 46.29110718 C-26.79163901 43.55810668 -26.80498081 40.82838947 -26.82447815 38.0953064 C-26.81475653 27.46963418 -26.02877341 18.73082042 -20.60377502 9.34140015 C-14.73500545 3.93595449 -8.04507923 0.04754382 0 0 Z " fill="#020102" transform="translate(30.228775024414063,154.84609985351563)"/>
<path d="M0 0 C15.80317543 -0.07012202 31.60630877 -0.12300378 47.40960121 -0.15543652 C54.74756704 -0.17089675 62.08543612 -0.19197005 69.42333984 -0.22631836 C75.8200434 -0.25624665 82.21667688 -0.27558114 88.6134485 -0.28226548 C91.99962628 -0.28617197 95.38560362 -0.2953349 98.77171707 -0.31719017 C102.55447567 -0.33894125 106.33681791 -0.34196781 110.11962891 -0.34057617 C111.23884735 -0.351362 112.3580658 -0.36214783 113.51119995 -0.3732605 C119.0423237 -0.35121675 123.33943357 -0.32927179 128 3 C131.48660326 6.67455554 132.50018408 8.9018543 132.50120544 13.95176697 C132.51103958 15.14477921 132.52087372 16.33779144 132.53100586 17.56695557 C132.52133789 18.86735779 132.51166992 20.16776001 132.50170898 21.50756836 C132.50549403 22.89757331 132.5109956 24.28757449 132.51808167 25.67756653 C132.53203099 29.4463089 132.52086994 33.21459446 132.50437045 36.98331141 C132.4905053 40.93098086 132.4969818 44.87862418 132.50050354 48.8263092 C132.50320483 55.45646512 132.48973824 62.08643992 132.46655273 68.71655273 C132.4399544 76.37547456 132.43819268 84.03409338 132.4499411 91.69304556 C132.4607318 99.06726442 132.45452098 106.44137398 132.44038582 113.81558418 C132.43463609 116.95062413 132.43470073 120.08558383 132.43945122 123.22062492 C132.44423417 126.91515298 132.43406517 130.6093506 132.41249657 134.30381584 C132.40430425 136.30169981 132.41076715 138.29962712 132.41769409 140.29751587 C132.40778946 141.49334793 132.39788483 142.68917999 132.38768005 143.92124939 C132.38403521 145.47394736 132.38403521 145.47394736 132.38031673 147.05801296 C131.77609153 151.73207159 130.38210591 154.91401592 126.6445694 157.85077 C123.76500268 159.10212096 121.81469895 159.37933446 118.68688965 159.38768005 C117.63547287 159.39758469 116.58405609 159.40748932 115.5007782 159.41769409 C114.35776749 159.41319244 113.21475677 159.4086908 112.03710938 159.40405273 C110.21926689 159.41434761 110.21926689 159.41434761 108.36470032 159.42485046 C105.04846076 159.44000023 101.73278401 159.44161707 98.41655159 159.43590808 C95.64561168 159.43281426 92.87472249 159.43891069 90.10378981 159.44494683 C83.56638321 159.45898449 77.02910732 159.4574367 70.49169922 159.44604492 C63.75178258 159.43455967 57.01226367 159.44864756 50.27239943 159.4754414 C44.48030787 159.4976036 38.68834113 159.50423478 32.89621019 159.49836498 C29.43914798 159.49499596 25.98234081 159.49740665 22.52531433 159.51461601 C18.6710146 159.53296658 14.81720366 159.51889265 10.96289062 159.50170898 C9.24837456 159.51621094 9.24837456 159.51621094 7.4992218 159.53100586 C-0.1953177 159.45903711 -0.1953177 159.45903711 -4.12268066 157.21864319 C-7.97207148 152.66937735 -8.23616166 149.75272967 -8.125 143.75 C-8.10695313 142.48671875 -8.08890625 141.2234375 -8.0703125 139.921875 C-8.03550781 138.47554688 -8.03550781 138.47554688 -8 137 C-6.79001343 136.99635437 -5.58002686 136.99270874 -4.33337402 136.98895264 C7.08402276 136.95196995 18.50115064 136.89416115 29.91834259 136.81609726 C35.7876953 136.77663183 41.65689819 136.74443858 47.52636719 136.72900391 C53.19349175 136.71383146 58.86020439 136.6793747 64.52714539 136.63169098 C66.68638015 136.61688339 68.84567373 136.60895935 71.00495911 136.60811615 C74.03565095 136.60574295 77.06520768 136.57863375 80.09570312 136.54589844 C81.42711838 136.55344398 81.42711838 136.55344398 82.78543091 136.56114197 C88.63831848 136.46368907 93.10379326 135.29722173 98 132 C99.97424869 129.93455106 99.97424869 129.93455106 101 128 C99.221698 128.02356567 99.221698 128.02356567 97.4074707 128.04760742 C92.999988 128.10199565 88.59253485 128.13638246 84.18481445 128.16479492 C82.27883919 128.17986128 80.37289848 128.20031824 78.46704102 128.22631836 C75.72403424 128.26279642 72.98148672 128.27974792 70.23828125 128.29296875 C69.38913651 128.30845261 68.53999176 128.32393646 67.66511536 128.33988953 C62.95053802 128.34122413 59.80485753 128.10168248 56 125 C53.81961905 121.72942857 53.36753245 120.79480531 54 117 C56.04535032 114.11629932 57.66422395 112.26146865 61.23086548 111.56332397 C64.01720563 111.42076271 66.76171939 111.43830316 69.55078125 111.51171875 C70.56472458 111.51879349 71.57866791 111.52586823 72.62333679 111.53315735 C75.8538163 111.56108988 79.08254661 111.62382838 82.3125 111.6875 C84.5058343 111.71258425 86.69919584 111.73539719 88.89257812 111.75585938 C94.26293058 111.80665726 99.62951355 111.90451525 105 112 C105 103.75 105 95.5 105 87 C101.65359375 87.05800781 98.3071875 87.11601562 94.859375 87.17578125 C91.6193275 87.21477169 88.37930609 87.24513362 85.13916016 87.2746582 C82.88676257 87.29980743 80.63444664 87.33393118 78.38232422 87.37719727 C75.145303 87.437829 71.90936028 87.46620592 68.671875 87.48828125 C67.66445251 87.51408768 66.65703003 87.5398941 65.61907959 87.56648254 C58.63104629 87.56928805 58.63104629 87.56928805 55.36816406 84.62573242 C53.80848115 81.63244375 53.25674908 80.30333742 54 77 C56.05112954 74.128739 57.67002029 72.26068221 61.2303772 71.56283569 C64.0168277 71.42082747 66.76163616 71.43830097 69.55078125 71.51171875 C70.56472458 71.51879349 71.57866791 71.52586823 72.62333679 71.53315735 C75.8538163 71.56108988 79.08254661 71.62382838 82.3125 71.6875 C84.5058343 71.71258425 86.69919584 71.73539719 88.89257812 71.75585938 C94.26293058 71.80665726 99.62951355 71.90451525 105 72 C105 63.75 105 55.5 105 47 C99.98039062 47.08701172 99.98039062 47.08701172 94.859375 47.17578125 C91.6193275 47.21477169 88.37930609 47.24513362 85.13916016 47.2746582 C82.88676257 47.29980743 80.63444664 47.33393118 78.38232422 47.37719727 C75.145303 47.437829 71.90936028 47.46620592 68.671875 47.48828125 C67.66445251 47.51408768 66.65703003 47.5398941 65.61907959 47.56648254 C58.63104629 47.56928805 58.63104629 47.56928805 55.36816406 44.62573242 C53.80848115 41.63244375 53.25674908 40.30333742 54 37 C56.05112954 34.128739 57.67002029 32.26068221 61.2303772 31.56283569 C64.0168277 31.42082747 66.76163616 31.43830097 69.55078125 31.51171875 C70.56472458 31.51879349 71.57866791 31.52586823 72.62333679 31.53315735 C75.8538163 31.56108988 79.08254661 31.62382838 82.3125 31.6875 C84.5058343 31.71258425 86.69919584 31.73539719 88.89257812 31.75585938 C94.26293058 31.80665726 99.62951355 31.90451525 105 32 C105 21.77 105 11.54 105 1 C70.35 1 35.7 1 0 1 C0 0.67 0 0.34 0 0 Z " fill="#EB9AAB" transform="translate(28,170)"/>
<path d="M0 0 C0.83178916 -0.00175304 1.66357831 -0.00350607 2.5205732 -0.00531223 C5.33811382 -0.01000435 8.15560357 -0.00749853 10.97314644 -0.00507832 C13.00142399 -0.00694468 15.02970118 -0.00924467 17.0579778 -0.01194364 C22.65531504 -0.01808972 28.25263741 -0.01792476 33.84997725 -0.01674926 C39.8773438 -0.01654596 45.90470548 -0.02205724 51.93206978 -0.02680683 C63.74963844 -0.0351293 75.56720228 -0.03787532 87.38477312 -0.03841921 C96.98614247 -0.03887822 106.58751019 -0.04093377 116.18887901 -0.04411983 C118.94959962 -0.04501734 121.71032023 -0.04590715 124.47104084 -0.04679471 C125.50043837 -0.04712628 125.50043837 -0.04712628 126.5506318 -0.04746456 C145.86203706 -0.05362138 165.17344175 -0.05756485 184.48484802 -0.05712128 C185.57764954 -0.05709791 185.57764954 -0.05709791 186.69252785 -0.05707407 C190.38529659 -0.05699096 194.07806533 -0.05689192 197.77083407 -0.05678936 C198.50427092 -0.05676942 199.23770777 -0.05674947 199.99336997 -0.05672892 C201.47655894 -0.05668848 202.9597479 -0.05664669 204.44293686 -0.05660353 C227.52341707 -0.05599066 250.60388259 -0.06349848 273.6843586 -0.07717609 C299.596942 -0.09252559 325.50951576 -0.101143 351.422104 -0.10021287 C354.18345332 -0.10013824 356.94480264 -0.10008953 359.70615196 -0.10005856 C360.72607298 -0.10004107 360.72607298 -0.10004107 361.76659846 -0.10002324 C372.72471735 -0.09999242 383.68282352 -0.10638745 394.64093863 -0.11499082 C405.64792638 -0.12345401 416.6548992 -0.12429567 427.66188942 -0.1178815 C433.62885085 -0.11460382 439.59576605 -0.11460432 445.56272316 -0.12323475 C451.01916147 -0.13104589 456.47551647 -0.12972399 461.93195261 -0.12095062 C463.91176284 -0.11940366 465.89157912 -0.12127624 467.87138222 -0.12681069 C470.55135082 -0.13380948 473.23102216 -0.12862573 475.91098022 -0.12025452 C476.68923843 -0.1252227 477.46749664 -0.13019088 478.26933843 -0.13530961 C482.010408 -0.11040745 484.94862481 -0.04421279 488.08133125 2.12863445 C490.17812528 4.82451249 490.07643946 6.22157845 489.89383125 9.69113445 C488.80281735 14.30696251 488.80281735 14.30696251 486.08133125 16.12863445 C483.30566452 16.42459384 480.75403341 16.53451714 477.9771452 16.5117445 C476.71760045 16.51918377 476.71760045 16.51918377 475.43261036 16.52677333 C472.59405849 16.53981757 469.75597026 16.53131697 466.91740608 16.52304363 C464.87176329 16.52792836 462.82612325 16.53411621 460.78048795 16.54150152 C455.13976675 16.55797719 449.4991846 16.55556767 443.85844767 16.55012655 C437.78268486 16.54746572 431.70695991 16.56197025 425.63121223 16.57422161 C413.72085805 16.59531775 401.81055116 16.59983288 389.90018494 16.59803373 C380.22351013 16.5966621 370.54685013 16.60047123 360.87017822 16.60795879 C359.48127134 16.60900912 358.09236446 16.61005673 356.70345758 16.61110166 C356.01403945 16.611621 355.32462133 16.61214034 354.61431174 16.61267543 C353.92365131 16.61319557 353.23299088 16.61371571 352.52140135 16.61425161 C351.48371244 16.6150376 351.48371244 16.6150376 350.42506011 16.61583947 C330.96039917 16.6304285 311.49574368 16.6387027 292.03107738 16.63408947 C290.92977773 16.63383154 290.92977773 16.63383154 289.80622961 16.63356839 C286.08478548 16.63267947 282.36334137 16.63173466 278.64189727 16.63077039 C277.902771 16.63057935 277.16364474 16.63038832 276.40212071 16.6301915 C274.90742705 16.62980441 273.4127334 16.62941408 271.91803974 16.62902052 C248.65610475 16.62304934 225.39426921 16.63849165 202.13235664 16.67062664 C176.01356556 16.70667741 149.89483754 16.72603987 123.77601999 16.72108793 C120.99278002 16.72061793 118.20954004 16.72020769 115.42630005 16.71983624 C114.7409666 16.71973385 114.05563316 16.71963146 113.34953203 16.71952597 C102.9895704 16.71832956 92.62967675 16.73031887 82.26973343 16.74898052 C70.49198174 16.7701855 58.71434761 16.7736383 46.93658073 16.75468093 C40.92294579 16.74549056 34.90959588 16.74448082 28.89598274 16.76503658 C23.39687262 16.78362642 17.89828336 16.77937862 12.39919382 16.75649077 C10.40393545 16.75227452 8.40863808 16.75660533 6.4134208 16.77008671 C3.71209315 16.78710403 1.01261389 16.77366708 -1.68864155 16.75225353 C-2.47303129 16.76453106 -3.25742103 16.77680858 -4.06558016 16.78945816 C-7.88542267 16.72569558 -9.58022631 16.43940927 -12.4369517 13.81622076 C-14.45869753 10.14911279 -14.02297823 8.10414858 -12.91866875 4.12863445 C-9.40443418 -0.45514977 -5.37442934 -0.01410856 0 0 Z " fill="#000000" transform="translate(17.918668746948242,105.87136554718018)"/>
<path d="M0 0 C1.50438887 -0.01658356 3.00869819 -0.04390588 4.51269531 -0.08203125 C6.687669 -0.13682848 8.86080591 -0.1586705 11.03637695 -0.17333984 C12.33696045 -0.19315918 13.63754395 -0.21297852 14.97753906 -0.23339844 C18.3215332 0.35009766 18.3215332 0.35009766 20.77685547 2.69140625 C22.3215332 5.35009766 22.3215332 5.35009766 22.3215332 8.41259766 C21.16063695 11.8227304 20.13582097 13.12489484 17.3215332 15.35009766 C14.39233398 15.81665039 14.39233398 15.81665039 11.0168457 15.78369141 C9.79352539 15.79335938 8.57020508 15.80302734 7.30981445 15.81298828 C4.74207706 15.79611235 2.1743624 15.77530302 -0.39331055 15.75048828 C-7.94706705 15.56560616 -7.94706705 15.56560616 -14.4987793 18.76025391 C-18.00872793 22.93067674 -17.84255122 26.02599629 -17.87133789 31.28466797 C-17.87951538 32.10437576 -17.88769287 32.92408356 -17.89611816 33.76863098 C-17.92098343 36.48848741 -17.93749196 39.20829157 -17.9519043 41.92822266 C-17.95722797 42.8566674 -17.96255165 43.78511215 -17.96803665 44.74169159 C-17.99477447 49.65688756 -18.01414645 54.57205809 -18.02856445 59.48730469 C-18.04520461 64.56285589 -18.08997518 69.63775681 -18.1409359 74.71306229 C-18.17460507 78.6164626 -18.18614158 82.5197086 -18.19179153 86.42324066 C-18.19850603 88.2939424 -18.21373327 90.16463391 -18.23768234 92.0351944 C-18.26932734 94.65664999 -18.26937191 97.2763525 -18.26196289 99.89794922 C-18.27836823 100.66804825 -18.29477356 101.43814728 -18.31167603 102.23158264 C-18.24432124 108.06596706 -16.69122846 110.42149797 -12.6784668 114.35009766 C-10.21703033 115.58081589 -8.60001498 115.48133758 -5.84674072 115.49053955 C-4.82613556 115.49624969 -3.8055304 115.50195984 -2.7539978 115.50784302 C-1.06773788 115.50951981 -1.06773788 115.50951981 0.65258789 115.51123047 C1.8331778 115.51619537 3.0137677 115.52116028 4.23013306 115.52627563 C7.47412152 115.53839763 10.71807392 115.54584627 13.96208096 115.55028629 C15.98934394 115.55321678 18.01660126 115.55732161 20.04386139 115.56179047 C26.38809392 115.57546912 32.73231352 115.58513316 39.07655978 115.58899236 C46.39702669 115.59346987 53.71730658 115.6110018 61.03771663 115.63999295 C66.69725575 115.66162716 72.35674234 115.67169761 78.01632237 115.67303348 C81.39574828 115.67408055 84.77499848 115.67996697 88.1543808 115.69785309 C91.92736494 115.71489267 95.69989347 115.71303795 99.47290039 115.70654297 C101.14701492 115.72036514 101.14701492 115.72036514 102.85494995 115.73446655 C109.4472977 115.69888719 114.10882872 115.28181962 119.17227173 110.66122437 C120.84713519 107.2931295 120.73941427 104.05108457 120.7097168 100.37207031 C120.71497375 99.57157761 120.72023071 98.7710849 120.72564697 97.94633484 C120.73884223 95.30207764 120.73010904 92.65842342 120.7199707 90.01416016 C120.72199198 88.17336919 120.72490386 86.332579 120.72866821 84.49179077 C120.73309125 80.63328428 120.72666263 76.77498617 120.71264648 72.91650391 C120.69557864 67.97790185 120.70538065 63.03978979 120.72336388 58.10120583 C120.73422277 54.29900445 120.7307453 50.49691852 120.7229805 46.69471359 C120.72098306 44.87430132 120.7234217 43.05387847 120.73041916 41.23347855 C120.73806563 38.68434296 120.72638401 36.1359915 120.7097168 33.58691406 C120.71882584 32.46453087 120.71882584 32.46453087 120.7281189 31.31947327 C120.67108295 26.59421497 120.02704231 23.25719275 117.3215332 19.35009766 C113.10407785 16.53649026 109.74704736 15.97693456 104.73706055 15.98120117 C103.44907562 15.97431778 102.1610907 15.96743439 100.83407593 15.96034241 C100.15348492 15.96352037 99.47289391 15.96669834 98.77167892 15.96997261 C96.62748149 15.97913201 94.4841493 15.96880706 92.33999634 15.95335388 C86.24824234 15.91337492 80.15656071 15.91205641 74.06469727 15.91430664 C70.32934515 15.91435774 66.59446441 15.89520009 62.85924149 15.86497307 C60.74954981 15.85415557 58.64075997 15.86626877 56.53109741 15.87879944 C55.24941681 15.86876389 53.96773621 15.85872833 52.6472168 15.84838867 C51.51947845 15.84855484 50.39174011 15.84872101 49.22982788 15.84889221 C45.66051931 15.23672877 44.51299692 14.17949638 42.3215332 11.35009766 C41.3215332 8.41259766 41.3215332 8.41259766 41.3215332 5.35009766 C42.89572144 2.6991272 42.89572144 2.6991272 45.3215332 0.35009766 C48.43069458 -0.28482056 48.43069458 -0.28482056 52.13452148 -0.296875 C52.81154617 -0.3056366 53.48857086 -0.31439819 54.18611145 -0.32342529 C56.422011 -0.34540898 58.65592633 -0.33086338 60.8918457 -0.31396484 C62.45401385 -0.3173357 64.01617943 -0.32219057 65.57833862 -0.32846069 C68.85529507 -0.33583249 72.13157011 -0.32512638 75.40844727 -0.30175781 C79.5847628 -0.27341018 83.75946174 -0.28958072 87.93571663 -0.31962013 C91.16512924 -0.33780693 94.39416763 -0.33188116 97.62359238 -0.31898117 C99.16159129 -0.31567104 100.69962541 -0.31964904 102.23758316 -0.33137894 C112.27099658 -0.39106166 120.7890282 0.21396685 128.45046997 7.32650757 C135.90160962 15.14855085 137.47361717 23.56050458 137.46679688 34.14038086 C137.47015549 34.89733246 137.4735141 35.65428406 137.47697449 36.43417358 C137.48643093 38.92309231 137.48842497 41.41194336 137.48950195 43.90087891 C137.4927184 45.64194262 137.49608276 47.38300606 137.49958801 49.12406921 C137.50556614 52.76964952 137.50742928 56.41520616 137.50683594 60.06079102 C137.50673443 64.71419887 137.52038057 69.36745374 137.53760815 74.02082539 C137.54876995 77.61637559 137.55075386 81.21188931 137.55022621 84.80745506 C137.55140026 86.52212234 137.55578948 88.23679074 137.56355858 89.95144081 C137.66479654 114.6037435 137.66479654 114.6037435 128.68481445 124.07666016 C120.93643111 131.1459717 113.91535272 131.79310634 103.73608398 131.75415039 C102.48155426 131.76101364 101.22702454 131.76787689 99.93447876 131.77494812 C96.50859396 131.79007171 93.08325522 131.7917215 89.65737772 131.78600574 C86.78978744 131.78290532 83.92224591 131.78901592 81.05466259 131.79504448 C74.28501665 131.80907064 67.51549696 131.80754493 60.74584961 131.79614258 C53.77989669 131.78466829 46.81432909 131.79872949 39.84842694 131.82553905 C33.85156435 131.84774838 27.85482225 131.85432155 21.85792148 131.84846264 C18.28339271 131.84510369 14.70911075 131.84743655 11.13461685 131.86471367 C7.14475647 131.88315821 3.15563775 131.86894225 -0.83422852 131.85180664 C-2.59259033 131.86630859 -2.59259033 131.86630859 -4.38647461 131.88110352 C-13.38380626 131.80037975 -21.13924764 129.88931681 -27.6784668 123.35009766 C-33.14143386 116.07145058 -34.97983589 108.92680173 -34.96899414 99.92724609 C-34.97571136 99.11483963 -34.98242859 98.30243317 -34.98934937 97.46540833 C-35.00824678 94.79669976 -35.01224957 92.12824385 -35.0144043 89.45947266 C-35.02083868 87.59010722 -35.02756751 85.72074277 -35.03457642 83.85137939 C-35.04652908 79.93767973 -35.05025938 76.02406819 -35.04907227 72.11035156 C-35.04886936 67.11957529 -35.07615128 62.12937025 -35.11061668 57.1387291 C-35.1329642 53.2780096 -35.13690738 49.41742578 -35.13585281 45.55664825 C-35.13819774 43.71802048 -35.14695809 41.87938832 -35.16251755 40.04082489 C-35.2487509 28.79745769 -34.82504363 19.52686525 -29.0534668 9.53759766 C-20.12257702 1.31177812 -11.67071832 0.09433459 0 0 Z " fill="#010000" transform="translate(38.678466796875,380.64990234375)"/>
<path d="M0 0 C14.66381608 13.49907305 25.05035152 33.22154795 25.98046875 53.31640625 C26.09358202 76.09741954 20.13040386 96.50568733 4.12109375 113.37890625 C-10.51903408 128.01903408 -28.62855855 137.69164671 -49.66918945 138.06835938 C-71.17159949 138.01954111 -90.04245493 132.46036222 -106.1875 117.6875 C-107.21037109 116.80191406 -107.21037109 116.80191406 -108.25390625 115.8984375 C-117.72729136 107.18514787 -128.01984344 91.82514723 -129.390625 78.75 C-129.51358696 73.33967391 -129.51358696 73.33967391 -128.1875 70.6875 C-124.98816571 69.08783285 -121.59522733 68.693307 -118.1875 69.6875 C-114.71768095 73.17012281 -113.39279678 76.5341713 -112 81.1875 C-106.5911763 96.93575193 -95.62824305 108.46522586 -80.9206543 116.07348633 C-67.20739875 122.74744222 -49.96930934 124.23807421 -35.24609375 119.84765625 C-16.49329182 112.73452448 -3.87469768 101.95270221 5.1875 83.95703125 C11.86403241 68.51755006 11.40645474 51.34817928 5.8125 35.6875 C-1.41807858 18.66004942 -14.27677211 6.79646841 -31.1875 -0.3125 C-45.29235306 -5.8218846 -62.99751823 -5.29014926 -76.99609375 0.2109375 C-94.68499681 8.39503219 -105.65097398 20.94935759 -113.1875 38.6875 C-113.93365984 40.4391408 -114.68313491 42.1893772 -115.4375 43.9375 C-115.73140625 44.64390625 -116.0253125 45.3503125 -116.328125 46.078125 C-117.1875 47.6875 -117.1875 47.6875 -119.1875 48.6875 C-125.32295817 49.13371514 -125.32295817 49.13371514 -128.125 47.6875 C-130.55103946 43.12083748 -129.40574054 37.86426627 -128.1875 33.0625 C-124.41008046 21.58902944 -117.58547596 12.20829828 -109.1875 3.6875 C-108.63707031 3.06488281 -108.08664062 2.44226563 -107.51953125 1.80078125 C-79.48098673 -29.00700224 -29.85484211 -24.65767424 0 0 Z " fill="#040303" transform="translate(410.1875,229.3125)"/>
<path d="M0 0 C8.11052242 -0.06963245 16.22091911 -0.12287815 24.33166695 -0.15543652 C28.09817214 -0.17106606 31.86447221 -0.19225424 35.63085938 -0.22631836 C39.26835002 -0.25900935 42.90564385 -0.2768734 46.54327011 -0.28463173 C47.92830374 -0.29015785 49.31332709 -0.30094905 50.69827652 -0.31719017 C52.64395821 -0.33909128 54.58983961 -0.34022648 56.53564453 -0.34057617 C57.64150909 -0.34723801 58.74737366 -0.35389984 59.88674927 -0.36076355 C64.36637027 0.15833501 67.76964393 1.64236571 70.8125 5 C73.29451234 9.1802313 73.16634505 13.1576334 73.19287109 17.86450195 C73.20513733 19.06502197 73.20513733 19.06502197 73.21765137 20.28979492 C73.24247055 22.93928279 73.25901184 25.58871724 73.2734375 28.23828125 C73.27876118 29.1437438 73.28408485 30.04920635 73.28956985 30.98210716 C73.31628545 35.77411426 73.33566603 40.56609544 73.35009766 45.3581543 C73.36344206 49.32258145 73.39130593 53.28649451 73.43212891 57.25073242 C73.48144028 62.03937799 73.50621668 66.82755691 73.51332474 71.61644554 C73.52003724 73.43970012 73.53525934 75.2629443 73.55921555 77.08605385 C73.5908668 79.64035861 73.59090455 82.19286474 73.58349609 84.74731445 C73.59990143 85.49714096 73.61630676 86.24696747 73.63320923 87.01951599 C73.58821993 90.81773472 73.0725568 93.4127314 70.77603149 96.39079285 C66.727261 100.19625433 63.30740041 101.24399695 57.8142395 101.28088379 C56.79095551 101.29230408 55.76767151 101.30372437 54.71337891 101.31549072 C53.6015625 101.31772644 52.48974609 101.31996216 51.34423828 101.32226562 C49.57510574 101.33716034 49.57510574 101.33716034 47.77023315 101.35235596 C44.54286589 101.3765202 41.31564327 101.39147477 38.088202 101.40037727 C36.06944964 101.40625251 34.05071965 101.41446456 32.03197861 101.42338562 C25.70857865 101.45070787 19.3852302 101.47005593 13.06177533 101.4777894 C5.775064 101.48675147 -1.51089709 101.52186051 -8.79738033 101.57979059 C-14.43917293 101.62308046 -20.08075483 101.64320081 -25.72271168 101.64587164 C-29.08837294 101.64796338 -32.45332767 101.65968198 -35.81881332 101.69551086 C-39.57493703 101.72963106 -43.32923333 101.72587386 -47.08544922 101.71289062 C-48.74710114 101.74053497 -48.74710114 101.74053497 -50.44232178 101.76873779 C-56.70965446 101.70089265 -60.27618785 100.9681414 -64.78996468 96.48274994 C-67.55841418 93.09035448 -67.10137668 90.15143506 -67.0625 85.875 C-67.05347656 84.59367187 -67.04445313 83.31234375 -67.03515625 81.9921875 C-67.02355469 81.00476563 -67.01195313 80.01734375 -67 79 C-65.80698273 78.99857498 -64.61396545 78.99714996 -63.38479614 78.99568176 C-52.11515848 78.9789773 -40.84588031 78.93609812 -29.57643318 78.86790943 C-23.78332516 78.83368937 -17.99047948 78.80853714 -12.19726562 78.80444336 C-6.60139409 78.80014982 -1.00611385 78.77159886 4.58957291 78.72656822 C6.71924515 78.71362705 8.84898827 78.70927348 10.97869492 78.71384621 C26.39847068 79.26982313 26.39847068 79.26982313 40 73 C44.18338242 68.46109224 45.12116507 63.89947119 45.20532227 57.8762207 C45.22526749 56.61513992 45.24521271 55.35405914 45.26576233 54.05476379 C45.28274533 52.67843753 45.29962419 51.30210998 45.31640625 49.92578125 C45.33698197 48.51758725 45.3579786 47.10939935 45.37937927 45.70121765 C45.43453622 41.99739519 45.48397354 38.29351759 45.53222656 34.58959961 C45.58248821 30.80903227 45.63809774 27.02854389 45.69335938 23.24804688 C45.80136861 15.83209179 45.90044092 8.41609266 46 1 C30.82 1 15.64 1 0 1 C0 0.67 0 0.34 0 0 Z " fill="#E47C92" transform="translate(87,396)"/>
<path d="M0 0 C1.16364578 -0.00571014 2.32729156 -0.01142029 3.52619934 -0.01730347 C4.80933517 -0.01842133 6.09247101 -0.01953918 7.41448975 -0.02069092 C8.77449173 -0.02531843 10.13449241 -0.03034299 11.49449158 -0.03573608 C15.19507071 -0.04887074 18.8956317 -0.0553074 22.59623051 -0.05974674 C24.90825966 -0.06267645 27.22028383 -0.06678112 29.53231049 -0.07125092 C36.76608039 -0.08493019 43.99983894 -0.09459408 51.23362088 -0.09845281 C59.58360699 -0.10293132 67.93342921 -0.1204677 76.28336549 -0.1494534 C82.73695277 -0.17107811 89.19049399 -0.18115755 95.64411712 -0.18249393 C99.49861048 -0.18354162 103.35294988 -0.18944145 107.20740509 -0.20731354 C110.83536123 -0.2238074 114.46304792 -0.22594348 118.09102821 -0.21717453 C120.053193 -0.21603846 122.01534889 -0.22974669 123.97746277 -0.243927 C130.73318756 -0.21190482 135.93846428 -0.12896138 141.16741943 4.64044189 C145.40768659 10.08613617 146.29787633 14.39018279 145.52288818 21.14044189 C144.1625167 25.58547738 142.10259112 27.76070826 138.2149353 30.30731201 C132.35546067 33.06811466 126.30907883 32.69883276 119.95013428 32.65802002 C118.58924107 32.6634484 117.22835374 32.67057506 115.86747742 32.67926025 C112.1918975 32.69740846 108.51676948 32.69046266 104.84118223 32.67774391 C100.9856115 32.66757596 97.13007796 32.6770197 93.27450562 32.68328857 C86.80351859 32.69055224 80.33271458 32.68100924 73.86175537 32.66192627 C66.38846108 32.64014143 58.91560307 32.64722549 51.44231927 32.66923189 C45.01405403 32.68740059 38.58591987 32.68993763 32.15763724 32.67947721 C28.32334532 32.67325267 24.48925833 32.67237821 20.65497971 32.68562317 C17.05144183 32.69720331 13.44846529 32.68911737 9.84498787 32.66604614 C7.89722076 32.6582613 5.94940601 32.67009521 4.00166321 32.68255615 C-6.65292473 32.57951149 -6.65292473 32.57951149 -11.47711182 28.14044189 C-15.77938771 23.37305509 -16.83993684 19.70296895 -16.75836182 13.42169189 C-16.16891793 8.64064703 -13.32890385 5.89083012 -9.85211182 2.82794189 C-6.25546361 0.27242869 -4.38511618 0.01284644 0 0 Z " fill="#EC9BAC" transform="translate(292.47711181640625,412.85955810546875)"/>
<path d="M0 0 C0.66 -0.00128906 1.32 -0.00257812 2 -0.00390625 C5.09340284 0.8721551 6.08219073 1.94090526 8 4.5625 C8.60847297 7.99354542 8.55709318 11.39785078 8.5390625 14.875 C8.55085541 15.88087158 8.56264832 16.88674316 8.57479858 17.9230957 C8.61010093 21.13638772 8.61923248 24.3490298 8.625 27.5625 C8.64134032 30.77577494 8.66338038 33.98875869 8.69662476 37.2019043 C8.71625639 39.2006887 8.72558946 41.19960656 8.72354126 43.19848633 C8.73050018 44.10622803 8.73745911 45.01396973 8.74462891 45.94921875 C8.74588776 46.74545654 8.74714661 47.54169434 8.7484436 48.36206055 C9.15854291 51.94932251 10.32580077 53.99045217 13.0625 56.3125 C17.12446075 58.04099393 20.6484274 58.27374122 25 57.5625 C29.27403857 55.33811281 29.27403857 55.33811281 32 51.5625 C32.09793678 50.0722903 32.13549674 48.5778836 32.1418457 47.08447266 C32.14888016 46.15655914 32.15591461 45.22864563 32.16316223 44.27261353 C32.16732651 43.26741669 32.17149078 42.26221985 32.17578125 41.2265625 C32.19897704 39.10936503 32.22309428 36.99217749 32.24804688 34.875 C32.28319559 31.52825252 32.31252255 28.18187072 32.32592773 24.83496094 C32.34137786 21.61087531 32.38156811 18.38786503 32.42578125 15.1640625 C32.42387283 14.16291412 32.42196442 13.16176575 32.41999817 12.13027954 C32.54247252 5.19206061 32.54247252 5.19206061 34.91088867 1.93310547 C37.16566177 0.45381411 38.32508425 0.02070444 41 0.0625 C41.66 0.0521875 42.32 0.041875 43 0.03125 C46.13781242 0.86473143 47.07901084 1.89816406 49 4.5625 C49.60606368 8.16721795 49.53603022 11.74296261 49.49609375 15.390625 C49.49754898 16.45359802 49.49900421 17.51657104 49.50050354 18.61175537 C49.4988439 20.86115253 49.48727549 23.11056097 49.46655273 25.35986328 C49.43772316 28.78597906 49.44591863 32.21053509 49.45898438 35.63671875 C49.45274283 37.8255283 49.44434865 40.01433298 49.43359375 42.203125 C49.43652939 43.22110168 49.43946503 44.23907837 49.44248962 45.28790283 C49.33114293 53.78101682 47.67245966 60.55502532 41.8125 66.95703125 C34.4406506 73.4868375 26.9642228 74.93643835 17.390625 74.83984375 C9.39194145 74.18557355 2.25077753 70.67909723 -3 64.5625 C-6.37086561 59.23899883 -8.10044169 54.1804858 -8.17700195 47.87329102 C-8.18983719 46.94875626 -8.20267242 46.0242215 -8.21589661 45.07167053 C-8.22328354 44.07993332 -8.23067047 43.08819611 -8.23828125 42.06640625 C-8.246353 41.0407103 -8.25442474 40.01501434 -8.26274109 38.95823669 C-8.27655874 36.79045288 -8.28729124 34.62264753 -8.29516602 32.45483398 C-8.31241829 29.14069638 -8.35633034 25.82754646 -8.40039062 22.51367188 C-8.41051467 20.40625732 -8.41903168 18.29883431 -8.42578125 16.19140625 C-8.44328934 15.20169327 -8.46079742 14.21198029 -8.47883606 13.192276 C-8.46493323 8.78373841 -8.43034527 6.26970496 -6.09838867 2.4375 C-3.83500738 0.41507204 -2.98774072 -0.09920233 0 0 Z " fill="#000000" transform="translate(12,-0.5625)"/>
<path d="M0 0 C1.18722656 -0.05607422 1.18722656 -0.05607422 2.3984375 -0.11328125 C4.625 0.3125 4.625 0.3125 6.2401123 2.05751038 C7.7918172 4.58412567 8.00199563 5.8853054 8.00976562 8.81811523 C8.01987671 9.70260849 8.02998779 10.58710175 8.04040527 11.49839783 C8.03738403 12.44638748 8.03436279 13.39437714 8.03125 14.37109375 C8.04208618 15.35239761 8.05292236 16.33370148 8.06408691 17.34474182 C8.09835446 20.47989503 8.11394238 23.61468411 8.125 26.75 C8.13956925 30.87404819 8.17325662 34.9972836 8.21875 39.12109375 C8.21572876 40.06705917 8.21270752 41.0130246 8.20959473 41.98765564 C8.27866852 48.05159897 9.11539363 51.51332367 13.25 56.125 C16.98726914 57.99363457 20.53534657 57.97052382 24.625 57.3125 C28.89903857 55.08811281 28.89903857 55.08811281 31.625 51.3125 C31.72276188 49.85822806 31.76048781 48.39967901 31.7668457 46.94213867 C31.77388016 46.0374736 31.78091461 45.13280853 31.78816223 44.20072937 C31.79232651 43.22054337 31.79649078 42.24035736 31.80078125 41.23046875 C31.8239807 39.16340129 31.84809808 37.09634396 31.87304688 35.02929688 C31.90816452 31.76384719 31.93750506 28.49876984 31.95092773 25.2331543 C31.96640298 22.08596475 32.00661307 18.93986931 32.05078125 15.79296875 C32.04887283 14.81885544 32.04696442 13.84474213 32.04499817 12.84111023 C32.12369372 8.47887777 32.21508773 5.98086596 34.53588867 2.19677734 C36.79324884 0.16074769 37.63315355 -0.34933865 40.625 -0.25 C41.285 -0.25128906 41.945 -0.25257812 42.625 -0.25390625 C45.7518603 0.63163036 46.70089249 1.63755729 48.625 4.3125 C49.24359454 7.97694696 49.18499225 11.61537787 49.15625 15.32421875 C49.1600769 16.40701614 49.16390381 17.48981354 49.16784668 18.60542297 C49.17056846 20.897684 49.16318881 23.18997595 49.14648438 25.48217773 C49.12518349 28.96995523 49.14622462 32.45564822 49.171875 35.94335938 C49.16922974 38.17448368 49.16410068 40.40560669 49.15625 42.63671875 C49.16434692 43.67140793 49.17244385 44.70609711 49.18078613 45.7721405 C49.08378554 53.36875087 47.6018548 59.53618419 42.8359375 65.58203125 C34.84126685 72.30095659 27.31328903 75.08279994 16.80078125 74.6875 C7.55346319 73.59556576 1.41860536 69.49879896 -4.375 62.3125 C-8.67175242 55.38225415 -8.54142172 48.18642145 -8.578125 40.27734375 C-8.58382507 39.32106583 -8.58952515 38.3647879 -8.59539795 37.37953186 C-8.6048127 35.36493017 -8.61136785 33.35031333 -8.61523438 31.33569336 C-8.62497871 28.25672788 -8.65605098 25.17841957 -8.6875 22.09960938 C-8.69402717 20.13802478 -8.69927876 18.17643544 -8.703125 16.21484375 C-8.7154718 15.29702621 -8.7278186 14.37920868 -8.74053955 13.43357849 C-8.71658197 6.55891989 -7.86690495 0.24186277 0 0 Z " fill="#000000" transform="translate(175.375,-0.3125)"/>
<path d="M0 0 C4.32642083 1.31744394 6.54852745 5.09364463 9.078125 8.6328125 C9.73554688 9.5196875 10.39296875 10.4065625 11.0703125 11.3203125 C16.078125 18.23873619 16.078125 18.23873619 16.078125 20.6328125 C19.70009336 17.28038597 22.40347627 13.53698055 25.203125 9.5078125 C29.83826014 2.87267736 29.83826014 2.87267736 32.078125 0.6328125 C35.11815073 0.13671722 38.03247832 0.19214201 41.078125 0.6328125 C43.140625 2.1953125 43.140625 2.1953125 44.078125 4.6328125 C44.54169557 10.13689687 43.78539361 12.91730774 40.578125 17.3828125 C39.85625 18.40375 39.134375 19.4246875 38.390625 20.4765625 C37.6275 21.518125 36.864375 22.5596875 36.078125 23.6328125 C35.315 24.695 34.551875 25.7571875 33.765625 26.8515625 C31.88527583 29.4571892 29.9897481 32.05008767 28.078125 34.6328125 C31.09373647 40.13357849 34.49205483 45.22126781 38.140625 50.3203125 C38.66978516 51.06603516 39.19894531 51.81175781 39.74414062 52.58007812 C42.67584637 56.70796459 42.67584637 56.70796459 45.72460938 60.74926758 C47.67243939 63.45985714 47.56718181 65.48137708 47.421875 68.7265625 C47.078125 70.6328125 47.078125 70.6328125 45.515625 73.1328125 C42.08676386 75.24288089 40.03592149 75.25772773 36.078125 74.6328125 C30.53953469 69.9390919 26.74319465 63.70686393 22.63085938 57.78710938 C22.07333984 56.99755859 21.51582031 56.20800781 20.94140625 55.39453125 C20.43907471 54.67225342 19.93674316 53.94997559 19.41918945 53.20581055 C18.97663818 52.68672119 18.53408691 52.16763184 18.078125 51.6328125 C17.418125 51.6328125 16.758125 51.6328125 16.078125 51.6328125 C14.85559365 53.03323589 14.85559365 53.03323589 13.6875 54.88671875 C13.22472656 55.57701172 12.76195312 56.26730469 12.28515625 56.97851562 C11.56392578 58.07583008 11.56392578 58.07583008 10.828125 59.1953125 C1.02244088 74.03965148 1.02244088 74.03965148 -2.92333984 75.2434082 C-6.64503649 75.48772745 -8.59407642 74.9114413 -11.421875 72.5078125 C-13.2660359 68.97317078 -13.47663179 67.59795939 -12.921875 63.6328125 C-11.16412872 60.30374757 -9.00044229 57.3044838 -6.796875 54.2578125 C-6.22710937 53.44570313 -5.65734375 52.63359375 -5.0703125 51.796875 C-0.55358496 45.39133412 -0.55358496 45.39133412 1.91699219 42.42480469 C2.48321289 41.73805664 3.04943359 41.05130859 3.6328125 40.34375 C4.15085449 39.7461084 4.66889648 39.1484668 5.20263672 38.53271484 C6.34316878 36.58750441 6.34316878 36.58750441 5.43457031 34.18945312 C4.06495963 31.60799829 2.57449308 29.35175191 0.8203125 27.015625 C0.19511719 26.16097656 -0.43007812 25.30632813 -1.07421875 24.42578125 C-2.38836565 22.6484301 -3.71130214 20.87754406 -5.04296875 19.11328125 C-10.35228667 11.80335077 -10.35228667 11.80335077 -10.4453125 7.65234375 C-9.921875 4.6328125 -9.921875 4.6328125 -8.421875 2.1953125 C-5.60264277 0.43329236 -3.34179649 -0.18565536 0 0 Z " fill="#000000" transform="translate(244.921875,-0.6328125)"/>
<path d="M0 0 C1.07976105 -0.00137466 2.15952209 -0.00274933 3.27200317 -0.00416565 C4.46170715 -0.00057037 5.65141113 0.0030249 6.87716675 0.00672913 C8.12591583 0.0065831 9.37466492 0.00643707 10.66125488 0.00628662 C14.0908026 0.006865 17.52029054 0.01188933 20.94982767 0.01886058 C24.53195934 0.02510074 28.11409176 0.02569844 31.69622803 0.02688599 C38.48186847 0.02999734 45.26749285 0.03820811 52.05312622 0.04823548 C59.77732813 0.05940267 67.50153079 0.06490859 75.22573876 0.06993091 C91.11720714 0.08039087 107.00865949 0.09798654 122.90011597 0.12025452 C120.79314289 6.7262183 117.94941586 10.94218316 112.27511597 14.99525452 C108.38909406 16.83600174 105.0709966 17.24491592 100.7875061 17.24050903 C99.75548065 17.2418837 98.7234552 17.24325836 97.66015625 17.24467468 C96.53374725 17.24107941 95.40733826 17.23748413 94.24679565 17.23377991 C92.46101608 17.23399895 92.46101608 17.23399895 90.63916016 17.23422241 C87.37915323 17.23364538 84.1191893 17.22863216 80.85919094 17.22164845 C77.45057296 17.2153946 74.04195413 17.21480951 70.6333313 17.21362305 C64.18066713 17.21051573 57.72801991 17.20231041 51.27536321 17.19227356 C43.9283751 17.18109382 36.58138618 17.17559728 29.23439169 17.17057812 C14.122957 17.1601273 -0.98846182 17.14253945 -16.09988403 17.12025452 C-16.30247389 11.73286494 -15.52611903 9.37989803 -12.09988403 5.12025452 C-7.87099147 1.39480155 -5.59002482 -0.00546969 0 0 Z " fill="#FEB3C3" transform="translate(292.0998840332031,412.87974548339844)"/>
<path d="M0 0 C0.7734375 -0.00773438 1.546875 -0.01546875 2.34375 -0.0234375 C5.03550689 0.47395236 5.77776874 1.28525956 7.5 3.375 C9.06599432 12.64211831 4.34298569 20.69982734 0.625 28.9375 C-0.41221567 31.27948308 -1.44438062 33.62365309 -2.47654724 35.96786499 C-3.16587622 37.53177737 -3.85724847 39.09479075 -4.55067444 40.65689087 C-6.64156582 45.37583953 -8.64933783 50.11634867 -10.58203125 54.90234375 C-11.02885254 56.00827881 -11.47567383 57.11421387 -11.93603516 58.25366211 C-12.74996854 60.28373202 -13.55607151 62.31696503 -14.35302734 64.35375977 C-14.71477051 65.24764404 -15.07651367 66.14152832 -15.44921875 67.0625 C-15.75174561 67.82949219 -16.05427246 68.59648438 -16.3659668 69.38671875 C-17.74898506 71.8115413 -19.11645692 72.94092153 -21.5 74.375 C-25.38040089 74.86005011 -27.5761612 74.94351618 -30.9375 72.875 C-33.09064997 69.42996005 -32.92448594 66.29731651 -32.5 62.375 C-31.62742412 59.69606965 -30.73139023 57.32046399 -29.5703125 54.78125 C-29.26417023 54.07987915 -28.95802795 53.3785083 -28.64260864 52.65588379 C-27.6500924 50.38943484 -26.63787218 48.13241512 -25.625 45.875 C-24.93564007 44.31187371 -24.24782468 42.74806539 -23.56152344 41.18359375 C-22.52800169 38.8276323 -21.49366412 36.47209176 -20.45385742 34.11889648 C-16.9934263 26.27729319 -13.74124589 18.35515578 -10.55908203 10.39648438 C-10.19411621 9.50251953 -9.82915039 8.60855469 -9.453125 7.6875 C-9.14536133 6.92050781 -8.83759766 6.15351562 -8.52050781 5.36328125 C-6.43729616 1.30450717 -4.5517789 -0.04551779 0 0 Z " fill="#000000" transform="translate(143.5,-0.375)"/>
<path d="M0 0 C0.68666245 -0.00365067 1.37332489 -0.00730133 2.08079529 -0.01106262 C4.34513264 -0.01915264 6.60875084 -0.00557161 8.87304688 0.0090332 C10.44958496 0.009552 12.02612369 0.00903354 13.60266113 0.00752258 C16.90463943 0.00761224 20.20637322 0.0180275 23.50830078 0.03613281 C27.73856108 0.05881981 31.96846422 0.05936337 36.19876862 0.05261517 C39.45358447 0.04927197 42.70831907 0.05591187 45.96311951 0.0657444 C47.52281773 0.06959065 49.08252501 0.070747 50.64222717 0.06915855 C52.82285757 0.06878725 55.00303194 0.081426 57.18359375 0.09765625 C58.42395386 0.10226364 59.66431396 0.10687103 60.94226074 0.11161804 C63.96630406 0.36192704 65.62029243 0.66405694 68.09179688 2.37231445 C70.09179688 5.37231445 70.09179688 5.37231445 69.96679688 8.87231445 C69.09179688 12.37231445 69.09179688 12.37231445 67.48034668 14.06481934 C64.21689436 15.85123717 61.71437248 15.76772637 58 15.79223633 C57.29383041 15.80070587 56.58766083 15.80917542 55.86009216 15.81790161 C53.53089282 15.84125951 51.20235436 15.84229425 48.87304688 15.84106445 C47.25166561 15.84816593 45.63028686 15.85586491 44.00891113 15.86413574 C40.61280324 15.87757709 37.21692782 15.87915055 33.82080078 15.87329102 C29.46913342 15.8673899 25.11857981 15.89800382 20.76712799 15.9384079 C17.41963697 15.96425667 14.07241532 15.96716504 10.72483826 15.96351624 C9.12044979 15.96520962 7.51604918 15.97487328 5.91175842 15.99266052 C3.66827767 16.01480076 1.42706678 16.00517782 -0.81640625 15.98754883 C-2.73024109 15.99063049 -2.73024109 15.99063049 -4.68273926 15.99377441 C-7.90820312 15.37231445 -7.90820312 15.37231445 -10.35144043 13.0604248 C-11.90820312 10.37231445 -11.90820312 10.37231445 -11.90820312 6.74731445 C-9.9967467 0.29614902 -6.26636283 -0.00317989 0 0 Z " fill="#020101" transform="translate(60.908203125,438.627685546875)"/>
<path d="M0 0 C3.08883364 0.62464354 4.15352362 1.98531706 6.10546875 4.42578125 C6.61340332 7.38549805 6.61340332 7.38549805 6.62304688 10.875 C6.63565552 12.18315674 6.64826416 13.49131348 6.66125488 14.83911133 C6.65409508 16.26384012 6.64589109 17.68856399 6.63671875 19.11328125 C6.63941424 20.57772072 6.64329713 22.04215844 6.64831543 23.5065918 C6.65420794 26.57325305 6.64565621 29.63944774 6.62695312 32.70605469 C6.60416285 36.63391761 6.61728738 40.56068731 6.64124298 44.48851013 C6.65570816 47.51176162 6.65109186 50.53475458 6.64073181 53.55801392 C6.63806647 55.00607432 6.64132757 56.45415831 6.65065002 57.90219116 C6.66082534 59.92697695 6.64256207 61.95184519 6.62304688 63.9765625 C6.61827332 65.70386597 6.61827332 65.70386597 6.61340332 67.46606445 C5.99429247 71.07360153 5.0165067 72.26318447 2.10546875 74.42578125 C-1.64802587 74.89496808 -3.93301578 74.95714506 -7.26953125 73.11328125 C-10.3117987 69.95400351 -10.02933116 66.63704403 -10.05566406 62.47314453 C-10.06527161 61.24822296 -10.07487915 60.02330139 -10.08477783 58.76126099 C-10.0896258 57.4228738 -10.09390463 56.08448446 -10.09765625 54.74609375 C-10.10341042 53.37230427 -10.10916812 51.9985148 -10.1149292 50.62472534 C-10.12542932 47.74476752 -10.13127848 44.86483754 -10.13476562 41.98486328 C-10.14024915 38.30054369 -10.16427785 34.61659388 -10.19273758 30.93239021 C-10.21139151 28.09446142 -10.216571 25.25662124 -10.2181015 22.41863632 C-10.22112223 21.06069797 -10.22913122 19.70276096 -10.24228668 18.34488297 C-10.25940319 16.44239911 -10.25561402 14.53976223 -10.25097656 12.63720703 C-10.25462219 11.55593536 -10.25826782 10.4746637 -10.26202393 9.36062622 C-9.37254192 2.25710566 -6.64443384 0.36151704 0 0 Z " fill="#000000" transform="translate(85.89453125,-0.42578125)"/>
<path d="M0 0 C1.1446875 -0.01583633 2.289375 -0.03167267 3.46875 -0.04798889 C5.30953125 -0.04054909 5.30953125 -0.04054909 7.1875 -0.03295898 C8.4559375 -0.03915756 9.724375 -0.04535614 11.03125 -0.05174255 C13.7114989 -0.05884259 16.39024516 -0.05761212 19.0703125 -0.04296875 C22.49720286 -0.02577325 25.92241764 -0.04929048 29.34912109 -0.08445835 C32.62860051 -0.11175122 35.90793907 -0.10169513 39.1875 -0.09545898 C41.02828125 -0.1153463 41.02828125 -0.1153463 42.90625 -0.13563538 C52.36576212 -0.03206377 52.36576212 -0.03206377 55.4609375 2.88525391 C57.60680435 6.17657428 57.99006662 7.6811275 57.1875 11.53344727 C55.53365066 14.09364475 54.78616873 15.10339587 52.1875 16.53344727 C47.77431341 17.28765828 43.40125648 17.20965689 38.93359375 17.16235352 C36.99408592 17.16597145 36.99408592 17.16597145 35.01539612 17.16966248 C32.28411273 17.17251503 29.55365189 17.15787298 26.82250977 17.13037109 C23.32617414 17.09625305 19.83130526 17.1023216 16.33489895 17.12103367 C12.99265177 17.13415601 9.65083068 17.11588783 6.30859375 17.09985352 C5.05437119 17.10481339 3.80014862 17.10977325 2.50791931 17.11488342 C0.76074364 17.09112892 0.76074364 17.09112892 -1.02172852 17.06689453 C-2.04589371 17.06069595 -3.0700589 17.05449738 -4.1252594 17.04811096 C-7.50316914 16.40116944 -8.69158292 15.18435672 -10.8125 12.53344727 C-11.37890625 10.53344727 -11.37890625 10.53344727 -11.375 8.53344727 C-11.39691406 7.87344727 -11.41882813 7.21344727 -11.44140625 6.53344727 C-9.78278258 1.25881795 -4.98176967 0.03075136 0 0 Z " fill="#000000" transform="translate(450.8125,57.466552734375)"/>
<path d="M0 0 C1.16478378 -0.01583633 2.32956757 -0.03167267 3.52964783 -0.04798889 C4.78387039 -0.04302902 6.03809296 -0.03806915 7.33032227 -0.03295898 C9.268395 -0.04225685 9.268395 -0.04225685 11.24562073 -0.05174255 C13.97854444 -0.06214113 16.71094732 -0.05759469 19.44384766 -0.04296875 C22.93913677 -0.02579013 26.43278053 -0.04926355 29.92788601 -0.08445835 C33.27046105 -0.11175532 36.61264094 -0.10169438 39.95532227 -0.09545898 C41.83361977 -0.1153463 41.83361977 -0.1153463 43.74986267 -0.13563538 C53.40203435 -0.032058 53.40203435 -0.032058 56.51196289 2.93945312 C58.25828782 5.60842642 58.81076159 6.56960607 58.27172852 9.65844727 C58.13444336 10.65231445 58.13444336 10.65231445 57.99438477 11.66625977 C56.90441674 14.25832304 55.60134465 15.07299692 53.20922852 16.53344727 C50.55995178 16.92112732 50.55995178 16.92112732 47.51025391 16.9375 C45.79310936 16.95652626 45.79310936 16.95652626 44.04127502 16.97593689 C42.80892624 16.97300125 41.57657745 16.97006561 40.30688477 16.96704102 C39.03703232 16.97228287 37.76717987 16.97752472 36.45884705 16.98292542 C33.7728681 16.98935019 31.08773831 16.98944142 28.40185547 16.97949219 C24.96732218 16.96800681 21.53381773 16.98820835 18.09941959 17.01740932 C14.81440298 17.04021464 11.52946198 17.03330283 8.24438477 17.02954102 C6.39889793 17.04639198 6.39889793 17.04639198 4.51612854 17.06358337 C3.36821335 17.05420242 2.22029816 17.04482147 1.03759766 17.03515625 C-0.47319618 17.034907 -0.47319618 17.034907 -2.01451111 17.03465271 C-5.53910453 16.39834877 -7.23588135 14.99273267 -9.79077148 12.53344727 C-10.41967773 10.53344727 -10.41967773 10.53344727 -10.35327148 8.53344727 C-10.35456055 7.87344727 -10.35584961 7.21344727 -10.35717773 6.53344727 C-8.84488217 1.19347949 -5.09133533 0.0308144 0 0 Z " fill="#000000" transform="translate(449.790771484375,28.466552734375)"/>
<path d="M0 0 C1.18803223 -0.01583633 2.37606445 -0.03167267 3.60009766 -0.04798889 C4.87933105 -0.04302902 6.15856445 -0.03806915 7.4765625 -0.03295898 C8.79317871 -0.03915756 10.10979492 -0.04535614 11.46630859 -0.05174255 C14.2505036 -0.06214059 17.03418732 -0.0575943 19.81835938 -0.04296875 C23.38323636 -0.02577317 26.94650268 -0.04928505 30.51119995 -0.08445835 C33.91641611 -0.11171966 37.32124218 -0.10169731 40.7265625 -0.09545898 C42.0057959 -0.10871719 43.2850293 -0.1219754 44.60302734 -0.13563538 C45.79105957 -0.12310226 46.9790918 -0.11056915 48.203125 -0.09765625 C49.24807129 -0.09669449 50.29301758 -0.09573273 51.36962891 -0.09474182 C54.1015625 0.53344727 54.1015625 0.53344727 56.47412109 2.84632874 C58.1015625 5.53344727 58.1015625 5.53344727 58.0390625 9.15844727 C57.14367593 12.38183893 56.75049365 13.62621684 54.1015625 15.53344727 C51.53569312 16.81638196 49.68624701 16.67446656 46.81323242 16.69458008 C45.70835983 16.70418762 44.60348724 16.71379517 43.46513367 16.72369385 C41.66674797 16.73006866 41.66674797 16.73006866 39.83203125 16.73657227 C38.603741 16.74227234 37.37545074 16.74797241 36.10993958 16.75384521 C33.50648869 16.76330596 30.90302578 16.76983344 28.29956055 16.77368164 C24.31608102 16.78023521 20.33296814 16.81439396 16.34960938 16.84594727 C13.82291974 16.85247765 11.2962264 16.85772798 8.76953125 16.86157227 C6.98025459 16.88009247 6.98025459 16.88009247 5.15483093 16.89898682 C4.04050186 16.89598572 2.92617279 16.89298462 1.77807617 16.88989258 C0.3115284 16.89536102 0.3115284 16.89536102 -1.18464661 16.90093994 C-4.68948702 16.42632593 -7.38144695 15.05043782 -9.8984375 12.53344727 C-10.4925456 5.28532842 -10.4925456 5.28532842 -8.24047852 2.43519592 C-5.29273481 0.04161374 -3.76423338 0.02232928 0 0 Z " fill="#000000" transform="translate(449.8984375,-0.533447265625)"/>
<path d="M0 0 C1.50312744 -0.00717545 1.50312744 -0.00717545 3.03662109 -0.01449585 C5.15138319 -0.01789228 7.26619798 -0.00870791 9.38085938 0.01220703 C12.61447421 0.03897537 15.8446179 0.01244957 19.078125 -0.01953125 C21.13542431 -0.01622711 23.19272147 -0.00982078 25.25 0 C26.21470215 -0.01012115 27.1794043 -0.02024231 28.17333984 -0.03067017 C32.78588421 0.04970833 34.96640015 0.17981593 38.7734375 2.97900391 C40.625 5.6640625 40.625 5.6640625 40.625 9.2890625 C39.63818095 12.61957679 39.28769169 13.63988048 36.625 15.6640625 C34.46888733 16.05847168 34.46888733 16.05847168 31.94165039 16.08398438 C30.51986229 16.10785217 30.51986229 16.10785217 29.0693512 16.13220215 C27.5364872 16.13250427 27.5364872 16.13250427 25.97265625 16.1328125 C24.92097763 16.14042603 23.86929901 16.14803955 22.78575134 16.15588379 C20.56072363 16.16669336 18.33564513 16.16953444 16.1105957 16.16503906 C12.70372993 16.16406713 9.29911832 16.20567287 5.89257812 16.25 C3.73177554 16.25520712 1.57096511 16.25789519 -0.58984375 16.2578125 C-2.1196714 16.2824054 -2.1196714 16.2824054 -3.68040466 16.30749512 C-10.73837291 16.23843454 -10.73837291 16.23843454 -14.01391602 13.28320312 C-15.56760915 10.29342377 -16.11706522 8.96213014 -15.375 5.6640625 C-11.06488386 -0.30919628 -6.80839434 -0.07143014 0 0 Z " fill="#050404" transform="translate(97.375,281.3359375)"/>
<path d="M0 0 C0.97988892 -0.00004028 1.95977783 -0.00008057 2.96936035 -0.00012207 C5.03709339 0.00522942 7.10482616 0.0227962 9.17236328 0.05175781 C12.33299075 0.09360754 15.49148593 0.09282497 18.65234375 0.0859375 C20.66407727 0.09643071 22.67579983 0.10936952 24.6875 0.125 C25.63032837 0.12520142 26.57315674 0.12540283 27.54455566 0.12561035 C36.03549556 0.27837379 36.03549556 0.27837379 39.84375 3.59375 C41.07893743 7.51728654 41.35585693 9.56146406 39.51171875 13.27880859 C35.38706891 16.85768211 31.38788747 16.31051266 26.09375 16.2578125 C24.51835449 16.26498795 24.51835449 16.26498795 22.91113281 16.27230835 C20.69204205 16.2757087 18.47290128 16.26649693 16.25390625 16.24560547 C12.85563549 16.2188436 9.46066792 16.24535057 6.0625 16.27734375 C3.9062427 16.27403968 1.74998746 16.2676335 -0.40625 16.2578125 C-1.42299805 16.26793365 -2.43974609 16.27805481 -3.48730469 16.28848267 C-10.51750618 16.17157658 -10.51750618 16.17157658 -13.79296875 13.20849609 C-15.35063862 10.22091653 -15.89830395 8.89176753 -15.15625 5.59375 C-10.86031076 -0.3269638 -6.76318114 -0.11760798 0 0 Z " fill="#050404" transform="translate(97.15625,241.40625)"/>
<path d="M0 0 C0.97988892 -0.00004028 1.95977783 -0.00008057 2.96936035 -0.00012207 C5.03709339 0.00522942 7.10482616 0.0227962 9.17236328 0.05175781 C12.33299075 0.09360754 15.49148593 0.09282497 18.65234375 0.0859375 C20.66407727 0.09643071 22.67579983 0.10936952 24.6875 0.125 C25.63032837 0.12520142 26.57315674 0.12540283 27.54455566 0.12561035 C36.03549556 0.27837379 36.03549556 0.27837379 39.84375 3.59375 C41.07893743 7.51728654 41.35585693 9.56146406 39.51171875 13.27880859 C35.38706891 16.85768211 31.38788747 16.31051266 26.09375 16.2578125 C24.51835449 16.26498795 24.51835449 16.26498795 22.91113281 16.27230835 C20.69204205 16.2757087 18.47290128 16.26649693 16.25390625 16.24560547 C12.85563549 16.2188436 9.46066792 16.24535057 6.0625 16.27734375 C3.9062427 16.27403968 1.74998746 16.2676335 -0.40625 16.2578125 C-1.42299805 16.26793365 -2.43974609 16.27805481 -3.48730469 16.28848267 C-10.51750618 16.17157658 -10.51750618 16.17157658 -13.79296875 13.20849609 C-15.35063862 10.22091653 -15.89830395 8.89176753 -15.15625 5.59375 C-10.86031076 -0.3269638 -6.76318114 -0.11760798 0 0 Z " fill="#060405" transform="translate(97.15625,201.40625)"/>
<path d="M0 0 C3.125 2.0625 3.125 2.0625 5 5 C5 8.48188617 4.85390908 10.82416993 2.77734375 13.68359375 C-0.85640532 16.37496394 -5.70933472 15.56523734 -10 15 C-12.6875 13.4375 -12.6875 13.4375 -14 11 C-14.5625 7.5 -14.5625 7.5 -14 4 C-10.29633724 -0.6594467 -5.57773606 -1.14776518 0 0 Z " fill="#080506" transform="translate(56,282)"/>
<path d="M0 0 C3.125 2.0625 3.125 2.0625 5 5 C5 8.48188617 4.85390908 10.82416993 2.77734375 13.68359375 C-0.85640532 16.37496394 -5.70933472 15.56523734 -10 15 C-12.6875 13.4375 -12.6875 13.4375 -14 11 C-14.5625 7.5 -14.5625 7.5 -14 4 C-10.29633724 -0.6594467 -5.57773606 -1.14776518 0 0 Z " fill="#080606" transform="translate(56,242)"/>
<path d="M0 0 C3.125 2.0625 3.125 2.0625 5 5 C5 8.48188617 4.85390908 10.82416993 2.77734375 13.68359375 C-0.85640532 16.37496394 -5.70933472 15.56523734 -10 15 C-12.6875 13.4375 -12.6875 13.4375 -14 11 C-14.5625 7.5 -14.5625 7.5 -14 4 C-10.29633724 -0.6594467 -5.57773606 -1.14776518 0 0 Z " fill="#080606" transform="translate(56,202)"/>
</svg>
